<svg xmlns="http://www.w3.org/2000/svg" xmlns:xlink="http://www.w3.org/1999/xlink" viewBox="0 0 197.98 172.45"><defs><style>.cls-1{fill:url(#New_Gradient_Swatch_copy_11);}.cls-2{fill:url(#New_Gradient_Swatch_copy_11-2);}.cls-3{fill:url(#New_Gradient_Swatch_copy_11-3);}.cls-4{fill:url(#New_Gradient_Swatch_copy_11-4);}.cls-5{fill:url(#New_Gradient_Swatch_copy_11-5);}.cls-6{fill:url(#New_Gradient_Swatch_copy_11-6);}.cls-7{fill:url(#New_Gradient_Swatch_copy_11-7);}.cls-8{fill:url(#New_Gradient_Swatch_copy_11-8);}.cls-9{fill:url(#New_Gradient_Swatch_copy_11-9);}.cls-10{fill:url(#New_Gradient_Swatch_copy_11-10);}.cls-11{fill:url(#New_Gradient_Swatch_copy_11-11);}.cls-12{fill:url(#New_Gradient_Swatch_copy_11-12);}.cls-13{fill:url(#New_Gradient_Swatch_copy_11-13);}.cls-14{fill:url(#New_Gradient_Swatch_copy_11-14);}.cls-15{fill:url(#New_Gradient_Swatch_copy_11-15);}.cls-16{fill:url(#New_Gradient_Swatch_copy_11-16);}.cls-17{fill:url(#New_Gradient_Swatch_copy_11-17);}.cls-18{fill:url(#New_Gradient_Swatch_copy_11-18);}.cls-19{fill:url(#New_Gradient_Swatch_copy_11-19);}.cls-20{fill:url(#New_Gradient_Swatch_copy_11-20);}.cls-21{fill:url(#New_Gradient_Swatch_copy_11-21);}.cls-22{fill:url(#New_Gradient_Swatch_copy_11-22);}.cls-23{fill:url(#New_Gradient_Swatch_copy_11-23);}.cls-24{fill:url(#New_Gradient_Swatch_copy_11-24);}.cls-25{fill:url(#New_Gradient_Swatch_copy_11-25);}.cls-26{fill:url(#New_Gradient_Swatch_copy_11-26);}.cls-27{fill:url(#New_Gradient_Swatch_copy_11-27);}.cls-28{fill:url(#New_Gradient_Swatch_copy_11-28);}.cls-29{fill:url(#New_Gradient_Swatch_copy_11-29);}.cls-30{fill:url(#New_Gradient_Swatch_copy_11-30);}.cls-31{fill:url(#New_Gradient_Swatch_copy_11-31);}.cls-32{fill:url(#New_Gradient_Swatch_copy_11-32);}.cls-33{fill:url(#New_Gradient_Swatch_copy_11-33);}.cls-34{fill:url(#New_Gradient_Swatch_copy_11-34);}</style><linearGradient id="New_Gradient_Swatch_copy_11" x1="207.7" y1="44.1" x2="67.3" y2="-12.06" gradientUnits="userSpaceOnUse"><stop offset="0" stop-color="#914e3d"/><stop offset="0.05" stop-color="#9e5d4c"/><stop offset="0.1" stop-color="#b27362"/><stop offset="0.16" stop-color="#c48776"/><stop offset="0.28" stop-color="#f1baa9"/><stop offset="0.3" stop-color="#fac4b3"/><stop offset="0.5" stop-color="#f4b5a5"/><stop offset="1" stop-color="#946051"/></linearGradient><linearGradient id="New_Gradient_Swatch_copy_11-2" x1="191.17" y1="85.43" x2="50.77" y2="29.27" xlink:href="#New_Gradient_Swatch_copy_11"/><linearGradient id="New_Gradient_Swatch_copy_11-3" x1="192.39" y1="82.37" x2="51.99" y2="26.21" xlink:href="#New_Gradient_Swatch_copy_11"/><linearGradient id="New_Gradient_Swatch_copy_11-4" x1="195.77" y1="73.94" x2="55.37" y2="17.78" xlink:href="#New_Gradient_Swatch_copy_11"/><linearGradient id="New_Gradient_Swatch_copy_11-5" x1="191.06" y1="85.7" x2="50.66" y2="29.54" xlink:href="#New_Gradient_Swatch_copy_11"/><linearGradient id="New_Gradient_Swatch_copy_11-6" x1="190.78" y1="86.4" x2="50.38" y2="30.24" xlink:href="#New_Gradient_Swatch_copy_11"/><linearGradient id="New_Gradient_Swatch_copy_11-7" x1="207.9" y1="43.6" x2="67.5" y2="-12.56" xlink:href="#New_Gradient_Swatch_copy_11"/><linearGradient id="New_Gradient_Swatch_copy_11-8" x1="197.16" y1="70.46" x2="56.76" y2="14.3" xlink:href="#New_Gradient_Swatch_copy_11"/><linearGradient id="New_Gradient_Swatch_copy_11-9" x1="205.73" y1="49.03" x2="65.33" y2="-7.13" xlink:href="#New_Gradient_Swatch_copy_11"/><linearGradient id="New_Gradient_Swatch_copy_11-10" x1="189.92" y1="88.55" x2="49.52" y2="32.39" xlink:href="#New_Gradient_Swatch_copy_11"/><linearGradient id="New_Gradient_Swatch_copy_11-11" x1="187.06" y1="95.7" x2="46.66" y2="39.54" xlink:href="#New_Gradient_Swatch_copy_11"/><linearGradient id="New_Gradient_Swatch_copy_11-12" x1="196.76" y1="71.46" x2="56.36" y2="15.3" xlink:href="#New_Gradient_Swatch_copy_11"/><linearGradient id="New_Gradient_Swatch_copy_11-13" x1="187.6" y1="94.34" x2="47.2" y2="38.18" xlink:href="#New_Gradient_Swatch_copy_11"/><linearGradient id="New_Gradient_Swatch_copy_11-14" x1="204.32" y1="52.54" x2="63.92" y2="-3.62" xlink:href="#New_Gradient_Swatch_copy_11"/><linearGradient id="New_Gradient_Swatch_copy_11-15" x1="195.99" y1="73.38" x2="55.59" y2="17.22" xlink:href="#New_Gradient_Swatch_copy_11"/><linearGradient id="New_Gradient_Swatch_copy_11-16" x1="196.28" y1="72.65" x2="55.88" y2="16.49" xlink:href="#New_Gradient_Swatch_copy_11"/><linearGradient id="New_Gradient_Swatch_copy_11-17" x1="202.34" y1="57.51" x2="61.94" y2="1.35" xlink:href="#New_Gradient_Swatch_copy_11"/><linearGradient id="New_Gradient_Swatch_copy_11-18" x1="203.98" y1="53.4" x2="63.58" y2="-2.76" xlink:href="#New_Gradient_Swatch_copy_11"/><linearGradient id="New_Gradient_Swatch_copy_11-19" x1="199.65" y1="64.23" x2="59.25" y2="8.07" xlink:href="#New_Gradient_Swatch_copy_11"/><linearGradient id="New_Gradient_Swatch_copy_11-20" x1="192.92" y1="81.05" x2="52.52" y2="24.89" xlink:href="#New_Gradient_Swatch_copy_11"/><linearGradient id="New_Gradient_Swatch_copy_11-21" x1="188.96" y1="90.96" x2="48.56" y2="34.8" xlink:href="#New_Gradient_Swatch_copy_11"/><linearGradient id="New_Gradient_Swatch_copy_11-22" x1="188.64" y1="91.76" x2="48.24" y2="35.6" xlink:href="#New_Gradient_Swatch_copy_11"/><linearGradient id="New_Gradient_Swatch_copy_11-23" x1="196.59" y1="71.88" x2="56.19" y2="15.72" xlink:href="#New_Gradient_Swatch_copy_11"/><linearGradient id="New_Gradient_Swatch_copy_11-24" x1="183.87" y1="103.68" x2="43.47" y2="47.52" xlink:href="#New_Gradient_Swatch_copy_11"/><linearGradient id="New_Gradient_Swatch_copy_11-25" x1="183.19" y1="105.38" x2="42.79" y2="49.22" xlink:href="#New_Gradient_Swatch_copy_11"/><linearGradient id="New_Gradient_Swatch_copy_11-26" x1="200.4" y1="62.36" x2="60" y2="6.2" xlink:href="#New_Gradient_Swatch_copy_11"/><linearGradient id="New_Gradient_Swatch_copy_11-27" x1="195.43" y1="74.78" x2="55.03" y2="18.62" xlink:href="#New_Gradient_Swatch_copy_11"/><linearGradient id="New_Gradient_Swatch_copy_11-28" x1="178.1" y1="118.09" x2="37.7" y2="61.93" xlink:href="#New_Gradient_Swatch_copy_11"/><linearGradient id="New_Gradient_Swatch_copy_11-29" x1="174.07" y1="128.18" x2="33.67" y2="72.02" xlink:href="#New_Gradient_Swatch_copy_11"/><linearGradient id="New_Gradient_Swatch_copy_11-30" x1="170.82" y1="136.31" x2="30.42" y2="80.15" xlink:href="#New_Gradient_Swatch_copy_11"/><linearGradient id="New_Gradient_Swatch_copy_11-31" x1="167.98" y1="143.4" x2="27.58" y2="87.24" xlink:href="#New_Gradient_Swatch_copy_11"/><linearGradient id="New_Gradient_Swatch_copy_11-32" x1="165.15" y1="150.48" x2="24.75" y2="94.32" xlink:href="#New_Gradient_Swatch_copy_11"/><linearGradient id="New_Gradient_Swatch_copy_11-33" x1="162.31" y1="157.57" x2="21.91" y2="101.41" xlink:href="#New_Gradient_Swatch_copy_11"/><linearGradient id="New_Gradient_Swatch_copy_11-34" x1="159.48" y1="164.66" x2="19.08" y2="108.5" xlink:href="#New_Gradient_Swatch_copy_11"/></defs><title>golden-floral-illustration</title><g id="Layer_2" data-name="Layer 2"><g id="Layer_1-2" data-name="Layer 1"><path class="cls-1" d="M183,39.07a11.57,11.57,0,0,1-1.33-.4l-.63-.22-.68-.32a7.47,7.47,0,0,1-2.19-1.67,8.25,8.25,0,0,1-2-4,7.56,7.56,0,0,1,1-5.67,5.55,5.55,0,0,1,1.12-1.26,2.5,2.5,0,0,1,.91-.54c.51-.19.79-.1,1,.08a.86.86,0,0,1,.18.83c-.07.4-.34.95-.6,1.83a6.89,6.89,0,0,0-.21,3.73A5.8,5.8,0,0,0,180.69,34a4.88,4.88,0,0,0,1.25,1,10.72,10.72,0,0,0,2,.76,7.94,7.94,0,0,0,5.69-.27,8.13,8.13,0,0,0,2.51-1.93,14.37,14.37,0,0,0,1.91-3,12.75,12.75,0,0,0,1-7.35A14.72,14.72,0,0,0,191.6,16a15.08,15.08,0,0,0-6.92-4.61,16.23,16.23,0,0,0-8.53-.1,16.72,16.72,0,0,0-7.51,4.07,13.78,13.78,0,0,0-2.59,3.27,21.71,21.71,0,0,0-1.6,3.87,25.14,25.14,0,0,0,.28,15.62,23.64,23.64,0,0,0,1.45,3.27l1.71,3.05a52.78,52.78,0,0,0,3.36,5.23,57.26,57.26,0,0,0,6,6.77c1.53,1.52,2.39,2.35,2.3,2.45a11.12,11.12,0,0,1-2.75-2,46.41,46.41,0,0,1-6.49-6.55,52.44,52.44,0,0,1-3.62-5.24c-.6-1-1.19-2-1.81-3a26.07,26.07,0,0,1-1.63-3.45A26.55,26.55,0,0,1,162.62,22a24,24,0,0,1,1.69-4.29,16.27,16.27,0,0,1,2.89-3.79,19,19,0,0,1,8.38-4.73,18.65,18.65,0,0,1,9.78,0,17.65,17.65,0,0,1,8.18,5.23,17.35,17.35,0,0,1,4.19,8.43,15.68,15.68,0,0,1-1,9,17,17,0,0,1-2.28,3.75A10.77,10.77,0,0,1,183,39.07Z"/><path class="cls-2" d="M152.48,74.3A8.06,8.06,0,0,0,155,70.63a10,10,0,0,0,.58-3.62,9,9,0,0,0-1.31-4.61l-.43-.67-.43-.5a8.3,8.3,0,0,0-.63-.74c-.32-.4-.4-.68-.32-.85s.26-.3.77-.23a4.6,4.6,0,0,1,2.49,1.37,9,9,0,0,1,2.61,5.7,12.19,12.19,0,0,1-.53,4.82,10.36,10.36,0,0,1-3.62,5.19,10.87,10.87,0,0,1-9.1,1.57,14.56,14.56,0,0,1-8.17-5.7,12.14,12.14,0,0,1-2.07-5,24,24,0,0,1-.24-2.68,15.68,15.68,0,0,1,.26-2.73A13.43,13.43,0,0,1,137,56.82a16.52,16.52,0,0,1,4-4,22.94,22.94,0,0,1,5-2.66,27.49,27.49,0,0,1,5.51-1.4,25.8,25.8,0,0,1,5.69-.19,24.09,24.09,0,0,1,2.81.28l1.4.2,1.38.3A33.73,33.73,0,0,1,181.26,60.5,36.88,36.88,0,0,1,190,86.76a34.85,34.85,0,0,1-1.36,7.34,32,32,0,0,1-4.8,9.62A19.67,19.67,0,0,1,182,106c-.45.49-.71.73-.75.7s.15-.33.53-.88,1-1.3,1.65-2.37a34.3,34.3,0,0,0,4.35-9.59,35.47,35.47,0,0,0-7.63-32.36A32.19,32.19,0,0,0,162.35,51L161,50.75l-1.33-.17a21.53,21.53,0,0,0-2.67-.23,24.07,24.07,0,0,0-5.3.24,25.6,25.6,0,0,0-5.07,1.35,21.07,21.07,0,0,0-4.5,2.47A14.6,14.6,0,0,0,138.75,58,11.31,11.31,0,0,0,137,62.39a13,13,0,0,0-.19,2.33c.06.77.12,1.56.25,2.3a9.93,9.93,0,0,0,1.77,4,12.11,12.11,0,0,0,6.84,4.57A8.1,8.1,0,0,0,152.48,74.3Z"/><path class="cls-3" d="M101.81,65.58a10.05,10.05,0,0,0,3.33-3.51,12.48,12.48,0,0,0,1.38-3.69,12,12,0,0,0-.06-5.23c-.09-.3-.16-.58-.22-.84s-.16-.47-.22-.69c-.12-.43-.24-.75-.32-1-.14-.55-.08-.88.1-1.05s.44-.23,1,0a5.41,5.41,0,0,1,2.08,2.25A11,11,0,0,1,110,58.53a13.7,13.7,0,0,1-1.62,5,12.53,12.53,0,0,1-4.81,5A14.39,14.39,0,0,1,93.67,70a17.41,17.41,0,0,1-9.51-5.29,17.15,17.15,0,0,1-4.32-10.7,21.44,21.44,0,0,1,2.73-11.62,25,25,0,0,1,8.52-8.8,33.87,33.87,0,0,1,11.44-4.51c8.08-1.57,16.21-.6,23.58,1A106.25,106.25,0,0,1,161.74,44.7a88.34,88.34,0,0,1,9.4,6.92c2.09,1.79,3.17,2.87,3.09,3-.21.25-4.75-3.82-13.11-8.91a108.77,108.77,0,0,0-35.4-13.74c-7.27-1.45-15.16-2.25-22.75-.65a31.49,31.49,0,0,0-10.58,4.33,22.52,22.52,0,0,0-7.57,8,18.77,18.77,0,0,0-2.23,10.25,14.3,14.3,0,0,0,3.77,8.88,14.11,14.11,0,0,0,7.89,4.15A10.88,10.88,0,0,0,101.81,65.58Z"/><path class="cls-4" d="M66.32,9.5a9.92,9.92,0,0,1,.48,7.3,7.12,7.12,0,0,1-2.55,3.66,3.3,3.3,0,0,1-2,.75.81.81,0,0,1-.78-.41,1,1,0,0,1,0-.81,2.25,2.25,0,0,1,.3-.53,5.35,5.35,0,0,1,.48-.74A10.12,10.12,0,0,0,63.42,16a8.37,8.37,0,0,0-.3-5.18,5.87,5.87,0,0,0-2.81-3.07,8.5,8.5,0,0,0-5-.79,9.63,9.63,0,0,0-5.09,2.23,10,10,0,0,0-3,5.07,13,13,0,0,0,0,6.31,14.28,14.28,0,0,0,3,5.76,26,26,0,0,0,11.22,7.2,42.63,42.63,0,0,0,22.58,1.53c5.8-1.19,9.12-3,9.25-2.66,0,.1-.73.62-2.24,1.37a36,36,0,0,1-6.75,2.41A42.35,42.35,0,0,1,61,35.33a27.94,27.94,0,0,1-12.29-7.55A16.62,16.62,0,0,1,45,21.2a15.49,15.49,0,0,1-.22-7.5,12.51,12.51,0,0,1,3.64-6.5A12.55,12.55,0,0,1,55,4.09,11.73,11.73,0,0,1,61.77,5,9.42,9.42,0,0,1,66.32,9.5Z"/><path class="cls-5" d="M27,25.73a2.12,2.12,0,0,0,.56-.78,3.42,3.42,0,0,0,.21-.77c.07-.49.07-.85.09-1.16a3.26,3.26,0,0,1,.36-1.6.89.89,0,0,1,.61-.44,1.59,1.59,0,0,1,1.26.5,3.81,3.81,0,0,1,1.15,2.6,5,5,0,0,1-2.21,4.45,7,7,0,0,1-7.8-.18,8.74,8.74,0,0,1-3.59-7.59,9.58,9.58,0,0,1,4.49-7.37,12.65,12.65,0,0,1,8-2,18.15,18.15,0,0,1,7,2.1,27.25,27.25,0,0,1,4.78,3.28c2.47,2.12,3.76,3.64,3.61,3.81s-1.73-1.06-4.32-2.9a30.55,30.55,0,0,0-4.76-2.8,17,17,0,0,0-6.39-1.6,10.56,10.56,0,0,0-6.65,1.9,7.21,7.21,0,0,0-3.2,5.66,5.92,5.92,0,0,0,2.67,5.06A3.63,3.63,0,0,0,27,25.73Z"/><path class="cls-6" d="M9.53,6.83a4.13,4.13,0,0,1,1.38,1.9,3.92,3.92,0,0,1,.18,1.81A3.1,3.1,0,0,1,9.9,12.66a1.4,1.4,0,0,1-1.24.27,1.06,1.06,0,0,1-.57-.53,4.09,4.09,0,0,1-.37-1.34c0-.21,0-.43-.09-.73a3.06,3.06,0,0,0-.12-.48,1.2,1.2,0,0,0-.29-.45,2.36,2.36,0,0,0-2.56-.28,4.07,4.07,0,0,0-2.1,3.19,5,5,0,0,0,1.77,4.08A7.52,7.52,0,0,0,8.9,18.3c3.43.29,6.57-1.14,8.7-2.22s3.5-1.9,3.65-1.69-1,1.25-3,2.67a20.87,20.87,0,0,1-3.93,2.1,13.91,13.91,0,0,1-5.48,1,9.61,9.61,0,0,1-5.93-2.13A7.37,7.37,0,0,1,0,12.14,6.83,6.83,0,0,1,3.28,6.53,5.71,5.71,0,0,1,9.53,6.83Z"/><path class="cls-7" d="M147.24,9.67A6.42,6.42,0,0,1,146,13a6.51,6.51,0,0,1-2.17,1.84,5.33,5.33,0,0,1-3.73.56,2.39,2.39,0,0,1-1.56-1,.78.78,0,0,1,0-.82c.23-.47.69-.66,1.61-.86A6.43,6.43,0,0,0,142,12a4.72,4.72,0,0,0,1.12-1,3.5,3.5,0,0,0,.71-1.69,5.76,5.76,0,0,0-3.16-5.62,9.09,9.09,0,0,0-8.5.35,10.53,10.53,0,0,0-5,8,14.8,14.8,0,0,0,2.17,9.6,24.2,24.2,0,0,0,6.45,6.87,44.26,44.26,0,0,0,6.86,4c4.15,2,6.83,3,6.74,3.27s-2.87-.5-7.21-2.22a39.86,39.86,0,0,1-7.29-3.8,25.25,25.25,0,0,1-7.17-7.15,18.19,18.19,0,0,1-2.29-5.09,16.3,16.3,0,0,1-.47-5.75,12.91,12.91,0,0,1,5.86-9.92A12,12,0,0,1,142,1,9.08,9.08,0,0,1,147.24,9.67Z"/><path class="cls-8" d="M131.69,47.78s.63-.32,1.83-.84a30.73,30.73,0,0,1,5.33-1.76,26.93,26.93,0,0,1,8.51-.55A27.43,27.43,0,0,1,158,47.85a15.34,15.34,0,0,0-7.61-1.3,13.44,13.44,0,0,0-6.58,2.36c-1.56,1.12-2.67,2.53-4.16,3a3.9,3.9,0,0,1-2.61-.15,3.83,3.83,0,0,1-2.25-2c-.29,1-1.21,1.32-2.23,1.41s-2.1-.11-3.19.06a6.35,6.35,0,0,0-3,1.6,14.56,14.56,0,0,0,1.27-3.34,15.43,15.43,0,0,1,.79-3.46,3.19,3.19,0,0,1,2.8-2.1,2.63,2.63,0,0,1-.17-3.14A6.44,6.44,0,0,1,134.33,38c2.9-1.13,6-.59,8.67.19a40.78,40.78,0,0,1,15.64,8.71,21.68,21.68,0,0,0-11.08-4.34,21,21,0,0,0-9.16,1.12,19.55,19.55,0,0,0-5.15,2.76A13.93,13.93,0,0,0,131.69,47.78Z"/><path class="cls-9" d="M149.81,21.25a17.32,17.32,0,0,0,.33,1.91,32.85,32.85,0,0,0,1.62,5.27A36.36,36.36,0,0,0,155.94,36a36.9,36.9,0,0,0,7.92,8c-4.52-2.82-9.17-5.8-13.86-9.06-2-1.4-4.12-3-5.13-5.35s-.1-5.56,2.12-5.82a2.71,2.71,0,0,1-.79-3,22.33,22.33,0,0,1,1.41-3.06,9.76,9.76,0,0,0,.67-3.33,7,7,0,0,0,1.78,2.83c.79.72,1.81,1.18,2.59,1.87a2.27,2.27,0,0,1,.89,2.57c2-1,4.38.38,5.16,2.05s.57,3.73.63,5.77a22.87,22.87,0,0,0,5.27,13.72,74,74,0,0,1-11.43-15.38c-1.15-2-1.94-3.67-2.51-4.79Z"/><path class="cls-10" d="M61.84,40.53l.34.16a9.55,9.55,0,0,0,1,.43,19.81,19.81,0,0,0,4.1,1.06,22,22,0,0,0,6.64,0,21,21,0,0,0,8-3,40.2,40.2,0,0,1-11,5.52,11.7,11.7,0,0,1-5.51.69c-2-.35-3.71-1.85-3.06-2.77a2.93,2.93,0,0,1-2.26-.88,13.11,13.11,0,0,1-1.42-1.79A13,13,0,0,0,57,38.11a6.27,6.27,0,0,0,2.37.66c.74,0,1.4-.14,2.13-.15a2.73,2.73,0,0,1,2,.65c.1-1.1,1.86-1.51,3.27-1.31a23.19,23.19,0,0,1,4.1,1.3,15.66,15.66,0,0,0,10.89-.64,27.86,27.86,0,0,1-14.31,2.8,32.69,32.69,0,0,1-4.12-.56c-.47-.08-.83-.19-1.07-.24Z"/><path class="cls-11" d="M73.76,58.1l0-.35c0-.23,0-.58.13-1A26.12,26.12,0,0,1,74.74,53,24.15,24.15,0,0,1,82,41.53a13.37,13.37,0,0,0-4.1,9.22,18.52,18.52,0,0,1-.09,4c-.25,1.26-1.23,2.63-2.32,2.39a2.27,2.27,0,0,1,0,1.92c-.25.63-.64,1.15-.84,1.81a5.41,5.41,0,0,0-.16,2.29A12,12,0,0,0,73.38,61a11.74,11.74,0,0,1-1.25-1.8A2.57,2.57,0,0,1,72,57c-1.1.28-2-1.74-1.63-3.62a10.39,10.39,0,0,1,2.48-4.63,35,35,0,0,1,8.77-7.61A18.07,18.07,0,0,0,76.18,47,18.83,18.83,0,0,0,74,52.79a17.39,17.39,0,0,0-.34,3.93,7.87,7.87,0,0,0,.07,1C73.75,58,73.76,58.1,73.76,58.1Z"/><path class="cls-12" d="M28.86,4.49s.45.06,1.26.23a17.89,17.89,0,0,1,3.41,1.07,16.4,16.4,0,0,1,4.58,2.92,16.79,16.79,0,0,1,4.16,5.71A10,10,0,0,0,35,9.05a22.2,22.2,0,0,1-3.39-.39c-1-.34-2.16-1.35-1.87-2.41A2,2,0,0,1,28,6.13c-.56-.28-1-.66-1.65-.9A4.64,4.64,0,0,0,24.18,5a11.13,11.13,0,0,0,2-1,11,11,0,0,1,1.74-1.17,2.34,2.34,0,0,1,2.17,0C29.83,1.75,31.86,1,33.69,1.52a8.76,8.76,0,0,1,4.2,3,23.35,23.35,0,0,1,4.9,9.71,13.81,13.81,0,0,0-4-6.28,13.49,13.49,0,0,0-5-2.89,13.27,13.27,0,0,0-3.64-.62A9.31,9.31,0,0,0,28.86,4.49Z"/><path class="cls-13" d="M175.14,75.76s.67.65,1.77,2a26.67,26.67,0,0,1,3.87,6.19,24.12,24.12,0,0,1,2.08,10.87,25.28,25.28,0,0,1-4.62,13.67,17.28,17.28,0,0,0,2.63-9.56,15.11,15.11,0,0,0-2.68-8.35c-1.39-1.91-3.13-3.19-4.19-5a6.33,6.33,0,0,1-.87-3.15,3.19,3.19,0,0,1,1.17-2.85,4,4,0,0,1-2.63-2.29A29.48,29.48,0,0,0,170,73.91a8.65,8.65,0,0,0-3.49-2.65,37.64,37.64,0,0,0,4.61.44,19,19,0,0,1,4.37.18,5,5,0,0,1,3.64,2.81c.54-1,1.82-1.15,3.35-.6a9.36,9.36,0,0,1,4.29,3.59,14,14,0,0,1,2,5.44,22,22,0,0,1,.09,5.48,34,34,0,0,1-9.75,20.55,22.79,22.79,0,0,0,5.8-14.28,21.58,21.58,0,0,0-2.74-11.64,21.35,21.35,0,0,0-4.88-5.88A16.61,16.61,0,0,0,175.14,75.76Z"/><path class="cls-14" d="M124.66,26.21a12.09,12.09,0,0,1-14.19-3.87A13.38,13.38,0,0,1,108,14a13.4,13.4,0,0,1,2.87-8c-1.22,1.65-.49,3.87.94,5.16S116,13.26,117.63,14a10.71,10.71,0,0,1,4.46,3.76c1.21,1.81,2.06,4.25,2.81,8,0,0-.36-.31-1-.8l-2.77-2.13-9.16-7s.13.29.4.8a21.6,21.6,0,0,0,1.28,2.06,20.86,20.86,0,0,0,5.73,5.46,16,16,0,0,0,4.92,2Z"/><path class="cls-15" d="M127.08,35.06a26.61,26.61,0,0,1-.53,6.63,10.43,10.43,0,0,1-2.12,4.78,11.29,11.29,0,0,1-4.87,2.81,35.8,35.8,0,0,1-7,1.72,3.5,3.5,0,0,0,2.83-3.49c.11-1.63-.48-4.19-.22-6a7.67,7.67,0,0,1,3.17-5.27,10.57,10.57,0,0,1,8.43-1.54s-.38.21-1,.63a16,16,0,0,0-2.45,2,15.68,15.68,0,0,0-4.44,8.52s.66-.7,1.65-1.88,2.34-2.84,3.85-4.84c.88-1.16,1.7-2.44,2.56-3.77Z"/><path class="cls-16" d="M186,70.94a16.29,16.29,0,0,1-5.42-2.65,25.94,25.94,0,0,0-2.52-1.48,15.84,15.84,0,0,0-2.27-.94,24.91,24.91,0,0,0-5.91-1.29,13.19,13.19,0,0,0-6.7.88A20.76,20.76,0,0,0,165.61,64l2.49-1.65c1.58-1.07,3.68-2.59,5.85-3a9.13,9.13,0,0,1,3.89,0,9.63,9.63,0,0,1,4.34,2.26,11.34,11.34,0,0,1,2.89,4.23,20.7,20.7,0,0,1,1.14,4.83l-.74-1.16a34.86,34.86,0,0,0-2.22-3.16,11.44,11.44,0,0,0-4.51-3.51,9.42,9.42,0,0,0-6.22-.21l.85,0a14.54,14.54,0,0,1,2.26.3,11,11,0,0,1,3.14,1.18,15.39,15.39,0,0,1,3.29,2.69c1.24,1.29,2.41,2.71,3.68,3.85Z"/><path class="cls-17" d="M179.92,59.41a13.59,13.59,0,0,1-2.87-5.53,9.67,9.67,0,0,1,2-8.42,10.72,10.72,0,0,1,4.12-3,12.31,12.31,0,0,1,4.82-.88,9.22,9.22,0,0,1,4.33,1.1,5,5,0,0,1,2.34,2.52,2.93,2.93,0,0,0-2.08-1.49,4.92,4.92,0,0,0-2.9.27,10.06,10.06,0,0,0-4,3.77c-.46.64-.88,1.29-1.29,1.93s-.74,1.29-1.13,2.07-.79,1.76-1.26,3a43.87,43.87,0,0,1-1.84,4.48s.06-.55.07-1.48,0-2.2,0-3.68a13.32,13.32,0,0,1,.94-4.91,13.3,13.3,0,0,1,3.88-4.94s-.31.14-.86.43a11.18,11.18,0,0,0-2.11,1.51A9.38,9.38,0,0,0,180,49.32a10.82,10.82,0,0,0-.83,4.4,30.47,30.47,0,0,0,.73,5.29Z"/><path class="cls-18" d="M172.37,34a13.89,13.89,0,0,0-.36,1.57,23.53,23.53,0,0,0-.4,4.57,27.14,27.14,0,0,0,1,7.1,26.12,26.12,0,0,0,4.14,8.38,80.13,80.13,0,0,1-7.91-11,11.74,11.74,0,0,1-2-5.74c0-2.18,1.5-4.32,3-3.81a2.58,2.58,0,0,1,.43-2.58,15.27,15.27,0,0,1,1.87-1.9,10.1,10.1,0,0,0,1.55-2.31,6.13,6.13,0,0,0,.15,2.71c.26.8.75,1.48,1,2.25a2.2,2.2,0,0,1-.21,2.25c1.55-.11,2.69,1.67,2.74,3.19a15.26,15.26,0,0,1-1,4.62,17.68,17.68,0,0,0,1.09,11.93A41.25,41.25,0,0,1,172.7,40c-.24-1.91-.27-3.43-.31-4.47S172.37,34,172.37,34Z"/><path class="cls-19" d="M84.85,19.07a6.44,6.44,0,0,1,.72-2,6.22,6.22,0,0,1,1.19-1.52A6.11,6.11,0,0,1,89.9,14a5,5,0,0,1,3.08.41,4.62,4.62,0,0,1,1.79,1.54,4,4,0,0,1,.73,2.77,2.9,2.9,0,0,1-.18.67,1.28,1.28,0,0,1-.1.21l-.11-.2a3.65,3.65,0,0,0-.34-.52,3.89,3.89,0,0,0-.64-.65,4.07,4.07,0,0,0-1-.57,2.79,2.79,0,0,0-1.16-.2,1.86,1.86,0,0,0-.53.12,2,2,0,0,0-.49.24,3.23,3.23,0,0,0-.91.87,2.94,2.94,0,0,0-.53,1.22,3.83,3.83,0,0,0,0,1.57,5.25,5.25,0,0,0,.87,1.87A6.72,6.72,0,0,0,92.25,25a10.84,10.84,0,0,0,2.41,1.13,23.09,23.09,0,0,0,4.62.93l2,.22s-.72.21-1.94.51a19.76,19.76,0,0,1-5,.66,12,12,0,0,1-3.35-.52,9.4,9.4,0,0,1-3.34-1.8,8.25,8.25,0,0,1-2.32-3.2A7,7,0,0,1,84.85,19.07Z"/><path class="cls-20" d="M91,50.66a7.09,7.09,0,0,0,1.84,1.47,7,7,0,0,0,2,.75,6.82,6.82,0,0,0,3.92-.28,5.68,5.68,0,0,0,2.69-2.16,5.2,5.2,0,0,0,.8-2.5,4.41,4.41,0,0,0-1-3,2.93,2.93,0,0,0-.57-.54l-.21-.14v.25a3.24,3.24,0,0,1,0,.69,4.87,4.87,0,0,1-.23,1,4.12,4.12,0,0,1-.6,1.1,3,3,0,0,1-1,.85,2.38,2.38,0,0,1-1.18.25,3.48,3.48,0,0,1-1.38-.3A3.41,3.41,0,0,1,95,47.19a4.15,4.15,0,0,1-.87-1.51,5.59,5.59,0,0,1-.28-2.28,7.4,7.4,0,0,1,.75-2.6,12.37,12.37,0,0,1,1.62-2.47,25.38,25.38,0,0,1,3.86-3.54l1.76-1.35s-.82.21-2.15.63a22.25,22.25,0,0,0-5.19,2.28,13.33,13.33,0,0,0-2.88,2.42,10.29,10.29,0,0,0-2.12,3.63,9.18,9.18,0,0,0-.32,4.38A7.87,7.87,0,0,0,91,50.66Z"/><path class="cls-21" d="M47.11,35.51a2.78,2.78,0,0,0,0,.87,2.65,2.65,0,0,0,1.36,1.74,2.07,2.07,0,0,0,1.27.19,2,2,0,0,0,.9-.41,1.69,1.69,0,0,0,.61-1,1,1,0,0,0,0-.29.66.66,0,0,0,0-.09l-.06.07a1.37,1.37,0,0,1-.2.16,1.69,1.69,0,0,1-.33.19,1.35,1.35,0,0,1-.46.11,1.1,1.1,0,0,1-.48-.05.64.64,0,0,1-.2-.11,1.14,1.14,0,0,1-.17-.15,1.48,1.48,0,0,1-.26-.45,1.31,1.31,0,0,1-.07-.55,1.53,1.53,0,0,1,.21-.61,2.12,2.12,0,0,1,.56-.65,2.85,2.85,0,0,1,.91-.44,4.52,4.52,0,0,1,1.09-.18,9.82,9.82,0,0,1,2,.16l.82.14s-.26-.17-.71-.43A8.34,8.34,0,0,0,52,32.88a4.73,4.73,0,0,0-1.39-.18A3.92,3.92,0,0,0,49,33a3.49,3.49,0,0,0-1.3,1A3,3,0,0,0,47.11,35.51Z"/><path class="cls-22" d="M32.45,30.94a5.2,5.2,0,0,0,.28,3.22,4.88,4.88,0,0,0,1.81,2.2A4,4,0,0,0,37,37a3.81,3.81,0,0,0,1.84-.57,3.16,3.16,0,0,0,1.45-1.83,2.09,2.09,0,0,0,.09-.56V33.9L40.2,34l-.42.28a3.92,3.92,0,0,1-.7.28,3.29,3.29,0,0,1-.91.11,2.2,2.2,0,0,1-.93-.23,1.54,1.54,0,0,1-.36-.25,1.93,1.93,0,0,1-.29-.34,2.69,2.69,0,0,1-.39-.94,2.36,2.36,0,0,1,0-1.09,3.06,3.06,0,0,1,.55-1.15A4.3,4.3,0,0,1,38,29.57a5.63,5.63,0,0,1,1.89-.65,9.18,9.18,0,0,1,2.16-.07,19.7,19.7,0,0,1,3.76.8l1.55.48s-.47-.4-1.28-1A15.8,15.8,0,0,0,42.55,27a9.35,9.35,0,0,0-2.66-.69,7.66,7.66,0,0,0-3.09.26A6.81,6.81,0,0,0,34,28.23,5.69,5.69,0,0,0,32.45,30.94Z"/><path class="cls-23" d="M103.39,38.62a3.27,3.27,0,0,0,.6,1,3.31,3.31,0,0,0,.79.67,3.28,3.28,0,0,0,1.82.48,2.66,2.66,0,0,0,1.56-.55,2.55,2.55,0,0,0,.77-1,2.14,2.14,0,0,0,.06-1.53,1.39,1.39,0,0,0-.17-.33l-.07-.1,0,.12a2.3,2.3,0,0,1-.12.31,2,2,0,0,1-.71.81,1.39,1.39,0,0,1-.58.23.71.71,0,0,1-.29,0,1,1,0,0,1-.28-.07,1.66,1.66,0,0,1-.57-.35,1.54,1.54,0,0,1-.42-.58,2,2,0,0,1-.15-.82,2.71,2.71,0,0,1,.24-1.08,3.64,3.64,0,0,1,.75-1.05,5.69,5.69,0,0,1,1.14-.86,12.89,12.89,0,0,1,2.31-1l1-.33s-.4,0-1.07,0a10.39,10.39,0,0,0-2.72.21,6.71,6.71,0,0,0-1.68.64A5,5,0,0,0,104,34.65a4.34,4.34,0,0,0-.84,1.93A3.71,3.71,0,0,0,103.39,38.62Z"/><path class="cls-24" d="M171.61,92.22a5.82,5.82,0,0,0-1.89.36,5.63,5.63,0,0,0-1.55.84A5.45,5.45,0,0,0,166.28,96a4.46,4.46,0,0,0-.06,2.79,4.07,4.07,0,0,0,1.15,1.8,3.66,3.66,0,0,0,2.41,1,2.87,2.87,0,0,0,.63-.06l.21-.06-.17-.12A3.17,3.17,0,0,1,170,101a3.68,3.68,0,0,1-.51-.66,3.36,3.36,0,0,1-.37-.95,2.33,2.33,0,0,1,0-1.05,1.37,1.37,0,0,1,.18-.45,1.8,1.8,0,0,1,.28-.4,2.89,2.89,0,0,1,.92-.69,2.83,2.83,0,0,1,1.19-.3,3.39,3.39,0,0,1,1.41.26,4.88,4.88,0,0,1,1.58,1,6.25,6.25,0,0,1,1.23,1.83,9.12,9.12,0,0,1,.69,2.3,20.72,20.72,0,0,1,.2,4.23l-.08,1.79s.29-.61.74-1.65a18.11,18.11,0,0,0,1.3-4.38,10.67,10.67,0,0,0,0-3,8.42,8.42,0,0,0-1.16-3.22,7.56,7.56,0,0,0-2.59-2.5A6.54,6.54,0,0,0,171.61,92.22Z"/><path class="cls-25" d="M196.5,106.17a5.92,5.92,0,0,1,.69,1.78,5.73,5.73,0,0,1,.09,1.74,5.4,5.4,0,0,1-1.21,2.94,4.57,4.57,0,0,1-2.36,1.52,4.35,4.35,0,0,1-2.16,0,3.69,3.69,0,0,1-2.16-1.49,3.16,3.16,0,0,1-.28-.56l-.06-.2.2.07a3.2,3.2,0,0,0,.55.16,3.47,3.47,0,0,0,.83.07,3.18,3.18,0,0,0,1-.18,2.45,2.45,0,0,0,.91-.54,1.62,1.62,0,0,0,.3-.39,2,2,0,0,0,.19-.45,2.9,2.9,0,0,0,.11-1.13,2.83,2.83,0,0,0-.37-1.16,3.57,3.57,0,0,0-1-1,4.85,4.85,0,0,0-1.72-.77,6.31,6.31,0,0,0-2.23-.08,9.46,9.46,0,0,0-2.33.63,20.92,20.92,0,0,0-3.74,2.07l-1.51,1s.38-.57,1-1.49a17.39,17.39,0,0,1,3.08-3.4,10.67,10.67,0,0,1,2.61-1.61,8.84,8.84,0,0,1,3.38-.72,7.91,7.91,0,0,1,3.52.85A6.48,6.48,0,0,1,196.5,106.17Z"/><path class="cls-26" d="M100.91,23.17a2.79,2.79,0,0,1,.24-.88,2.6,2.6,0,0,1,.45-.71,2.73,2.73,0,0,1,1.3-.81,2.19,2.19,0,0,1,1.35.06,2,2,0,0,1,.84.6,1.74,1.74,0,0,1,.43,1.17.86.86,0,0,1-.06.3l0,.1-.05-.09-.17-.21a2.22,2.22,0,0,0-.31-.26,1.79,1.79,0,0,0-.44-.21,1.31,1.31,0,0,0-.52,0l-.22.07a.82.82,0,0,0-.2.12,1.37,1.37,0,0,0-.36.42,1.25,1.25,0,0,0-.19.55,1.58,1.58,0,0,0,.09.68,2.12,2.12,0,0,0,.45.77,2.94,2.94,0,0,0,.84.65,5.25,5.25,0,0,0,1.09.39,9.78,9.78,0,0,0,2,.23l.87,0-.83.3a8.37,8.37,0,0,1-2.16.47,5,5,0,0,1-1.47-.09,4.14,4.14,0,0,1-1.52-.65,3.61,3.61,0,0,1-1.13-1.3A3,3,0,0,1,100.91,23.17Z"/><path class="cls-27" d="M87.56,31.6A7.27,7.27,0,0,1,82.7,34a10.22,10.22,0,0,1-6.51-1.66,11.3,11.3,0,0,1-4.44-6A8.55,8.55,0,0,1,72.08,20c-.6,1.28.19,3.13,1.39,4.09s3.13,1.44,4.43,1.8a18.94,18.94,0,0,1,4.19,1.84c1.5.88,3,2.05,5.38,3.59,0,0-.38,0-1.06-.06a26.68,26.68,0,0,1-2.83-.39,29.78,29.78,0,0,1-8.79-3.3s.17.2.52.55a12.34,12.34,0,0,0,1.56,1.34A13.51,13.51,0,0,0,83,32a10.26,10.26,0,0,0,4.26-.28Z"/><path class="cls-28" d="M180.32,117.84a2.86,2.86,0,1,0-2.86,2.82A2.84,2.84,0,0,0,180.32,117.84Z"/><path class="cls-29" d="M179.4,129.53a1.94,1.94,0,1,0-1.94,1.92A1.92,1.92,0,0,0,179.4,129.53Z"/><path class="cls-30" d="M179.25,139a1.77,1.77,0,1,0-1.82,1.69A1.75,1.75,0,0,0,179.25,139Z"/><path class="cls-31" d="M178.9,147.24a1.42,1.42,0,1,0-1.46,1.36A1.41,1.41,0,0,0,178.9,147.24Z"/><path class="cls-32" d="M178.43,155.44a.95.95,0,0,0-1.89-.05.95.95,0,0,0,1.89.05Z"/><path class="cls-33" d="M178.2,163.66a.72.72,0,1,0-.74.68A.71.71,0,0,0,178.2,163.66Z"/><path class="cls-34" d="M178.08,171.88a.6.6,0,1,0-.61.57A.59.59,0,0,0,178.08,171.88Z"/></g></g></svg>