<svg xmlns="http://www.w3.org/2000/svg" xmlns:xlink="http://www.w3.org/1999/xlink" viewBox="0 0 80.07 80.79"><defs><style>.cls-1{fill:url(#New_Gradient_Swatch_copy_11);}.cls-2{fill:url(#New_Gradient_Swatch_copy_11-2);}.cls-3{fill:url(#New_Gradient_Swatch_copy_11-3);}.cls-4{fill:url(#New_Gradient_Swatch_copy_11-4);}.cls-5{fill:url(#New_Gradient_Swatch_copy_11-5);}.cls-6{fill:url(#New_Gradient_Swatch_copy_11-6);}.cls-7{fill:url(#New_Gradient_Swatch_copy_11-7);}.cls-8{fill:url(#New_Gradient_Swatch_copy_11-8);}.cls-9{fill:url(#New_Gradient_Swatch_copy_11-9);}.cls-10{fill:url(#New_Gradient_Swatch_copy_11-10);}.cls-11{fill:url(#New_Gradient_Swatch_copy_11-11);}.cls-12{fill:url(#New_Gradient_Swatch_copy_11-12);}.cls-13{fill:url(#New_Gradient_Swatch_copy_11-13);}</style><linearGradient id="New_Gradient_Swatch_copy_11" x1="12.56" y1="12.94" x2="26.6" y2="34.54" gradientUnits="userSpaceOnUse"><stop offset="0" stop-color="#914e3d"/><stop offset="0.05" stop-color="#9e5d4c"/><stop offset="0.1" stop-color="#b27362"/><stop offset="0.16" stop-color="#c48776"/><stop offset="0.28" stop-color="#f1baa9"/><stop offset="0.3" stop-color="#fac4b3"/><stop offset="0.5" stop-color="#f4b5a5"/><stop offset="1" stop-color="#946051"/></linearGradient><linearGradient id="New_Gradient_Swatch_copy_11-2" x1="7.62" y1="16.15" x2="21.66" y2="37.75" xlink:href="#New_Gradient_Swatch_copy_11"/><linearGradient id="New_Gradient_Swatch_copy_11-3" x1="23.04" y1="6.12" x2="37.08" y2="27.72" xlink:href="#New_Gradient_Swatch_copy_11"/><linearGradient id="New_Gradient_Swatch_copy_11-4" x1="10.32" y1="14.39" x2="24.36" y2="35.99" xlink:href="#New_Gradient_Swatch_copy_11"/><linearGradient id="New_Gradient_Swatch_copy_11-5" x1="17.45" y1="9.76" x2="31.49" y2="31.36" xlink:href="#New_Gradient_Swatch_copy_11"/><linearGradient id="New_Gradient_Swatch_copy_11-6" x1="37.62" y1="-3.35" x2="51.66" y2="18.25" xlink:href="#New_Gradient_Swatch_copy_11"/><linearGradient id="New_Gradient_Swatch_copy_11-7" x1="-6.2" y1="25.13" x2="7.84" y2="46.73" xlink:href="#New_Gradient_Swatch_copy_11"/><linearGradient id="New_Gradient_Swatch_copy_11-8" x1="14.93" y1="11.4" x2="28.97" y2="33" xlink:href="#New_Gradient_Swatch_copy_11"/><linearGradient id="New_Gradient_Swatch_copy_11-9" x1="12.76" y1="12.81" x2="26.8" y2="34.41" xlink:href="#New_Gradient_Swatch_copy_11"/><linearGradient id="New_Gradient_Swatch_copy_11-10" x1="47.91" y1="-10.04" x2="61.95" y2="11.56" xlink:href="#New_Gradient_Swatch_copy_11"/><linearGradient id="New_Gradient_Swatch_copy_11-11" x1="46.36" y1="-9.04" x2="60.4" y2="12.56" xlink:href="#New_Gradient_Swatch_copy_11"/><linearGradient id="New_Gradient_Swatch_copy_11-12" x1="-13.05" y1="29.58" x2="0.99" y2="51.18" xlink:href="#New_Gradient_Swatch_copy_11"/><linearGradient id="New_Gradient_Swatch_copy_11-13" x1="-12.13" y1="28.98" x2="1.91" y2="50.58" xlink:href="#New_Gradient_Swatch_copy_11"/></defs><title>wedding-second-svg</title><g id="Layer_2" data-name="Layer 2"><g id="Layer_1-2" data-name="Layer 1"><path class="cls-1" d="M11.87,5.67a6.21,6.21,0,1,0,6.21,6.21A6.2,6.2,0,0,0,11.87,5.67Zm3.72,9.93A5.26,5.26,0,0,1,8.15,8.16a5.27,5.27,0,0,1,9,3.72A5.2,5.2,0,0,1,15.59,15.6Z"/><path class="cls-2" d="M18.58,31.15a.53.53,0,0,1,.81.09,5.21,5.21,0,0,1,.88,3.19h0A1.29,1.29,0,0,1,19,35.51a1.32,1.32,0,0,1-1.31-1.09,5.15,5.15,0,0,1,.85-3.18Zm1.18,3.18-.51-.1A3,3,0,0,0,19,32.66a3,3,0,0,0-.28,1.56.29.29,0,0,0,.29.25.27.27,0,0,0,.28-.24Z"/><path class="cls-3" d="M29.2,18.59l.09-.07a5.17,5.17,0,0,1,3.19-.86A1.35,1.35,0,0,1,33.57,19a1.31,1.31,0,0,1-1.09,1.3h0a5.21,5.21,0,0,1-3.19-.88.52.52,0,0,1-.24-.44A.56.56,0,0,1,29.2,18.59Zm3.25.58a.27.27,0,0,0,.07-.19.28.28,0,0,0-.25-.29,2.89,2.89,0,0,0-1.55.27,3,3,0,0,0,1.56.3A.34.34,0,0,0,32.45,19.17Z"/><path class="cls-4" d="M24.56,13.22a4.12,4.12,0,0,0-2-3.53,3.38,3.38,0,0,0-4.65,1.11,2.73,2.73,0,0,0-.4,1.43,2.82,2.82,0,0,0,.14.86,2.66,2.66,0,0,0,2.18,2h.28a2.4,2.4,0,0,0,2.05-1.15.62.62,0,0,0,.09-.32.63.63,0,0,0-.3-.53.62.62,0,0,0-.32-.09.63.63,0,0,0-.53.3,1.16,1.16,0,0,1-1,.56H20a1.19,1.19,0,0,1-.7-.34,1.8,1.8,0,0,1-.46-.78,1.68,1.68,0,0,1-.07-.5,1.5,1.5,0,0,1,.21-.78,2.16,2.16,0,0,1,1.83-1,2.2,2.2,0,0,1,1.13.32,2.87,2.87,0,0,1,1,3.94h0l0,.07h0a6.45,6.45,0,0,1-1.67,2A10.09,10.09,0,0,1,15,19h0a17.1,17.1,0,0,0-6.26,1.42h0l-.2.09A7.34,7.34,0,0,0,6.38,22h0A7.39,7.39,0,0,0,4.3,26.13a7.14,7.14,0,0,0-.09,1.12,6.8,6.8,0,0,0,2.3,5.13,4.87,4.87,0,0,0,.42.35A5.93,5.93,0,0,0,10.61,34a7.07,7.07,0,0,0,1.21-.11,5.74,5.74,0,0,0,4.83-4.15,4.93,4.93,0,0,0,.15-1.2,5.18,5.18,0,0,0-2-4.1,4.07,4.07,0,0,0-2.5-.84,3.81,3.81,0,0,0-.75.07,3.91,3.91,0,0,0-3.31,2.81,3.44,3.44,0,0,0-.1.84,3.53,3.53,0,0,0,1.37,2.8,3,3,0,0,0,1.8.61,2.42,2.42,0,0,0,.38,0,2.93,2.93,0,0,0,1.94-1.11.7.7,0,0,0,.13-.38.63.63,0,0,0-.25-.49.64.64,0,0,0-.37-.13.66.66,0,0,0-.49.24h0a1.69,1.69,0,0,1-1.12.64h-.22a1.66,1.66,0,0,1-1-.36,2.28,2.28,0,0,1-.9-1.82,2.48,2.48,0,0,1,.06-.54,2.26,2.26,0,0,1,.79-1.23,3.29,3.29,0,0,1,1.55-.67,3.23,3.23,0,0,1,.53,0,2.91,2.91,0,0,1,1.75.57,4,4,0,0,1,1.53,3.13,4,4,0,0,1-.1.91,4.5,4.5,0,0,1-3.86,3.22,4.86,4.86,0,0,1-3.92-.89l-.35-.3a5.58,5.58,0,0,1-1.88-4.22,5.79,5.79,0,0,1,.07-.92A6.11,6.11,0,0,1,9,21.63l.22-.11h0A15.85,15.85,0,0,1,15,20.22h0a11.35,11.35,0,0,0,6.87-2.41A7.8,7.8,0,0,0,24,15.28,4,4,0,0,0,24.56,13.22Z"/><path class="cls-5" d="M32.41,7.25a4.87,4.87,0,0,0-.35-.42,6.8,6.8,0,0,0-5.13-2.3,7.14,7.14,0,0,0-1.12.09A7.39,7.39,0,0,0,21.67,6.7h0a7.34,7.34,0,0,0-1.49,2.14L20.1,9h0a17,17,0,0,0-1.43,6.27h0a10.15,10.15,0,0,1-2.17,6.2,6.67,6.67,0,0,1-2.07,1.71h0l-.07,0h0a2.79,2.79,0,0,1-1.46.41,2.89,2.89,0,0,1-2.48-1.4,2.11,2.11,0,0,1-.32-1.13,2.13,2.13,0,0,1,1-1.83,1.5,1.5,0,0,1,.78-.21,1.68,1.68,0,0,1,.5.07,2,2,0,0,1,.78.46,1.19,1.19,0,0,1,.34.7.57.57,0,0,1,0,.13,1.13,1.13,0,0,1-.56,1,.63.63,0,0,0-.3.53.62.62,0,0,0,.09.32.63.63,0,0,0,.53.3.62.62,0,0,0,.32-.09,2.39,2.39,0,0,0,1.15-2,1.32,1.32,0,0,0,0-.28,2.65,2.65,0,0,0-2-2.18,2.87,2.87,0,0,0-.86-.14,2.73,2.73,0,0,0-1.43.4,3.37,3.37,0,0,0-1.61,2.89,3.42,3.42,0,0,0,.49,1.76,4.15,4.15,0,0,0,3.54,2A4,4,0,0,0,15,24.32a7.74,7.74,0,0,0,2.53-2.09,11.35,11.35,0,0,0,2.41-6.87h0a16,16,0,0,1,1.31-5.8h0l.09-.2A6.14,6.14,0,0,1,26,5.84a6,6,0,0,1,.93-.07,5.58,5.58,0,0,1,4.22,1.88l.3.35a4.86,4.86,0,0,1,.89,3.92,4.48,4.48,0,0,1-3.22,3.86,4,4,0,0,1-.91.11,4,4,0,0,1-3.13-1.54,2.92,2.92,0,0,1-.58-1.75,3.27,3.27,0,0,1,.05-.53,3.38,3.38,0,0,1,.66-1.55,2.3,2.3,0,0,1,1.24-.78A2,2,0,0,1,27,9.67a2.28,2.28,0,0,1,1.82.9,1.66,1.66,0,0,1,.36,1,1.77,1.77,0,0,1,0,.23A1.66,1.66,0,0,1,28.5,13a.62.62,0,0,0-.24.49.62.62,0,0,0,.13.38.65.65,0,0,0,.49.24.7.7,0,0,0,.38-.13A2.93,2.93,0,0,0,30.37,12a2.36,2.36,0,0,0,0-.38,2.91,2.91,0,0,0-.61-1.79A3.51,3.51,0,0,0,27,8.44a3.44,3.44,0,0,0-.84.1,3.91,3.91,0,0,0-2.81,3.31,3.81,3.81,0,0,0-.07.75,4.07,4.07,0,0,0,.84,2.5,5.18,5.18,0,0,0,4.1,2A5.46,5.46,0,0,0,29.4,17a5.77,5.77,0,0,0,4.15-4.84,7.07,7.07,0,0,0,.11-1.21A6,6,0,0,0,32.41,7.25Z"/><path class="cls-6" d="M54.53,2.38A3.38,3.38,0,0,0,51.31,0a3.17,3.17,0,0,0-1,.14A6.39,6.39,0,0,0,48,1.29a9.22,9.22,0,0,0-3.26,5h0a13,13,0,0,1-2.18,4.32h0l-.11.15a5,5,0,0,1-3.91,1.87l-.48,0a4.57,4.57,0,0,1-3.69-2.43c-.06-.11-.12-.23-.17-.34a3.9,3.9,0,0,1-.32-1.54,4.28,4.28,0,0,1,.38-1.72,3.64,3.64,0,0,1,3.27-2.4h0a3.2,3.2,0,0,1,2.9,1.91,2.3,2.3,0,0,1,.18.9,2.45,2.45,0,0,1-.21,1A2.16,2.16,0,0,1,38.44,9.4h0a1.84,1.84,0,0,1-1.69-1.11,1.37,1.37,0,0,1-.12-.55,1.24,1.24,0,0,1,.1-.5,1.3,1.3,0,0,1,.72-.75h0A.54.54,0,0,0,37.75,6a.46.46,0,0,0,0-.2.51.51,0,0,0-.47-.32.54.54,0,0,0-.21,0,2.32,2.32,0,0,0-1.27,1.32,2.42,2.42,0,0,0-.17.88,2.35,2.35,0,0,0,.21,1,2.88,2.88,0,0,0,2.64,1.73h0a3.19,3.19,0,0,0,2.88-2.07A3.55,3.55,0,0,0,41.62,7a3.35,3.35,0,0,0-.27-1.32A4.24,4.24,0,0,0,37.51,3.1h0a4.7,4.7,0,0,0-4.21,3,5.17,5.17,0,0,0-.48,2.15,4.92,4.92,0,0,0,.41,2c.06.14.13.27.2.4a5.62,5.62,0,0,0,4.52,3,5.52,5.52,0,0,0,.58,0,5.92,5.92,0,0,0,3.11-.86h0a5.91,5.91,0,0,0,1.6-1.4l.11-.13h0a14,14,0,0,0,2.36-4.68h0A8.21,8.21,0,0,1,48.61,2.1a5.16,5.16,0,0,1,2-.94h0l.06,0h0a2.22,2.22,0,0,1,.67-.1,2.35,2.35,0,0,1,2.23,1.65,1.88,1.88,0,0,1,.08.52,1.73,1.73,0,0,1-1.21,1.66,1.27,1.27,0,0,1-.34,0,1.4,1.4,0,0,1-.68-.19,1.2,1.2,0,0,1-.66-1,.49.49,0,0,1,0-.12.93.93,0,0,1,.64-.77.52.52,0,0,0,.37-.49.78.78,0,0,0,0-.16.53.53,0,0,0-.5-.36.39.39,0,0,0-.15,0,1.93,1.93,0,0,0-1.37,1.63,2.11,2.11,0,0,0,0,.25,2.22,2.22,0,0,0,1.16,1.88A2.33,2.33,0,0,0,52.07,6a2.05,2.05,0,0,0,.65-.1A2.78,2.78,0,0,0,54.66,3.2,2.92,2.92,0,0,0,54.53,2.38Z"/><path class="cls-7" d="M13.61,38.56a5.62,5.62,0,0,0-3-4.52l-.4-.19a4.76,4.76,0,0,0-2-.42,5.17,5.17,0,0,0-2.15.48,4.7,4.7,0,0,0-3,4.21v0h0A4.23,4.23,0,0,0,5.63,42,3.2,3.2,0,0,0,7,42.27,3.4,3.4,0,0,0,8.37,42a3.19,3.19,0,0,0,2.07-2.88h0a2.89,2.89,0,0,0-1.73-2.64,2.34,2.34,0,0,0-1-.2,2.37,2.37,0,0,0-2.2,1.43.54.54,0,0,0,0,.21.53.53,0,0,0,.32.48.45.45,0,0,0,.2,0,.52.52,0,0,0,.48-.31h0a1.33,1.33,0,0,1,.75-.72,1.43,1.43,0,0,1,.5-.09,1.35,1.35,0,0,1,.55.11A1.84,1.84,0,0,1,9.4,39.07h0A2.16,2.16,0,0,1,7.94,41a2.3,2.3,0,0,1-1,.22,2.14,2.14,0,0,1-.9-.19,3.19,3.19,0,0,1-1.91-2.89v0a3.63,3.63,0,0,1,2.4-3.26,4.13,4.13,0,0,1,1.72-.39,3.74,3.74,0,0,1,1.54.33l.34.16a4.58,4.58,0,0,1,2.43,3.7,3.87,3.87,0,0,1,0,.48A5,5,0,0,1,10.73,43l-.15.11h0a13.21,13.21,0,0,1-4.32,2.17h0a9.27,9.27,0,0,0-5,3.26A6.4,6.4,0,0,0,.14,51,3.06,3.06,0,0,0,0,52a3.37,3.37,0,0,0,2.38,3.22,2.6,2.6,0,0,0,.82.13,2.79,2.79,0,0,0,2.66-1.93,2.07,2.07,0,0,0,.1-.66,2.33,2.33,0,0,0-.35-1.22,2.22,2.22,0,0,0-1.88-1.16l-.25,0a2,2,0,0,0-1.63,1.37.39.39,0,0,0,0,.15.53.53,0,0,0,.36.5l.16,0A.51.51,0,0,0,2.84,52a.94.94,0,0,1,.77-.64h.12a1.22,1.22,0,0,1,1,.66,1.4,1.4,0,0,1,.19.68,1.27,1.27,0,0,1,0,.34,1.73,1.73,0,0,1-1.66,1.21,1.88,1.88,0,0,1-.52-.08A2.35,2.35,0,0,1,1,52a2.22,2.22,0,0,1,.1-.67h0l0-.06h0a5.16,5.16,0,0,1,.94-2,8.15,8.15,0,0,1,4.46-2.92h0A13.86,13.86,0,0,0,11.24,44h0l.13-.11a5.77,5.77,0,0,0,1.4-1.6,6,6,0,0,0,.86-3.11A5.62,5.62,0,0,0,13.61,38.56Z"/><path class="cls-8" d="M16.61,27.75a12.26,12.26,0,0,1,3.79-7.36,11.34,11.34,0,0,1,7.46-3.05.48.48,0,0,0,.46-.49.47.47,0,0,0-.48-.46,12.33,12.33,0,0,0-8.08,3.31,13.16,13.16,0,0,0-4.08,7.92.47.47,0,0,0,.93.13Z"/><path class="cls-9" d="M9.77,10.24a8.06,8.06,0,0,0,.44,1.32,4.39,4.39,0,0,0,1.43,1.95,1.61,1.61,0,0,0,.86.27,1.47,1.47,0,0,0,1-.45h0a1.47,1.47,0,0,0,.45-1,1.51,1.51,0,0,0-.27-.86A4.42,4.42,0,0,0,11.78,10a7.32,7.32,0,0,0-1.33-.44h-.11a.58.58,0,0,0-.58.58A.41.41,0,0,0,9.77,10.24Zm2.51,2.32h0a2.47,2.47,0,0,1-.75-.89,5.1,5.1,0,0,1-.32-.67,7.48,7.48,0,0,1,.7.34,2.42,2.42,0,0,1,.86.73.33.33,0,0,1,.07.21.34.34,0,0,1-.35.35A.33.33,0,0,1,12.28,12.56Z"/><path class="cls-10" d="M37.25,5.5,80.07,6l-42.82.52a.52.52,0,0,1,0-1Z"/><path class="cls-11" d="M57.07,6h-.31a.61.61,0,0,1-.61.61A.61.61,0,0,1,55.54,6a.62.62,0,0,1,.61-.61.61.61,0,0,1,.61.61h.63a1.24,1.24,0,1,0-1.24,1.24A1.24,1.24,0,0,0,57.39,6Z"/><path class="cls-12" d="M6.52,38,6,80.79,5.49,38A.51.51,0,0,1,6,37.45a.51.51,0,0,1,.52.51Z"/><path class="cls-13" d="M6,57.8v-.32a.61.61,0,1,1,.6-.6.6.6,0,0,1-.6.6v.63a1.24,1.24,0,1,0-1.24-1.23A1.23,1.23,0,0,0,6,58.11Z"/></g></g></svg>