<svg xmlns="http://www.w3.org/2000/svg" viewBox="0 0 80.09 16.06"><defs><style>.cls-1{opacity:0.95;}.cls-2{fill:#190d32;}</style></defs><title>wedding-first-svg</title><g id="Layer_2" data-name="Layer 2"><g id="Layer_1-2" data-name="Layer 1"><g class="cls-1"><path class="cls-2" d="M35.77,6.51l-.09,0A8,8,0,0,1,33,5.23a3.82,3.82,0,0,0-3.58-.71,1.33,1.33,0,0,1,1.1.38,1.43,1.43,0,0,1,.29,1.57,1.53,1.53,0,0,1-.87.89,1.8,1.8,0,0,1-2.3-1,2.09,2.09,0,0,1,0-1.61,2.12,2.12,0,0,1,1.14-1.1,4.72,4.72,0,0,1,4.79.74,7.2,7.2,0,0,0,2.35,1.09l.1,0a2.5,2.5,0,0,0,2.32-.64A2.27,2.27,0,0,0,39,2.75c0-.06,0-.12,0-.18a1.92,1.92,0,0,0-1-1.23,1.8,1.8,0,0,0-2,0A1.51,1.51,0,0,0,35.45,3,1.08,1.08,0,0,0,36,3.6a1,1,0,0,0,1.08,0,.79.79,0,0,0,.27-.8.52.52,0,0,0-.63-.37.54.54,0,0,1-.65-.38.53.53,0,0,1,.39-.65,1.58,1.58,0,0,1,1.92,1.13,1.86,1.86,0,0,1-.63,1.9,2,2,0,0,1-2.24.12,2.13,2.13,0,0,1-1.08-1.33A2.6,2.6,0,0,1,35.3.56,2.82,2.82,0,0,1,38.44.39,3,3,0,0,1,40,2.3a2.38,2.38,0,0,1,.05.26,3.29,3.29,0,0,1-1,3,3.47,3.47,0,0,1-.93.65A3.55,3.55,0,0,1,35.77,6.51ZM28.61,5.15a1,1,0,0,0,0,.79.71.71,0,0,0,.92.42.4.4,0,0,0,.25-.26.39.39,0,0,0,0-.44.25.25,0,0,0-.28-.06.54.54,0,0,1-.69-.31.5.5,0,0,1,0-.36A.8.8,0,0,0,28.61,5.15Z"/><path class="cls-2" d="M41.84,6.25a3.63,3.63,0,0,1-.93-.65,3.29,3.29,0,0,1-1-3A2.38,2.38,0,0,1,40,2.3,3,3,0,0,1,41.53.39a2.82,2.82,0,0,1,3.14.17,2.6,2.6,0,0,1,.88,2.66,2.13,2.13,0,0,1-1.08,1.33,2,2,0,0,1-2.24-.12,1.86,1.86,0,0,1-.63-1.9A1.59,1.59,0,0,1,43.53,1.4a.53.53,0,0,1,.38.65.54.54,0,0,1-.65.38.51.51,0,0,0-.62.37.77.77,0,0,0,.26.8A1,1,0,0,0,44,3.6,1,1,0,0,0,44.52,3,1.51,1.51,0,0,0,44,1.39a1.8,1.8,0,0,0-2,0,1.92,1.92,0,0,0-1,1.23,1.16,1.16,0,0,1,0,.18,2.27,2.27,0,0,0,.69,2.08A2.5,2.5,0,0,0,44,5.47l.1,0a7.2,7.2,0,0,0,2.35-1.09,4.74,4.74,0,0,1,4.8-.74,2.13,2.13,0,0,1,1.13,1.1,2.09,2.09,0,0,1,0,1.61,1.8,1.8,0,0,1-2.3,1,1.53,1.53,0,0,1-.87-.89A1.43,1.43,0,0,1,49.5,4.9a1.34,1.34,0,0,1,1.1-.38A3.82,3.82,0,0,0,47,5.23a7.86,7.86,0,0,1-2.73,1.26l-.08,0A3.58,3.58,0,0,1,41.84,6.25Zm9.39-1.32a.5.5,0,0,1,0,.36.54.54,0,0,1-.69.31.25.25,0,0,0-.28.06.39.39,0,0,0,0,.44.43.43,0,0,0,.25.26.71.71,0,0,0,.92-.42,1,1,0,0,0,0-.79A1.18,1.18,0,0,0,51.23,4.93Z"/><path class="cls-2" d="M56.61,8a4,4,0,0,0-3.07-1.68,3,3,0,0,0-.85.09,3.41,3.41,0,0,0-2.55,2.71,2.28,2.28,0,0,0,0,.44,2.82,2.82,0,0,0,.59,1.75,2.76,2.76,0,0,0,2.14,1.18,2.86,2.86,0,0,0,.58-.06,2.39,2.39,0,0,0,1.8-1.91c0-.11,0-.22,0-.33a2,2,0,0,0-1.66-2h-.1a.56.56,0,0,0-.56.46h0v.1a.58.58,0,0,0,.47.57.9.9,0,0,1,.73.89.77.77,0,0,1,0,.15,1.27,1.27,0,0,1-.94,1,1.63,1.63,0,0,1-.31,0,1.67,1.67,0,0,1-1.25-.73,1.76,1.76,0,0,1-.35-1,1.07,1.07,0,0,1,0-.25A2.28,2.28,0,0,1,53,7.51a2.22,2.22,0,0,1,.57-.07,2.9,2.9,0,0,1,2.18,1.25,2.9,2.9,0,0,1,.64,1.84,3.59,3.59,0,0,1-.05.46c0,.1,0,.18-.06.27A3.35,3.35,0,0,1,54,13.62a3.89,3.89,0,0,1-1.25.2,3.63,3.63,0,0,1-2.24-.8l-.12-.09h0A10.09,10.09,0,0,1,48,10.11h0A7.49,7.49,0,0,0,44.84,7a5.35,5.35,0,0,0-2.21-.56h-.29a2.8,2.8,0,0,0-1.78.68,3.22,3.22,0,0,0-.39.43,3.16,3.16,0,0,0-.4-.42A2.77,2.77,0,0,0,38,6.44h-.25A5.08,5.08,0,0,0,35.7,7a7.34,7.34,0,0,0-3.35,3.29h0A10,10,0,0,1,30,13.13h0l-.11.09a3.75,3.75,0,0,1-3.47.66,3.37,3.37,0,0,1-2.28-2.32l-.06-.26a3.05,3.05,0,0,1-.06-.6A3,3,0,0,1,24.66,9a2.83,2.83,0,0,1,2.26-1.29,3.62,3.62,0,0,1,.46.06,2.29,2.29,0,0,1,1.74,1.78,1.62,1.62,0,0,1-.3,1.29,1.62,1.62,0,0,1-1.3.76l-.24,0a1.27,1.27,0,0,1-1-1,.61.61,0,0,1,0-.19A.88.88,0,0,1,27,9.52a.59.59,0,0,0,.44-.68.57.57,0,0,0-.55-.45h-.12a2,2,0,0,0-1.62,2,1.68,1.68,0,0,0,0,.44A2.39,2.39,0,0,0,27,12.66a2.63,2.63,0,0,0,.47.06,2.77,2.77,0,0,0,2.24-1.23,2.85,2.85,0,0,0,.55-1.62,2.75,2.75,0,0,0-.05-.57,3.42,3.42,0,0,0-2.61-2.66A3.16,3.16,0,0,0,27,6.56a3.94,3.94,0,0,0-3.2,1.74,4.1,4.1,0,0,0-.83,2.4,3.79,3.79,0,0,0,.07.82l.09.35a4.48,4.48,0,0,0,3,3.1,4.91,4.91,0,0,0,4.54-.87l.1-.08h0a11.38,11.38,0,0,0,2.6-3.21h0A6.22,6.22,0,0,1,36.21,8a3.94,3.94,0,0,1,1.58-.39H38a1.62,1.62,0,0,1,1.58,1.49.49.49,0,0,1,0,.12,1.2,1.2,0,0,1-1.07,1.17h-.07a.8.8,0,0,1-.55-.23.84.84,0,0,1-.3-.59.85.85,0,0,1,0-.17A.55.55,0,0,1,38.14,9a.57.57,0,0,0,.52-.55V8.38h0a.56.56,0,0,0-.56-.52H38A1.7,1.7,0,0,0,36.59,9a1.6,1.6,0,0,0-.09.53A1.93,1.93,0,0,0,37.15,11a2,2,0,0,0,1.31.54h.2a2.59,2.59,0,0,0,.55-.13,1.48,1.48,0,0,0-.46.84,3.8,3.8,0,0,0,0,.46,5.24,5.24,0,0,0,.51,2.11,8,8,0,0,0,.56,1.05.54.54,0,0,0,.47.24.55.55,0,0,0,.49-.25,9,9,0,0,0,.51-1,5.5,5.5,0,0,0,.49-2,2.47,2.47,0,0,0,0-.61,1.56,1.56,0,0,0-.47-.84,1.92,1.92,0,0,0,.55.12h.11a2,2,0,0,0,1.39-.57,2,2,0,0,0,.62-1.37,1.63,1.63,0,0,0-.1-.61,1.69,1.69,0,0,0-1.46-1.1h0a.57.57,0,0,0-.58.52h0v0a.59.59,0,0,0,.53.58.54.54,0,0,1,.48.36.44.44,0,0,1,0,.2.85.85,0,0,1-.28.57.88.88,0,0,1-.57.24h0a1.19,1.19,0,0,1-1.09-1.21V9.06a1.61,1.61,0,0,1,.55-1.12,1.63,1.63,0,0,1,1.09-.4h.22A4.16,4.16,0,0,1,44.36,8a6.34,6.34,0,0,1,2.69,2.68h0a10.88,10.88,0,0,0,2.65,3.15h0l.11.09a4.81,4.81,0,0,0,4.55.78,4.44,4.44,0,0,0,3-3.15,3.59,3.59,0,0,0,.08-.35,3.47,3.47,0,0,0,.06-.64A4.08,4.08,0,0,0,56.61,8ZM40.22,12.11h0a.37.37,0,0,1,.21.06.35.35,0,0,1,.13.24h0a1.48,1.48,0,0,1,0,.38,4.3,4.3,0,0,1-.37,1.47,4.22,4.22,0,0,1-.39-1.58,1.24,1.24,0,0,1,0-.27.35.35,0,0,1,.13-.24.39.39,0,0,1,.21-.06Zm0-1.14h0a1.34,1.34,0,0,0-.35,0,2.32,2.32,0,0,0,.35-.35,2.31,2.31,0,0,0,.36.34A1.65,1.65,0,0,0,40.24,11Z"/><polygon class="cls-2" points="39.77 15.82 39.77 15.82 39.77 15.82 39.77 15.82"/><path class="cls-2" d="M79.68,8.18H53.36a.42.42,0,0,0,0,.83H79.68a.42.42,0,0,0,0-.83Z"/><path class="cls-2" d="M26.73,8.39H.41A.41.41,0,0,0,0,8.8a.42.42,0,0,0,.41.42H26.73a.42.42,0,0,0,.42-.42A.41.41,0,0,0,26.73,8.39Z"/></g></g></g></svg>