<svg xmlns="http://www.w3.org/2000/svg" xmlns:xlink="http://www.w3.org/1999/xlink" viewBox="0 0 122.07 122.04"><defs><style>.cls-1{fill:url(#New_Gradient_Swatch_copy_11);}.cls-2{fill:url(#New_Gradient_Swatch_copy_11-2);}.cls-3{fill:url(#New_Gradient_Swatch_copy_11-3);}.cls-4{fill:url(#New_Gradient_Swatch_copy_11-4);}.cls-5{fill:url(#New_Gradient_Swatch_copy_11-5);}.cls-6{fill:url(#New_Gradient_Swatch_copy_11-6);}.cls-7{fill:url(#New_Gradient_Swatch_copy_11-7);}.cls-8{fill:url(#New_Gradient_Swatch_copy_11-8);}.cls-9{fill:url(#New_Gradient_Swatch_copy_11-9);}.cls-10{fill:url(#New_Gradient_Swatch_copy_11-10);}.cls-11{fill:url(#New_Gradient_Swatch_copy_11-11);}.cls-12{fill:url(#New_Gradient_Swatch_copy_11-12);}.cls-13{fill:url(#New_Gradient_Swatch_copy_11-13);}.cls-14{fill:url(#New_Gradient_Swatch_copy_11-14);}.cls-15{fill:url(#New_Gradient_Swatch_copy_11-15);}.cls-16{fill:url(#New_Gradient_Swatch_copy_11-16);}.cls-17{fill:url(#New_Gradient_Swatch_copy_11-17);}</style><linearGradient id="New_Gradient_Swatch_copy_11" x1="10.99" y1="19.74" x2="46.63" y2="60.78" gradientUnits="userSpaceOnUse"><stop offset="0" stop-color="#914e3d"/><stop offset="0.05" stop-color="#9e5d4c"/><stop offset="0.1" stop-color="#b27362"/><stop offset="0.16" stop-color="#c48776"/><stop offset="0.28" stop-color="#f1baa9"/><stop offset="0.3" stop-color="#fac4b3"/><stop offset="0.5" stop-color="#f4b5a5"/><stop offset="1" stop-color="#946051"/></linearGradient><linearGradient id="New_Gradient_Swatch_copy_11-2" x1="21.76" y1="10.4" x2="57.4" y2="51.44" xlink:href="#New_Gradient_Swatch_copy_11"/><linearGradient id="New_Gradient_Swatch_copy_11-3" x1="17.25" y1="14.31" x2="52.89" y2="55.35" xlink:href="#New_Gradient_Swatch_copy_11"/><linearGradient id="New_Gradient_Swatch_copy_11-4" x1="11.22" y1="19.54" x2="46.86" y2="60.58" xlink:href="#New_Gradient_Swatch_copy_11"/><linearGradient id="New_Gradient_Swatch_copy_11-5" x1="22.47" y1="9.77" x2="58.11" y2="50.81" xlink:href="#New_Gradient_Swatch_copy_11"/><linearGradient id="New_Gradient_Swatch_copy_11-6" x1="-31.7" y1="56.82" x2="3.94" y2="97.86" xlink:href="#New_Gradient_Swatch_copy_11"/><linearGradient id="New_Gradient_Swatch_copy_11-7" x1="-28.42" y1="53.97" x2="7.22" y2="95.01" xlink:href="#New_Gradient_Swatch_copy_11"/><linearGradient id="New_Gradient_Swatch_copy_11-8" x1="-10.57" y1="38.47" x2="25.07" y2="79.51" xlink:href="#New_Gradient_Swatch_copy_11"/><linearGradient id="New_Gradient_Swatch_copy_11-9" x1="-7.29" y1="35.62" x2="28.35" y2="76.66" xlink:href="#New_Gradient_Swatch_copy_11"/><linearGradient id="New_Gradient_Swatch_copy_11-10" x1="-16.82" y1="43.9" x2="18.82" y2="84.94" xlink:href="#New_Gradient_Swatch_copy_11"/><linearGradient id="New_Gradient_Swatch_copy_11-11" x1="70.36" y1="-31.81" x2="106" y2="9.23" xlink:href="#New_Gradient_Swatch_copy_11"/><linearGradient id="New_Gradient_Swatch_copy_11-12" x1="66.58" y1="-28.53" x2="102.22" y2="12.51" xlink:href="#New_Gradient_Swatch_copy_11"/><linearGradient id="New_Gradient_Swatch_copy_11-13" x1="46.03" y1="-10.69" x2="81.67" y2="30.35" xlink:href="#New_Gradient_Swatch_copy_11"/><linearGradient id="New_Gradient_Swatch_copy_11-14" x1="42.25" y1="-7.4" x2="77.89" y2="33.64" xlink:href="#New_Gradient_Swatch_copy_11"/><linearGradient id="New_Gradient_Swatch_copy_11-15" x1="53.23" y1="-16.93" x2="88.87" y2="24.11" xlink:href="#New_Gradient_Swatch_copy_11"/><linearGradient id="New_Gradient_Swatch_copy_11-16" x1="12.1" y1="18.78" x2="47.74" y2="59.82" xlink:href="#New_Gradient_Swatch_copy_11"/><linearGradient id="New_Gradient_Swatch_copy_11-17" x1="18.75" y1="13.01" x2="54.39" y2="54.05" xlink:href="#New_Gradient_Swatch_copy_11"/></defs><title>weddings-illustration</title><g id="Layer_2" data-name="Layer 2"><g id="Layer_1-2" data-name="Layer 1"><path class="cls-1" d="M4.65,29.73a12.1,12.1,0,0,1,3.5-2.42l.33-.15a28,28,0,0,1,10.3-2.35c10.15-.45,13.2-7,13.23-7.11a.41.41,0,0,1,.05-.09,4.93,4.93,0,0,0-1.69-6.74,3.73,3.73,0,0,0-5.12,1.22A2.76,2.76,0,0,0,25,14.33a2.54,2.54,0,0,0,2,2,2.07,2.07,0,0,0,2-1,.86.86,0,0,1,1.18-.3.88.88,0,0,1,.3,1.19A3.81,3.81,0,0,1,26.84,18a4.26,4.26,0,0,1-3.48-3.17,4.53,4.53,0,0,1,.41-3.66,5.48,5.48,0,0,1,7.49-1.79,6.66,6.66,0,0,1,2.3,9.07c-.34.73-3.86,7.59-14.69,8.08a26.63,26.63,0,0,0-9.65,2.18l-.35.16A10.34,10.34,0,0,0,3,36.76,9.51,9.51,0,0,0,6,45.42c.19.17.39.34.6.5a8.15,8.15,0,0,0,6.6,1.51C16.67,46.79,19,44.8,19.72,42a6.68,6.68,0,0,0-2.42-6.84,5,5,0,0,0-3.9-.91,4.56,4.56,0,0,0-4,3.25,4,4,0,0,0,1.43,4.08,3,3,0,0,0,2.21.6A2.9,2.9,0,0,0,15,41a.87.87,0,0,1,1.38,1.05,4.62,4.62,0,0,1-3.1,1.78,4.7,4.7,0,0,1-3.49-.94,5.68,5.68,0,0,1-2.06-5.86,6.32,6.32,0,0,1,5.36-4.55,6.71,6.71,0,0,1,5.25,1.25,8.4,8.4,0,0,1,3,8.62c-.83,3.46-3.78,6-7.87,6.74a9.83,9.83,0,0,1-8-1.85q-.36-.27-.69-.57a11.18,11.18,0,0,1-3.61-10.2A12.21,12.21,0,0,1,4.65,29.73Z"/><path class="cls-2" d="M30,4.43A12.16,12.16,0,0,1,36.73,1,11.22,11.22,0,0,1,46.94,4.63q.3.33.57.69a9.86,9.86,0,0,1,1.85,8c-.76,4.1-3.28,7-6.74,7.87a8.41,8.41,0,0,1-8.62-3,6.68,6.68,0,0,1-1.25-5.25,6.31,6.31,0,0,1,4.54-5.37,5.67,5.67,0,0,1,5.86,2.06,4.69,4.69,0,0,1-.83,6.59A.87.87,0,0,1,41.1,16a.86.86,0,0,1,.16-1.21,2.93,2.93,0,0,0,1.13-1.95,3,3,0,0,0-.6-2.22,4,4,0,0,0-4.08-1.43c-1.7.41-2.88,1.87-3.26,4a5,5,0,0,0,.92,3.89,6.66,6.66,0,0,0,6.84,2.42c2.82-.68,4.81-3,5.45-6.51a8.19,8.19,0,0,0-1.51-6.6c-.16-.21-.33-.41-.5-.6A9.51,9.51,0,0,0,37,2.73a10.34,10.34,0,0,0-7.88,5.91L29,9a26.9,26.9,0,0,0-2.18,9.68C26.28,29.48,19.41,33,18.68,33.34A6.67,6.67,0,0,1,9.62,31a5.47,5.47,0,0,1,1.79-7.49,4.49,4.49,0,0,1,3.66-.42,4.26,4.26,0,0,1,3.17,3.48,3.83,3.83,0,0,1-1.81,3.71.86.86,0,1,1-.89-1.48,2.07,2.07,0,0,0,1-2,2.55,2.55,0,0,0-2-2,2.77,2.77,0,0,0-2.24.24,3.73,3.73,0,0,0-1.21,5.12,4.92,4.92,0,0,0,6.73,1.69l.1,0c.27-.12,6.66-3.13,7.11-13.22A28.24,28.24,0,0,1,27.39,8.23l.15-.31A11.92,11.92,0,0,1,30,4.43Z"/><path class="cls-3" d="M27.54,27.31a.86.86,0,0,1,.95-.18c.27.11,6.73,2.91,9.84,6.89,1.48,1.91,1.28,3.63.41,4.49s-2.59,1.08-4.49-.41c-4-3.11-6.78-9.57-6.9-9.84A.86.86,0,0,1,27.54,27.31Zm10,10c.33-.32.24-1.19-.56-2.21h0A22.84,22.84,0,0,0,30,29.82a23.29,23.29,0,0,0,5.27,6.92C36.33,37.53,37.19,37.62,37.52,37.29Zm.12-2.74h0Z"/><path class="cls-4" d="M24.38,31.57a.87.87,0,0,1,1.34.14c.19.31,1.89,3,1.45,5.28h0A2.16,2.16,0,0,1,25,38.79,2.21,2.21,0,0,1,22.84,37c-.45-2.25,1.23-5,1.42-5.27A.53.53,0,0,1,24.38,31.57Zm1.94,5.25-.84-.16A4.91,4.91,0,0,0,25,34.07a4.8,4.8,0,0,0-.45,2.57.47.47,0,0,0,.48.42.44.44,0,0,0,.46-.4Z"/><path class="cls-5" d="M31.8,24.15l.14-.12c.3-.19,3-1.87,5.27-1.42A2.22,2.22,0,0,1,39,24.8,2.18,2.18,0,0,1,37.22,27h0c-2.25.43-5-1.27-5.28-1.46a.86.86,0,0,1-.14-1.34Zm5.36,1a.42.42,0,0,0,.13-.32.47.47,0,0,0-.42-.48,4.89,4.89,0,0,0-2.57.45,4.91,4.91,0,0,0,2.59.49A.53.53,0,0,0,37.16,25.11Z"/><polygon class="cls-6" points="12.46 111.47 15.76 108.15 19.05 111.47 15.76 114.79 12.46 111.47"/><polygon class="cls-7" points="12.46 104.83 15.76 101.52 19.05 104.83 15.76 108.15 12.46 104.83"/><polygon class="cls-8" points="12.46 68.79 15.76 65.47 19.05 68.79 15.76 72.11 12.46 68.79"/><polygon class="cls-9" points="12.46 62.16 15.76 58.84 19.05 62.16 15.76 65.47 12.46 62.16"/><path class="cls-10" d="M15.76,40.79a.83.83,0,0,0-.83.83v79.59a.83.83,0,1,0,1.65,0V41.62A.83.83,0,0,0,15.76,40.79Z"/><polygon class="cls-11" points="111.5 18.86 108.18 15.56 111.5 12.26 114.82 15.56 111.5 18.86"/><polygon class="cls-12" points="104.87 18.86 101.55 15.56 104.87 12.26 108.19 15.56 104.87 18.86"/><polygon class="cls-13" points="68.82 18.86 65.5 15.56 68.82 12.26 72.14 15.56 68.82 18.86"/><polygon class="cls-14" points="62.19 18.86 58.87 15.56 62.19 12.26 65.5 15.56 62.19 18.86"/><path class="cls-15" d="M121.24,14.73H41.65a.83.83,0,1,0,0,1.65h79.59a.83.83,0,1,0,0-1.65Z"/><path class="cls-16" d="M7.27,21.72A6.13,6.13,0,0,1,5.49,18l0-.17A13.91,13.91,0,0,1,6,12.68c1-3.6-.38-5.68-.9-6.29a2.31,2.31,0,0,1,0,2,2.51,2.51,0,0,1-2.4,1.38,2.65,2.65,0,0,1-2-.92,3.1,3.1,0,0,1,.37-4.34,3.63,3.63,0,0,1,5.1.36c.39.37,3,3.19,1.55,8.28a12.17,12.17,0,0,0-.44,4.44l0,.2A4.38,4.38,0,0,0,9.7,21.24a4,4,0,0,0,3.81-.07l.28-.18a3.36,3.36,0,0,0,1.43-2.37A3.12,3.12,0,0,0,14,15.39a2.61,2.61,0,0,0-2.84.06,1.78,1.78,0,0,0-.76,1.25A1.67,1.67,0,0,0,11,18.47a1.33,1.33,0,0,0,1.46,0,.89.89,0,0,0,.24-1.23.93.93,0,0,1,1.54-1A2.74,2.74,0,0,1,13.5,20,3.17,3.17,0,0,1,10,20a3.46,3.46,0,0,1-1.48-3.59,3.67,3.67,0,0,1,1.55-2.52,4.45,4.45,0,0,1,4.85-.1,4.94,4.94,0,0,1,2.1,5.05,5.27,5.27,0,0,1-2.23,3.66,4.11,4.11,0,0,1-.39.24,5.75,5.75,0,0,1-5.56.11A6,6,0,0,1,7.27,21.72ZM4,5.6a2.16,2.16,0,0,0-.44-.1,1.83,1.83,0,0,0-1.31.43,1.26,1.26,0,0,0-.16,1.75.79.79,0,0,0,.58.26.7.7,0,0,0,.7-.32.46.46,0,0,0-.07-.5.92.92,0,0,1,.11-1.3A.88.88,0,0,1,4,5.6Z"/><path class="cls-17" d="M4.71,6a3.62,3.62,0,0,1-.18-4.93A3.1,3.1,0,0,1,8.87.72a2.58,2.58,0,0,1,.92,2,2.51,2.51,0,0,1-1.38,2.4,2.31,2.31,0,0,1-2,0C7,5.57,9.07,7,12.67,6a14,14,0,0,1,5.19-.49l.15,0a6.19,6.19,0,0,1,4.87,3.38,5.75,5.75,0,0,1-.11,5.56,4.11,4.11,0,0,1-.24.39,5.27,5.27,0,0,1-3.66,2.23A4.94,4.94,0,0,1,13.82,15a4.45,4.45,0,0,1,.1-4.85,3.67,3.67,0,0,1,2.52-1.55A3.48,3.48,0,0,1,20,10,3.17,3.17,0,0,1,20,13.5a2.74,2.74,0,0,1-3.79.75.93.93,0,0,1,1-1.54.89.89,0,0,0,1.23-.24,1.33,1.33,0,0,0,0-1.46,1.68,1.68,0,0,0-1.77-.63,1.78,1.78,0,0,0-1.25.76A2.61,2.61,0,0,0,15.39,14a3.12,3.12,0,0,0,3.23,1.24A3.36,3.36,0,0,0,21,13.79l.18-.28a4,4,0,0,0,.07-3.81,4.38,4.38,0,0,0-3.43-2.38l-.18,0a12.23,12.23,0,0,0-4.46.44C8.08,9.17,5.27,6.59,4.89,6.19Zm3-3.85,0,0a1.26,1.26,0,0,0-1.75.16A1.83,1.83,0,0,0,5.5,3.6,2.16,2.16,0,0,0,5.6,4a.88.88,0,0,1,.22-.59.92.92,0,0,1,1.3-.11.46.46,0,0,0,.5.07.7.7,0,0,0,.32-.7A.74.74,0,0,0,7.72,2.17Z"/></g></g></svg>