<svg xmlns="http://www.w3.org/2000/svg" xmlns:xlink="http://www.w3.org/1999/xlink" viewBox="0 0 235.9 79.77"><defs><style>.cls-1{fill:url(#New_Gradient_Swatch_copy_11);}.cls-2{fill:url(#New_Gradient_Swatch_copy_11-2);}.cls-3{fill:url(#New_Gradient_Swatch_copy_11-3);}.cls-4{fill:url(#New_Gradient_Swatch_copy_11-4);}.cls-5{fill:url(#New_Gradient_Swatch_copy_11-5);}.cls-6{fill:url(#New_Gradient_Swatch_copy_11-6);}.cls-7{fill:url(#New_Gradient_Swatch_copy_11-7);}.cls-8{fill:url(#New_Gradient_Swatch_copy_11-8);}</style><linearGradient id="New_Gradient_Swatch_copy_11" x1="26.68" y1="19.73" x2="160.6" y2="143.93" gradientUnits="userSpaceOnUse"><stop offset="0" stop-color="#914e3d"/><stop offset="0.05" stop-color="#9e5d4c"/><stop offset="0.1" stop-color="#b27362"/><stop offset="0.16" stop-color="#c48776"/><stop offset="0.28" stop-color="#f1baa9"/><stop offset="0.3" stop-color="#fac4b3"/><stop offset="0.5" stop-color="#f4b5a5"/><stop offset="1" stop-color="#946051"/></linearGradient><linearGradient id="New_Gradient_Swatch_copy_11-2" x1="38.17" y1="7.34" x2="172.09" y2="131.54" xlink:href="#New_Gradient_Swatch_copy_11"/><linearGradient id="New_Gradient_Swatch_copy_11-3" x1="57.02" y1="-12.99" x2="190.94" y2="111.21" xlink:href="#New_Gradient_Swatch_copy_11"/><linearGradient id="New_Gradient_Swatch_copy_11-4" x1="72.79" y1="-29.99" x2="206.71" y2="94.21" xlink:href="#New_Gradient_Swatch_copy_11"/><linearGradient id="New_Gradient_Swatch_copy_11-5" x1="77.35" y1="-34.91" x2="211.27" y2="89.29" xlink:href="#New_Gradient_Swatch_copy_11"/><linearGradient id="New_Gradient_Swatch_copy_11-6" x1="84.17" y1="-42.26" x2="218.09" y2="81.94" xlink:href="#New_Gradient_Swatch_copy_11"/><linearGradient id="New_Gradient_Swatch_copy_11-7" x1="90.29" y1="-48.86" x2="224.21" y2="75.34" xlink:href="#New_Gradient_Swatch_copy_11"/><linearGradient id="New_Gradient_Swatch_copy_11-8" x1="104.12" y1="-63.77" x2="238.04" y2="60.43" xlink:href="#New_Gradient_Swatch_copy_11"/></defs><title>weddings-title</title><g id="Layer_2" data-name="Layer 2"><g id="Layer_1-2" data-name="Layer 1"><path class="cls-1" d="M63.69,10.32a13.9,13.9,0,0,1,3,5.07,27.55,27.55,0,0,1,1.39,9.77,44.82,44.82,0,0,1-1,8.68Q62.92,53,55.69,59s0,0,0,0a8.19,8.19,0,0,1-8.17,1.38,10,10,0,0,1-2.45-1.58,13.29,13.29,0,0,1-1.66-1.72,9.45,9.45,0,0,1-1-1.36,22.88,22.88,0,0,1-2.24-5.43A38.33,38.33,0,0,1,36,57.56a13.44,13.44,0,0,1-5.48,4.55l-.05,0v0a7.88,7.88,0,0,1-3.35.05,8,8,0,0,1-1.62-.51,1.14,1.14,0,0,1-.34-.15,10,10,0,0,1-3.74-3.25,21.34,21.34,0,0,1-2.37-4.41,35.37,35.37,0,0,1-2.19-7.47,64.84,64.84,0,0,1-1.09-13q0-3.32.34-6.57c.2-2.18.46-4.29.8-6.33q.82-4.61,2.06-9.09c.18-.7.38-1.38.59-2.06.11-.41.24-.8.38-1.19a24.73,24.73,0,0,1-3.61.24A69.7,69.7,0,0,1,.31,6a.33.33,0,0,1-.26-.17.37.37,0,0,1,0-.29A.39.39,0,0,1,.2,5.29a.35.35,0,0,1,.3,0Q13.7,8.5,20.26,7.34a25.22,25.22,0,0,1,1.58-3.42,17.24,17.24,0,0,1,1.48-2.26A5.36,5.36,0,0,1,24.77.3,2.54,2.54,0,0,1,25.9,0,1.51,1.51,0,0,1,27,.4a1.69,1.69,0,0,1,.48,1,3,3,0,0,1,0,.85,6.72,6.72,0,0,1-3.08,4.51,10.72,10.72,0,0,1-2.31,1c-.14.84-.27,1.68-.38,2.52l-.15,1.11c-.48,3.19-.89,6.39-1.21,9.61q-.27,3-.46,6.16c-.13,2.1-.2,4.21-.22,6.35a94,94,0,0,0,.61,12.39,42.75,42.75,0,0,0,1.48,7.52,20.18,20.18,0,0,0,1.93,4.69,6.78,6.78,0,0,0,3.76,3.14,5.53,5.53,0,0,0,2.91.09v0a13,13,0,0,0,5.29-4.56A40.6,40.6,0,0,0,39.93,49q-.15-.75-.24-1.53a39.2,39.2,0,0,1-.11-10.44,23,23,0,0,1,3.5-9.76A5.5,5.5,0,0,1,44.22,26a2.17,2.17,0,0,1,.87-.43,1.17,1.17,0,0,1,.56.05.87.87,0,0,1,.51.37,1.72,1.72,0,0,1,.29.84,34,34,0,0,1-.82,6.68A78.87,78.87,0,0,1,43,43.12q.15,1.92.42,3.81a28.23,28.23,0,0,0,1.33,5.82,12.86,12.86,0,0,0,2.54,4.37,7,7,0,0,0,4.39,2.28,4.7,4.7,0,0,0,3.47-1v0h0a18,18,0,0,0,3.55-4.06,40.4,40.4,0,0,0,3.88-7.84,89,89,0,0,0,3.67-12.81,43.67,43.67,0,0,0,1-8.51,30.28,30.28,0,0,0-.79-7.69,16,16,0,0,0-2-4.87A10.65,10.65,0,0,0,62,9.88a8.13,8.13,0,0,0-2.12-1.17,4.22,4.22,0,0,0-.93-.26.39.39,0,0,1-.27-.14.35.35,0,0,1-.07-.3.36.36,0,0,1,.14-.26A.37.37,0,0,1,59,7.67a4.29,4.29,0,0,1,.75.17,9,9,0,0,1,1.73.77A10.3,10.3,0,0,1,63.69,10.32ZM23.42,3.38A16.64,16.64,0,0,0,22.2,6.85a9.23,9.23,0,0,0,1.73-.8,6,6,0,0,0,2.71-4,1.85,1.85,0,0,0,0-.78A.55.55,0,0,0,26.36.9a.77.77,0,0,0-.45-.14,1.9,1.9,0,0,0-.58.2,3.57,3.57,0,0,0-1.14,1A9.34,9.34,0,0,0,23.42,3.38ZM42.81,38.25c0,.89,0,1.77.1,2.64q2.79-9.69,2.74-14a1,1,0,0,0-.1-.36.27.27,0,0,0-.18-.19.28.28,0,0,0-.25,0,1.91,1.91,0,0,0-.7.63,4.21,4.21,0,0,0-.47.8,8.18,8.18,0,0,0-.6,1.81,26.65,26.65,0,0,0-.52,4.33C42.77,35.37,42.77,36.81,42.81,38.25Z"/><path class="cls-2" d="M90.34,44.36a.47.47,0,0,1,.22.22.33.33,0,0,1,0,.29,14,14,0,0,1-4.41,7.64,9.66,9.66,0,0,1-4,2.11,8,8,0,0,1-4.33.06A6.4,6.4,0,0,1,75,52.82a10.56,10.56,0,0,1-1.58-2.29A14,14,0,0,1,72.13,47a11.42,11.42,0,0,1,.8-7.35,9.5,9.5,0,0,1,1.86-2.52,6.73,6.73,0,0,1,2.74-1.74,3.4,3.4,0,0,1,3,.43,2.38,2.38,0,0,1,.9,2.35,6.9,6.9,0,0,1-1.74,3.48,11.43,11.43,0,0,1-3.94,2.92,14.24,14.24,0,0,0,.57,3.76,9.55,9.55,0,0,0,1.79,3.15,5,5,0,0,0,2.71,1.72,5.35,5.35,0,0,0,4.2-.85,13.34,13.34,0,0,0,4.72-7.66.49.49,0,0,1,.25-.28A.45.45,0,0,1,90.34,44.36ZM75.79,41.72a12.87,12.87,0,0,0-.1,1.87A10.78,10.78,0,0,0,79.07,41a6.22,6.22,0,0,0,1.5-3A1.5,1.5,0,0,0,80,36.51a1.4,1.4,0,0,0-1.61.09,4.89,4.89,0,0,0-1.23,1.26A9.24,9.24,0,0,0,75.79,41.72Z"/><path class="cls-3" d="M124,44.36a.47.47,0,0,1,.24.22.4.4,0,0,1,0,.34,28.65,28.65,0,0,1-1.33,2.92,31.16,31.16,0,0,1-3.93,5.86,11.5,11.5,0,0,1-2.28,2.08,7.07,7.07,0,0,1-1.67.9,4.5,4.5,0,0,1-2.38.22,5.75,5.75,0,0,1-3-2.06,13.08,13.08,0,0,1-1.14-1.58A30.18,30.18,0,0,1,105.67,47c-.09-.24-.17-.47-.25-.7l-.26.53a30,30,0,0,1-1.74,3.25,15.52,15.52,0,0,1-2.86,3.46,10.21,10.21,0,0,1-4.33,2.31,5,5,0,0,1-4.26-.8,7.71,7.71,0,0,1-2.65-3.56,10.54,10.54,0,0,1-.65-4.55,11.91,11.91,0,0,1,1.21-4.47,8.91,8.91,0,0,1,3.25-3.65,8.71,8.71,0,0,1,4.68-1.37,13.13,13.13,0,0,1,3.56.57,16.32,16.32,0,0,1,2.11.79.2.2,0,0,0,.1,0,69,69,0,0,1-1-7.59,67.46,67.46,0,0,1,.15-11.1A42.37,42.37,0,0,1,104,13.28,20.37,20.37,0,0,1,106.83,7a11.73,11.73,0,0,1,1.91-2.13,4.7,4.7,0,0,1,2.67-1.21h0c2.05-.15,3.52.88,4.39,3.1a8.44,8.44,0,0,1,.51,2.57q.33,6.09-4.39,15.42c-.78,1.52-1.68,3.09-2.72,4.7l-2.54,3.91c.24,2.84.56,5.58.94,8.22,0,.11,0,.25.08.41q.21,1.65.72,4.29c.2,1,.4,1.85.61,2.65.1.34.19.69.27,1.06a19.18,19.18,0,0,0,1,3.28,5,5,0,0,0,2,2.47,2.76,2.76,0,0,0,2.33.17,6.87,6.87,0,0,0,1.5-.8,11.73,11.73,0,0,0,2.11-1.94,29,29,0,0,0,2.84-4,31.29,31.29,0,0,0,1.7-3.21c.37-.85.56-1.3.58-1.35a.36.36,0,0,1,.21-.24A.43.43,0,0,1,124,44.36Zm-22.58,6.82a31.22,31.22,0,0,0,3.69-6.09c-.39-1.28-.65-2.24-.78-2.89s-.36-1.52-.51-2.3a12.57,12.57,0,0,0-3-1l-.34,0a6.68,6.68,0,0,0-5.6,1.87,7.33,7.33,0,0,0-2.06,3.71,12.48,12.48,0,0,0-.34,3.5,8.14,8.14,0,0,0,1.16,3.92,4.59,4.59,0,0,0,1,1.14,3.82,3.82,0,0,0,3.52.63,6,6,0,0,0,.75-.32A7.42,7.42,0,0,0,101.37,51.18Zm4.85-30.82c0,1.69,0,3.44,0,5.23s.15,3.58.26,5.39c0,.27.06.55.08.82v.1c.58-.87,1.22-1.86,1.94-3q1.52-2.37,2.66-4.61,4.64-9.13,4.3-15A7.7,7.7,0,0,0,115,7q-1-2.76-3.49-2.57l0,0a2.65,2.65,0,0,0-1.11.34,3,3,0,0,0-.49.31l-.31.29-.12.13a7,7,0,0,0-1.34,2.1,20.06,20.06,0,0,0-1,3.57c-.06.34-.16.91-.29,1.72s-.24,1.7-.34,2.67c-.13,1.87-.19,3.36-.19,4.46A1.12,1.12,0,0,1,106.22,20.36Z"/><path class="cls-4" d="M158,44.36a.47.47,0,0,1,.24.22.4.4,0,0,1,0,.34A26.23,26.23,0,0,1,157,47.84,31.16,31.16,0,0,1,153,53.7a11.5,11.5,0,0,1-2.28,2.08,7.07,7.07,0,0,1-1.67.9,4.5,4.5,0,0,1-2.38.22,5.79,5.79,0,0,1-3-2.06,13.08,13.08,0,0,1-1.14-1.58A30.18,30.18,0,0,1,139.76,47c-.08-.24-.16-.47-.25-.7l-.26.53a30,30,0,0,1-1.74,3.25,15.25,15.25,0,0,1-2.86,3.46,10.21,10.21,0,0,1-4.33,2.31,5,5,0,0,1-4.26-.8,7.71,7.71,0,0,1-2.65-3.56,10.7,10.7,0,0,1-.65-4.55A12.1,12.1,0,0,1,124,42.47a8.91,8.91,0,0,1,3.25-3.65,8.71,8.71,0,0,1,4.68-1.37,13.21,13.21,0,0,1,3.57.57,16.94,16.94,0,0,1,2.11.79.15.15,0,0,0,.09,0,66.68,66.68,0,0,1-.94-7.59,67.46,67.46,0,0,1,.14-11.1,43.49,43.49,0,0,1,1.21-6.86A20.37,20.37,0,0,1,140.92,7a11.43,11.43,0,0,1,1.92-2.13,4.64,4.64,0,0,1,2.66-1.21h.05q3.09-.22,4.39,3.1a8.44,8.44,0,0,1,.51,2.57q.35,6.09-4.39,15.42c-.77,1.52-1.68,3.09-2.71,4.7l-2.55,3.91q.36,4.26.95,8.22c0,.11,0,.25.07.41.14,1.1.39,2.53.73,4.29.19,1,.39,1.85.6,2.65.1.34.19.69.27,1.06a20.12,20.12,0,0,0,1,3.28,4.93,4.93,0,0,0,2,2.47,2.74,2.74,0,0,0,2.32.17,7.16,7.16,0,0,0,1.51-.8,12.45,12.45,0,0,0,2.11-1.94,29.8,29.8,0,0,0,2.83-4A31.29,31.29,0,0,0,156.9,46c.37-.85.57-1.3.58-1.35a.36.36,0,0,1,.21-.24A.43.43,0,0,1,158,44.36Zm-22.57,6.82a31.71,31.71,0,0,0,3.68-6.09,29.35,29.35,0,0,1-.77-2.89c-.2-.76-.37-1.52-.51-2.3a12.68,12.68,0,0,0-3-1l-.34,0a6.69,6.69,0,0,0-5.6,1.87,7.33,7.33,0,0,0-2.06,3.71,12.87,12.87,0,0,0-.34,3.5,8.14,8.14,0,0,0,1.16,3.92,4.59,4.59,0,0,0,1,1.14,3.82,3.82,0,0,0,3.52.63,5,5,0,0,0,.75-.32A7.55,7.55,0,0,0,135.47,51.18Zm4.85-30.82c0,1.69,0,3.44,0,5.23s.15,3.58.27,5.39c0,.27,0,.55.07.82v.1c.58-.87,1.23-1.86,1.94-3a52.58,52.58,0,0,0,2.67-4.61q4.62-9.13,4.29-15A7.7,7.7,0,0,0,149.12,7q-1.05-2.76-3.49-2.57l0,0a2.7,2.7,0,0,0-1.12.34,2.6,2.6,0,0,0-.48.31l-.32.29-.12.13a6.76,6.76,0,0,0-1.33,2.1,20,20,0,0,0-1.05,3.57c-.06.34-.16.91-.29,1.72s-.24,1.7-.34,2.67c-.13,1.87-.19,3.36-.19,4.46A2.13,2.13,0,0,1,140.32,20.36Z"/><path class="cls-5" d="M171.38,44.34a.44.44,0,0,1,.34.14.52.52,0,0,1,.12.34,15,15,0,0,1-1,3.38,21.45,21.45,0,0,1-2,3.7,10.37,10.37,0,0,1-2.28,2.48,6.1,6.1,0,0,1-3.09,1.38,4.09,4.09,0,0,1-2.39-.49,4.92,4.92,0,0,1-1.55-1.35,12.88,12.88,0,0,1-1.91-5.34,29.78,29.78,0,0,1-.32-4.53c0-.81,0-1.66.07-2.54s.1-1.62.15-2.22a3.71,3.71,0,0,1,.75-2.08l0,0a3.61,3.61,0,0,1,2.23-1.33l.15,0,.28,0,.37,0c-.08.76-.15,1.41-.22,1.93s-.13,1-.19,1.53-.11.87-.15,1.13c-.11,1-.21,2.1-.31,3.34s-.14,2.53-.12,3.86a24.87,24.87,0,0,0,.31,3.66A3.64,3.64,0,0,0,162,53.67a3.08,3.08,0,0,0,2.49.58,5.16,5.16,0,0,0,1.59-.65,5.1,5.1,0,0,0,1.08-.87,18,18,0,0,0,2.6-4.27A16.2,16.2,0,0,0,171,44.73a.45.45,0,0,1,.15-.28A.36.36,0,0,1,171.38,44.34Zm-10.2-11a1.87,1.87,0,0,1-2.85,0,2.39,2.39,0,0,1-.58-1.62,2.35,2.35,0,0,1,.58-1.59,1.87,1.87,0,0,1,2.85,0,2.31,2.31,0,0,1,.59,1.59A2.35,2.35,0,0,1,161.18,33.37Z"/><path class="cls-6" d="M193.85,44.24a.47.47,0,0,1,.22.22.42.42,0,0,1,0,.31,24.25,24.25,0,0,1-2.72,6.74,16.09,16.09,0,0,1-3,3.74,9.94,9.94,0,0,1-1,.73,3,3,0,0,1-2.69.48,4,4,0,0,1-1.94-1.77,10.84,10.84,0,0,1-1.43-5.37,25.43,25.43,0,0,1,.56-5.61c.11-.52.25-1,.41-1.55.11-.33.21-.65.29-1a1.8,1.8,0,0,0,.07-.27,11.11,11.11,0,0,0,.37-1.84,1.56,1.56,0,0,0-.13-.82.41.41,0,0,0-.35-.23.78.78,0,0,0-.35.08,5.23,5.23,0,0,0-1.68,1.32,18.05,18.05,0,0,0-2.83,4.47,59.42,59.42,0,0,0-3.42,9.6,2.71,2.71,0,0,1-.63,1.18.94.94,0,0,1-.7.3.88.88,0,0,1-.56-.22,4.4,4.4,0,0,1-1.26-2.45A29.21,29.21,0,0,1,170.5,46c0-2.42.08-4.56.22-6.42a4,4,0,0,1,.8-2.2,3.43,3.43,0,0,1,1.17-1,3.23,3.23,0,0,1,1.79-.36c-.21,3-.38,5.46-.52,7.51s-.26,4-.38,5.87-.17,3.23-.19,4.1q.95-3.49,1.89-6a40.84,40.84,0,0,1,1.84-4.33,23.81,23.81,0,0,1,1.7-2.9,11.44,11.44,0,0,1,1.47-1.75,5.47,5.47,0,0,1,1.16-.9,4,4,0,0,1,1-.39,2.09,2.09,0,0,1,.8.23A2.79,2.79,0,0,1,184,38a4.2,4.2,0,0,1,.69,1.17,8.83,8.83,0,0,1,.5,2,17.38,17.38,0,0,1,.13,2.95c0,.71,0,1.43,0,2.15s0,1.33,0,2q-.1,2.23,0,4.44a4.44,4.44,0,0,0,.46,1.87,1.09,1.09,0,0,0,.76.58,1.31,1.31,0,0,0,.78-.15,3.61,3.61,0,0,0,.52-.34,16.3,16.3,0,0,0,2.9-3.57,22.9,22.9,0,0,0,2.58-6.49.51.51,0,0,1,.24-.28A.45.45,0,0,1,193.85,44.24Z"/><path class="cls-7" d="M220.07,44.39a.41.41,0,0,1,.2.24.41.41,0,0,1,0,.34,22,22,0,0,1-1.93,2.88,45.76,45.76,0,0,1-6.29,6.6q-.15,3.66-.42,6.48c-.17,1.89-.45,3.87-.82,6a26,26,0,0,1-1.6,5.4,18.87,18.87,0,0,1-1.89,3.47,10.39,10.39,0,0,1-3,2.91,7.07,7.07,0,0,1-4.22,1.09,4.46,4.46,0,0,1-3-1.69A5.74,5.74,0,0,1,196,75.24,7.86,7.86,0,0,1,196,73a16.64,16.64,0,0,1,1.43-4.68A24.7,24.7,0,0,1,200,64l.39-.48a29.5,29.5,0,0,1,6.37-6.06c.76-.52,1.47-1.05,2.14-1.58V54.06q0-5.12-.24-8.75a35.11,35.11,0,0,1-1.93,4.25,17.47,17.47,0,0,1-2.63,3.75,6.7,6.7,0,0,1-2,1.45,4.84,4.84,0,0,1-5.09-.51,8.43,8.43,0,0,1-2.37-2.57,10.17,10.17,0,0,1-1.34-3.41A14.74,14.74,0,0,1,193,45a13.94,13.94,0,0,1,.35-2.69A9.6,9.6,0,0,1,195,38.71a8.31,8.31,0,0,1,5.39-3.25,8.15,8.15,0,0,1,4.63.72,11.58,11.58,0,0,1,3.22,2.31,3.21,3.21,0,0,1,.41-1.39,2.59,2.59,0,0,1,.84-.84,3.81,3.81,0,0,1,1-.41,5.12,5.12,0,0,1,1.13-.14l.14,4.34c.08,1.45.14,2.65.18,3.58s.08,1.77.11,2.5q.08,3.15,0,7.13a43,43,0,0,0,5.71-6.15,20,20,0,0,0,1.71-2.55.41.41,0,0,1,.25-.21A.38.38,0,0,1,220.07,44.39ZM208.72,61.07c.08-1.39.13-2.75.14-4.08-.51.39-1.05.78-1.6,1.17a29,29,0,0,0-6.2,5.87c-.13.16-.25.33-.37.51a21.57,21.57,0,0,0-3.27,6.32A10,10,0,0,0,197,76.3a3.57,3.57,0,0,0,2.15,2.4,4.37,4.37,0,0,0,3.39-.37,7.52,7.52,0,0,0,2.47-2.4,15.86,15.86,0,0,0,1.66-3.22,32.84,32.84,0,0,0,1.19-4.08A65,65,0,0,0,208.72,61.07Zm-5.26-8.34a18.86,18.86,0,0,0,3-4.67,41.22,41.22,0,0,0,2-5c0-.6-.06-1.1-.09-1.49s-.06-.75-.08-1.06,0-.48,0-.51A13.7,13.7,0,0,0,206,38.11a5,5,0,0,0-2.64-.88,5.68,5.68,0,0,0-3.06.83,6.65,6.65,0,0,0-2.7,3.15,10.66,10.66,0,0,0-.8,4.18,15.84,15.84,0,0,0,.55,4.16c.06.21.17.51.31.89a8.08,8.08,0,0,0,.56,1.15,4.2,4.2,0,0,0,2.41,1.85A2.75,2.75,0,0,0,203.46,52.73Z"/><path class="cls-8" d="M235.46,44.34a.43.43,0,0,1,.34.14.42.42,0,0,1,.1.34,8.33,8.33,0,0,1-2.3,4.62,20,20,0,0,1-3.93,3,22,22,0,0,1,.94,2.18,12.62,12.62,0,0,1,.73,4.28,6,6,0,0,1-3.85,5.61,4.13,4.13,0,0,1-2,.22,3.66,3.66,0,0,1-2.4-1.31,4.71,4.71,0,0,1-1-2.11,5.77,5.77,0,0,1,.31-3,8.87,8.87,0,0,1,1.64-2.73,13.13,13.13,0,0,1,2.31-2c-.22-.35-.46-.69-.7-1a37,37,0,0,0-4.61-5c-.29-.31-.57-.62-.84-.94a12.72,12.72,0,0,1-2.65-5,8.76,8.76,0,0,1,.34-5.65,7.51,7.51,0,0,1,3-3.42,4.53,4.53,0,0,1,2.89-.58,5.74,5.74,0,0,1,1.66.45,5.06,5.06,0,0,1,1.68,1.22,4.31,4.31,0,0,1,1,2.7A6.53,6.53,0,0,1,226.35,41a7.38,7.38,0,0,1-2.2,1.49,10.19,10.19,0,0,1-2.29.72l2.45,2.42c.66.66,1.28,1.29,1.85,1.89a15.27,15.27,0,0,1,1.2,1.34l0,.09c.12.13.27.33.48.61l.63.86c.21.3.4.56.54.79s.21.35.2.39A18.93,18.93,0,0,0,233,48.87a7.43,7.43,0,0,0,2.1-4.14.45.45,0,0,1,.15-.28A.36.36,0,0,1,235.46,44.34Zm-15.9-7.18A8.88,8.88,0,0,0,221,42.08a3.16,3.16,0,0,0,.2.27l.07.12a10.08,10.08,0,0,0,2.25-.62,6.63,6.63,0,0,0,2.21-1.42,5.63,5.63,0,0,0,1.53-4.24,3.38,3.38,0,0,0-.8-2.16,4.35,4.35,0,0,0-2.14-1.4,3.48,3.48,0,0,0-4.08,1.83A6.36,6.36,0,0,0,219.56,37.16Zm9.31,23a6.5,6.5,0,0,0-.31-2.26,14.15,14.15,0,0,0-.86-2.13c-.25-.54-.54-1.06-.84-1.58a12,12,0,0,0-2.13,1.87,7.6,7.6,0,0,0-1.46,2.45,4.92,4.92,0,0,0-.29,2.59,3.61,3.61,0,0,0,1.67,2.48,2.29,2.29,0,0,0,1.3.32,2.4,2.4,0,0,0,1-.31,2.73,2.73,0,0,0,.62-.47,4.71,4.71,0,0,0,1.09-1.94A5.26,5.26,0,0,0,228.87,60.15Z"/></g></g></svg>