<svg xmlns="http://www.w3.org/2000/svg" xmlns:xlink="http://www.w3.org/1999/xlink" viewBox="0 0 138.95 32.66"><defs><style>.cls-1{fill:url(#New_Gradient_Swatch_copy_11);}.cls-2{fill:url(#New_Gradient_Swatch_copy_11-2);}.cls-3{fill:url(#New_Gradient_Swatch_copy_11-3);}.cls-4{fill:url(#New_Gradient_Swatch_copy_11-4);}.cls-5{fill:url(#New_Gradient_Swatch_copy_11-5);}.cls-6{fill:url(#New_Gradient_Swatch_copy_11-6);}.cls-7{fill:url(#New_Gradient_Swatch_copy_11-7);}.cls-8{fill:url(#New_Gradient_Swatch_copy_11-8);}</style><linearGradient id="New_Gradient_Swatch_copy_11" x1="19.91" y1="23.63" x2="39.79" y2="23.63" gradientUnits="userSpaceOnUse"><stop offset="0" stop-color="#914e3d"/><stop offset="0.05" stop-color="#9e5d4c"/><stop offset="0.1" stop-color="#b27362"/><stop offset="0.16" stop-color="#c48776"/><stop offset="0.28" stop-color="#f1baa9"/><stop offset="0.3" stop-color="#fac4b3"/><stop offset="0.5" stop-color="#f4b5a5"/><stop offset="1" stop-color="#946051"/></linearGradient><linearGradient id="New_Gradient_Swatch_copy_11-2" x1="0" y1="21.97" x2="65.76" y2="21.97" xlink:href="#New_Gradient_Swatch_copy_11"/><linearGradient id="New_Gradient_Swatch_copy_11-3" x1="55.94" y1="26.09" x2="68.64" y2="26.09" xlink:href="#New_Gradient_Swatch_copy_11"/><linearGradient id="New_Gradient_Swatch_copy_11-4" x1="61.71" y1="10.59" x2="69.03" y2="10.59" xlink:href="#New_Gradient_Swatch_copy_11"/><linearGradient id="New_Gradient_Swatch_copy_11-5" x1="99.16" y1="23.63" x2="119.04" y2="23.63" xlink:href="#New_Gradient_Swatch_copy_11"/><linearGradient id="New_Gradient_Swatch_copy_11-6" x1="73.19" y1="21.97" x2="138.95" y2="21.97" xlink:href="#New_Gradient_Swatch_copy_11"/><linearGradient id="New_Gradient_Swatch_copy_11-7" x1="70.31" y1="26.09" x2="83.01" y2="26.09" xlink:href="#New_Gradient_Swatch_copy_11"/><linearGradient id="New_Gradient_Swatch_copy_11-8" x1="69.92" y1="10.59" x2="77.24" y2="10.59" xlink:href="#New_Gradient_Swatch_copy_11"/></defs><title>Asset 7</title><g id="Layer_2" data-name="Layer 2"><g id="Layer_1-2" data-name="Layer 1"><path class="cls-1" d="M39.79,27a9.12,9.12,0,0,0-3-4.49,12.55,12.55,0,0,0-4.84-2.42,15.53,15.53,0,0,0-5.35-.61A6.72,6.72,0,0,0,22,21.65a4.05,4.05,0,0,0-.6,4.63,3.17,3.17,0,0,0,1.85,1.49,4.56,4.56,0,0,0,2.52-.16,7.16,7.16,0,0,0,2.38-1.12,1.56,1.56,0,0,0,.41-2.12,2.41,2.41,0,0,0-2.26-1,6.83,6.83,0,0,0-2.56,1,6.27,6.27,0,0,1,2.53-1.22,2.76,2.76,0,0,1,2.69,1,1.9,1.9,0,0,1,.38,1.52A2.53,2.53,0,0,1,28.55,27,7.6,7.6,0,0,1,26,28.34a5.08,5.08,0,0,1-3,.28,4.1,4.1,0,0,1-2.44-1.85,4.52,4.52,0,0,1-.6-3A5.74,5.74,0,0,1,21.2,21a7.58,7.58,0,0,1,5.27-2.47,15.34,15.34,0,0,1,5.65.81,13.13,13.13,0,0,1,4.94,2.8A8.91,8.91,0,0,1,39.79,27Z"/><path class="cls-2" d="M4.27,16.65a1,1,0,0,0-.69,1.12,1.09,1.09,0,0,0,.82,1,1.81,1.81,0,0,0,2.13-1.3A2.35,2.35,0,0,0,5.82,15a2.82,2.82,0,0,0-2.54-.55,3.51,3.51,0,0,0-2.07,1.63,4.53,4.53,0,0,0-.58,2.63A5.29,5.29,0,0,0,3.44,23.1c1.63.79,3.57.27,5.32-.4s3.49-1.59,5.25-2.43a37.84,37.84,0,0,1,11.25-3.35,46.06,46.06,0,0,1,5.87-.4,24.82,24.82,0,0,1,5.88.64,16.79,16.79,0,0,1,5.44,2.39A39.2,39.2,0,0,1,47,23.27,48.35,48.35,0,0,0,51.42,27a14.62,14.62,0,0,0,5.14,2.42,9.42,9.42,0,0,0,5.6-.44,5.86,5.86,0,0,0,3.6-4.18,5.72,5.72,0,0,1-1.17,2.65,6.48,6.48,0,0,1-2.33,1.78,9.85,9.85,0,0,1-5.8.67,14.93,14.93,0,0,1-5.39-2.38,46.78,46.78,0,0,1-4.58-3.66A44.7,44.7,0,0,0,42,20.28a15.69,15.69,0,0,0-5.18-2.23,32.56,32.56,0,0,0-11.4-.14,36.69,36.69,0,0,0-11,3.19c-1.75.81-3.49,1.71-5.34,2.4a11.7,11.7,0,0,1-2.9.77,5.41,5.41,0,0,1-3.06-.48,6,6,0,0,1-3.09-5,5.16,5.16,0,0,1,.72-3A4,4,0,0,1,3.16,14a3.26,3.26,0,0,1,2.91.74,2.68,2.68,0,0,1,.71,2.84,2,2,0,0,1-2.42,1.36,1.23,1.23,0,0,1-.86-1.14A1.09,1.09,0,0,1,4.27,16.65Z"/><path class="cls-3" d="M58.8,28a3.53,3.53,0,0,1-2.86-3.28,4.81,4.81,0,0,1,2.32-4,8.77,8.77,0,0,1,4.52-1.24,5.88,5.88,0,0,1,4.51,1.58,5.48,5.48,0,0,1,1.27,4.62,6.83,6.83,0,0,1-2.46,4A11.41,11.41,0,0,1,62,31.85a29.61,29.61,0,0,1-4.46.81,38.91,38.91,0,0,0,4.31-1.28,10.88,10.88,0,0,0,3.75-2.21,6.35,6.35,0,0,0,2-3.6,4.51,4.51,0,0,0-1.06-3.78,5,5,0,0,0-3.77-1.32,8.45,8.45,0,0,0-4.13.94,4.23,4.23,0,0,0-2.24,3.35A3.38,3.38,0,0,0,58.8,28Z"/><path class="cls-4" d="M63.41,4.74A3.12,3.12,0,0,1,62,3.37a2.32,2.32,0,0,1-.13-2A2.58,2.58,0,0,1,65.7.51a3.5,3.5,0,0,1,1.13,4,14.68,14.68,0,0,1-2.07,3.42,5,5,0,0,0-1,3.32,8.36,8.36,0,0,0,1.13,3.46A28.15,28.15,0,0,0,67,17.82a16.45,16.45,0,0,1,2,3.35c-1.34-2.23-3.37-3.85-4.83-6.1a8.47,8.47,0,0,1-1.42-3.79A5.54,5.54,0,0,1,63,9.18a7.46,7.46,0,0,1,.93-1.85,14.74,14.74,0,0,0,2-3.15,2.74,2.74,0,0,0-.7-3.07,2,2,0,0,0-2.9.45,1.93,1.93,0,0,0-.07,1.71A3.35,3.35,0,0,0,63.41,4.74Z"/><path class="cls-5" d="M99.16,27a8.91,8.91,0,0,1,2.73-4.85,13.13,13.13,0,0,1,4.94-2.8,15.34,15.34,0,0,1,5.65-.81A7.58,7.58,0,0,1,117.75,21,5.74,5.74,0,0,1,119,23.77a4.52,4.52,0,0,1-.6,3A4.1,4.1,0,0,1,116,28.62a5.08,5.08,0,0,1-3-.28A7.47,7.47,0,0,1,110.41,27a2.55,2.55,0,0,1-.77-1.35,1.9,1.9,0,0,1,.38-1.52,2.77,2.77,0,0,1,2.69-1,6.27,6.27,0,0,1,2.53,1.22,6.83,6.83,0,0,0-2.56-1,2.41,2.41,0,0,0-2.26,1,1.56,1.56,0,0,0,.41,2.12,7.16,7.16,0,0,0,2.38,1.12,4.56,4.56,0,0,0,2.52.16,3.17,3.17,0,0,0,1.85-1.49,4,4,0,0,0-.6-4.63,6.72,6.72,0,0,0-4.58-2.17,15.53,15.53,0,0,0-5.35.61,12.62,12.62,0,0,0-4.84,2.42A9.19,9.19,0,0,0,99.16,27Z"/><path class="cls-6" d="M134.68,16.65a1.09,1.09,0,0,1,.77,1.13,1.23,1.23,0,0,1-.86,1.14,2,2,0,0,1-2.42-1.36,2.68,2.68,0,0,1,.71-2.84,3.27,3.27,0,0,1,2.91-.74,4,4,0,0,1,2.43,1.81,5.16,5.16,0,0,1,.73,3,6,6,0,0,1-3.1,5,5.41,5.41,0,0,1-3.06.48,11.7,11.7,0,0,1-2.9-.77c-1.85-.69-3.59-1.59-5.34-2.4a36.69,36.69,0,0,0-11-3.19,32.56,32.56,0,0,0-11.4.14A15.69,15.69,0,0,0,97,20.28a44.7,44.7,0,0,0-4.51,3.57,46.78,46.78,0,0,1-4.58,3.66,14.93,14.93,0,0,1-5.39,2.38,9.85,9.85,0,0,1-5.8-.67,6.57,6.57,0,0,1-2.33-1.78,5.72,5.72,0,0,1-1.17-2.65A5.85,5.85,0,0,0,76.8,29a9.39,9.39,0,0,0,5.59.44A14.62,14.62,0,0,0,87.53,27,48.35,48.35,0,0,0,92,23.27a39.2,39.2,0,0,1,4.55-3.72,16.79,16.79,0,0,1,5.44-2.39,24.87,24.87,0,0,1,5.88-.64,46.06,46.06,0,0,1,5.87.4,37.84,37.84,0,0,1,11.25,3.35c1.76.84,3.47,1.74,5.25,2.43s3.69,1.19,5.32.4a5.29,5.29,0,0,0,2.81-4.39,4.61,4.61,0,0,0-.57-2.63,3.56,3.56,0,0,0-2.08-1.63,2.82,2.82,0,0,0-2.54.55,2.35,2.35,0,0,0-.71,2.47,1.81,1.81,0,0,0,2.13,1.3,1.09,1.09,0,0,0,.82-1A1,1,0,0,0,134.68,16.65Z"/><path class="cls-7" d="M80.15,28a3.38,3.38,0,0,0,2.38-3.28,4.23,4.23,0,0,0-2.24-3.35,8.45,8.45,0,0,0-4.13-.94,5,5,0,0,0-3.77,1.32,4.51,4.51,0,0,0-1.06,3.78,6.35,6.35,0,0,0,2,3.6,10.88,10.88,0,0,0,3.75,2.21,39.56,39.56,0,0,0,4.31,1.28A29.84,29.84,0,0,1,77,31.85a11.41,11.41,0,0,1-4.11-2.11,6.83,6.83,0,0,1-2.46-4,5.48,5.48,0,0,1,1.27-4.62,5.88,5.88,0,0,1,4.51-1.58,8.77,8.77,0,0,1,4.52,1.24,4.81,4.81,0,0,1,2.32,4A3.53,3.53,0,0,1,80.15,28Z"/><path class="cls-8" d="M75.54,4.74a3.35,3.35,0,0,0,1.15-1.47,2,2,0,0,0-.06-1.71,2,2,0,0,0-2.91-.45A2.74,2.74,0,0,0,73,4.18a14.74,14.74,0,0,0,2,3.15A7.13,7.13,0,0,1,76,9.18a5.54,5.54,0,0,1,.22,2.1,8.47,8.47,0,0,1-1.42,3.79c-1.46,2.25-3.49,3.87-4.83,6.1a16.45,16.45,0,0,1,2-3.35,28.15,28.15,0,0,0,2.18-3.15,8.36,8.36,0,0,0,1.13-3.46,4.92,4.92,0,0,0-1-3.32,14.68,14.68,0,0,1-2.07-3.42,3.5,3.5,0,0,1,1.13-4,2.58,2.58,0,0,1,3.81.83,2.32,2.32,0,0,1-.13,2A3.12,3.12,0,0,1,75.54,4.74Z"/></g></g></svg>