<svg xmlns="http://www.w3.org/2000/svg" xmlns:xlink="http://www.w3.org/1999/xlink" viewBox="0 0 145.2 44.17"><defs><style>.cls-1{fill:url(#New_Gradient_Swatch_copy_11);}.cls-2{fill:url(#New_Gradient_Swatch_copy_11-2);}.cls-3{fill:url(#New_Gradient_Swatch_copy_11-3);}.cls-4{fill:url(#New_Gradient_Swatch_copy_11-4);}.cls-5{fill:url(#New_Gradient_Swatch_copy_11-5);}.cls-6{fill:url(#New_Gradient_Swatch_copy_11-6);}.cls-7{fill:url(#New_Gradient_Swatch_copy_11-7);}</style><linearGradient id="New_Gradient_Swatch_copy_11" x1="3.34" y1="12.54" x2="103.34" y2="112.54" gradientUnits="userSpaceOnUse"><stop offset="0" stop-color="#914e3d"/><stop offset="0.05" stop-color="#9e5d4c"/><stop offset="0.1" stop-color="#b27362"/><stop offset="0.16" stop-color="#c48776"/><stop offset="0.28" stop-color="#f1baa9"/><stop offset="0.3" stop-color="#fac4b3"/><stop offset="0.5" stop-color="#f4b5a5"/><stop offset="1" stop-color="#946051"/></linearGradient><linearGradient id="New_Gradient_Swatch_copy_11-2" x1="16.34" y1="-0.47" x2="116.34" y2="99.53" xlink:href="#New_Gradient_Swatch_copy_11"/><linearGradient id="New_Gradient_Swatch_copy_11-3" x1="20.71" y1="-4.84" x2="120.71" y2="95.16" xlink:href="#New_Gradient_Swatch_copy_11"/><linearGradient id="New_Gradient_Swatch_copy_11-4" x1="27.6" y1="-11.73" x2="127.6" y2="88.27" xlink:href="#New_Gradient_Swatch_copy_11"/><linearGradient id="New_Gradient_Swatch_copy_11-5" x1="40.5" y1="-24.63" x2="140.5" y2="75.37" xlink:href="#New_Gradient_Swatch_copy_11"/><linearGradient id="New_Gradient_Swatch_copy_11-6" x1="53.36" y1="-37.49" x2="153.36" y2="62.51" xlink:href="#New_Gradient_Swatch_copy_11"/><linearGradient id="New_Gradient_Swatch_copy_11-7" x1="60.67" y1="-44.8" x2="160.67" y2="55.2" xlink:href="#New_Gradient_Swatch_copy_11"/></defs><title>about-us-title</title><g id="Layer_2" data-name="Layer 2"><g id="Layer_1-2" data-name="Layer 1"><path class="cls-1" d="M34,30.23a.25.25,0,0,1,.2.12.28.28,0,0,1,0,.22q-3.6,11.58-6.58,13.34a1.78,1.78,0,0,1-1.41.19,2.62,2.62,0,0,1-1.1-.61,5.47,5.47,0,0,1-1.21-1.7,15.22,15.22,0,0,1-1.08-2.65,28.35,28.35,0,0,1-1.06-5.26c-.19-1.78-.32-3.57-.38-5.36l0-1a45.22,45.22,0,0,0-4.76.73q-.52.89-1.08,1.77-2.13,3.47-4.45,6.54c-.2.27-.51.65-.92,1.15s-.87,1-1.39,1.58-1,1-1.48,1.45c-.3.25-.6.49-.91.71a7.6,7.6,0,0,1-1.86.92A5.73,5.73,0,0,1,2,42.71,2.15,2.15,0,0,1,.28,41.58,3.23,3.23,0,0,1,0,40.19a5.52,5.52,0,0,1,.21-1.32,9,9,0,0,1,.58-1.36q2.15-4.36,7.72-7.13a30.7,30.7,0,0,1,5.91-2.19c.52-.86,1.05-1.72,1.58-2.57l.61-1,.82-1.33c.28-.44.47-.76.59-.95a2.18,2.18,0,0,1,.18-.31c.42-.69.95-1.59,1.6-2.68.26-.44.53-.91.82-1.44l.79-1.42.43-.77q.14-1,.24-1.65c.06-.44.12-.84.18-1.22s.09-.61.11-.72c.25-1.55.5-2.86.75-3.94a25.21,25.21,0,0,1,.74-2.64A9.81,9.81,0,0,1,24.53,4a3,3,0,0,1,.57-.79,1,1,0,0,1,.45-.26.64.64,0,0,1,.28,0,.58.58,0,0,1,.35.22,1.24,1.24,0,0,1,.25.68,2,2,0,0,1,0,.42A17.86,17.86,0,0,1,26,6.77a39.57,39.57,0,0,1-1.18,3.9c-.18.54-.34,1-.45,1.33s-.22.67-.31,1-.14.45-.15.5a2.11,2.11,0,0,1,0,.23c0,.28,0,.61-.05,1s0,.64,0,.79c0,1.17-.05,2.35-.08,3.52-.07,1.86-.1,3.71-.08,5.57,0,.27,0,.53,0,.8V26.8c1.68-.09,3.41-.12,5.19-.08a.42.42,0,0,1,.18.07.26.26,0,0,1,.09.17.26.26,0,0,1-.06.21.29.29,0,0,1-.21.09c-1.78-.05-3.5,0-5.17.06v1.15c0,.77,0,1.56,0,2.34,0,1.34,0,2.68.07,4a31.51,31.51,0,0,0,.4,4,16.51,16.51,0,0,0,.42,2,5.37,5.37,0,0,0,.58,1.42,3,3,0,0,0,1.1,1.23,1.14,1.14,0,0,0,1.18,0A5.51,5.51,0,0,0,29,41.76a24.18,24.18,0,0,0,2.1-4,76.43,76.43,0,0,0,2.59-7.29.35.35,0,0,1,.12-.15A.21.21,0,0,1,34,30.23ZM9.73,35.55c.35-.53.77-1.16,1.24-1.9s.94-1.47,1.4-2.2l1.15-1.82c.31-.48.46-.74.47-.77a30.07,30.07,0,0,0-5.23,2Q2.45,34.05.7,39.19A4.26,4.26,0,0,0,.53,40.4,2.1,2.1,0,0,0,.9,41.6h0a1.16,1.16,0,0,0,.53.42,1.56,1.56,0,0,0,.6.15,1.79,1.79,0,0,0,.69-.07,7.48,7.48,0,0,0,2.6-1.3,10.93,10.93,0,0,0,1.82-1.74c.47-.57.79-1,.95-1.22a.48.48,0,0,1,.08-.12c.55-.75,1-1.38,1.33-1.89C9.59,35.73,9.66,35.64,9.73,35.55Zm11.69-15,.09-1.48a.3.3,0,0,1,0-.1l-.47,1c-.31.67-.61,1.29-.9,1.87s-.52,1-.68,1.3c-.24.46-.49.93-.75,1.39-.05.1-.11.2-.16.31l-.51.88-.65,1.11c-.21.35-.35.6-.42.74A41.18,41.18,0,0,1,21.35,27c0-.61,0-1.23,0-1.84a5.72,5.72,0,0,1,0-.58v-1a2.11,2.11,0,0,0,0-.26c0-.24,0-.49,0-.72C21.37,21.9,21.39,21.24,21.42,20.59Zm3-13.08c-.06.68-.12,1.26-.17,1.72s-.09.89-.13,1.28-.06.66-.07.79c0,0,0-.09.06-.19s.08-.23.13-.38.09-.3.14-.45l.12-.37a33.79,33.79,0,0,0,1-3.56c.2-.95.33-1.67.38-2.15a1.73,1.73,0,0,0,0-.47.53.53,0,0,0-.08-.22.15.15,0,0,0-.08,0,.26.26,0,0,0-.19,0,1.06,1.06,0,0,0-.15.15,2.72,2.72,0,0,0-.34.78c-.1.33-.19.67-.28,1A20.36,20.36,0,0,0,24.39,7.51Z"/><path class="cls-2" d="M52.6,29.81a.29.29,0,0,1,.25.32,10.34,10.34,0,0,1-1.28,3.33,10.18,10.18,0,0,1-4.79,4.26,8.93,8.93,0,0,1-.35.85,9.67,9.67,0,0,1-1.1,1.78,5.59,5.59,0,0,1-.53.58,10,10,0,0,1-.81.75c-.32.23-.61.44-.88.61l-.61.36a5,5,0,0,1-1.47.43,7.19,7.19,0,0,1-1,.07A3.44,3.44,0,0,1,39,43a1.34,1.34,0,0,1-1-1.42,3.14,3.14,0,0,1,1.53-2.12A10.2,10.2,0,0,1,43.84,38l.07,0h0a.26.26,0,0,0,0-.12c0-.07.07-.15.1-.24a9.83,9.83,0,0,0,.48-1.6,11.6,11.6,0,0,0,.3-3.28v0q0-.22-.06-.6c0-.25-.07-.51-.12-.77a4.46,4.46,0,0,0-.26-.76,2.92,2.92,0,0,0-.23-.43,1.88,1.88,0,0,0-.71-.67,1,1,0,0,0-.72-.1,1.83,1.83,0,0,0-.75.35,10.44,10.44,0,0,0-2.55,3.39,37,37,0,0,0-1.82,4.05,3.08,3.08,0,0,1,0,.86,3,3,0,0,1-.22.8,2.36,2.36,0,0,1-.58.8,2.8,2.8,0,0,1-1.07.6c-.11-.43-.2-.79-.28-1.09s-.14-.56-.21-.8a57,57,0,0,1-1.45-13c0-1.85.07-3.74.23-5.7a51.53,51.53,0,0,1,.9-6.46.3.3,0,0,1,0-.1c.1-.48.22-1,.34-1.44a14.5,14.5,0,0,1,.45-1.45A13,13,0,0,1,37,7.58a8.62,8.62,0,0,1,2.83-2.94,2.78,2.78,0,0,1,1.46-.41,2.57,2.57,0,0,1,2.21,1.59,9.22,9.22,0,0,1,.65,2.39A11.3,11.3,0,0,1,44,11.67a29.32,29.32,0,0,1-2.12,6.66A38.55,38.55,0,0,1,39,23.67a43.08,43.08,0,0,1-2.62,3.55c.19,2.59.44,4.7.73,6.34.17,1.06.31,1.86.42,2.41a30.9,30.9,0,0,1,1.79-3.76,10.21,10.21,0,0,1,2.39-3,4.69,4.69,0,0,1,.89-.54,2.44,2.44,0,0,1,1.12-.22,2.72,2.72,0,0,1,1.58.59,3.43,3.43,0,0,1,.56.55,6.19,6.19,0,0,1,.66,1,7.81,7.81,0,0,1,.46,1.05c.11.33.18.59.22.76a9.76,9.76,0,0,1,0,4.2c0,.14-.07.28-.11.42a9.9,9.9,0,0,0,5.25-6.92.38.38,0,0,1,.13-.19A.3.3,0,0,1,52.6,29.81ZM36.19,19.88c0,1.92,0,3.74,0,5.45,0,.36,0,.71,0,1.05a37.41,37.41,0,0,0,2.55-3.56,37.7,37.7,0,0,0,2.71-5.06,29.06,29.06,0,0,0,1.94-6.19,11.11,11.11,0,0,0,.14-3.28,5.27,5.27,0,0,0-1-2.83A1.59,1.59,0,0,0,41.4,5,2.46,2.46,0,0,0,40,5.7a7.8,7.8,0,0,0-1.77,2.4,13.6,13.6,0,0,0-1.35,4.14A50,50,0,0,0,36.19,19.88ZM43.42,39a3.72,3.72,0,0,0,.21-.39l0-.08A9.35,9.35,0,0,0,39.78,40c-.79.61-1.2,1.17-1.23,1.66a.76.76,0,0,0,.59.83,2,2,0,0,0,1.58-.32,6.17,6.17,0,0,0,.94-.75,4.19,4.19,0,0,0,.39-.41c.18-.2.37-.42.56-.67a8.54,8.54,0,0,0,.71-1.1A1.62,1.62,0,0,0,43.42,39Z"/><path class="cls-3" d="M63.94,29.75a.28.28,0,0,1,.14.2.32.32,0,0,1-.06.23,5.9,5.9,0,0,1-4.4,2.1,7.36,7.36,0,0,1-.82,2.48,6.42,6.42,0,0,1-1.23,1.53,3.47,3.47,0,0,1-1.2.7,3.26,3.26,0,0,1-1.78.11,2.72,2.72,0,0,1-1.48-.89,3.94,3.94,0,0,1-.91-1.68,10,10,0,0,1-.37-2.72,11,11,0,0,1,.18-2,8.43,8.43,0,0,1,.19-.86,3.9,3.9,0,0,1-.44-2.66A3.65,3.65,0,0,1,54,23.49a3.35,3.35,0,0,1,3,.16,4.48,4.48,0,0,1,1.55,1.6,9.23,9.23,0,0,1,1.1,3.64,12.81,12.81,0,0,1,.05,2.81,5.44,5.44,0,0,0,3.87-1.87.29.29,0,0,1,.37-.08Zm-4.82,2a12.46,12.46,0,0,0,0-2.77,8.75,8.75,0,0,0-1-3.35,4,4,0,0,0-1.38-1.45,2.69,2.69,0,0,0-1.37-.37,3,3,0,0,0-1.15.24,3.06,3.06,0,0,0-1.86,2.31,3.32,3.32,0,0,0,.18,1.88,1.38,1.38,0,0,1,.14-.24,2.81,2.81,0,0,1,.79-.76,2.7,2.7,0,0,1,.78-.36,2.84,2.84,0,0,1,.6-.1.6.6,0,0,1,.23,0,4.54,4.54,0,0,0-.44,1A14,14,0,0,0,54,30,9.25,9.25,0,0,0,59.12,31.72Zm-1.81,3.73a3.78,3.78,0,0,0,1.36-1.76A7.91,7.91,0,0,0,59,32.3,9.53,9.53,0,0,1,54,30.65a10.06,10.06,0,0,0-.22,1.75,6,6,0,0,0,.2,1.68,2.8,2.8,0,0,0,.4.92,2.1,2.1,0,0,0,1.26.87,2,2,0,0,0,1.09-.09A2.83,2.83,0,0,0,57.31,35.45Z"/><path class="cls-4" d="M79.3,29.81a.3.3,0,0,1,.19.14.27.27,0,0,1,0,.23,2.25,2.25,0,0,0-.08.24.07.07,0,0,0,0,0,17.43,17.43,0,0,1-1.26,2.91,9.37,9.37,0,0,1-2.83,3.19,2.86,2.86,0,0,1-1.31.48,2.24,2.24,0,0,1-1.21-.19,2.7,2.7,0,0,1-1.2-1.2,11.15,11.15,0,0,1-1.05-3.47,10.88,10.88,0,0,1-1.3,3.1,3.85,3.85,0,0,1-1,1,2.46,2.46,0,0,1-1.95.49c-.71-.11-1.34-.73-1.92-1.86a15.78,15.78,0,0,1-1.14-5.58c-.05-.9-.06-1.68,0-2.35a2.25,2.25,0,0,1,.12-.71,2.06,2.06,0,0,1,.43-.78,1.74,1.74,0,0,1,.6-.41A2.13,2.13,0,0,1,65,25a2.55,2.55,0,0,1,.47,0l.2,0v.09s0,.21-.06.55-.07.83-.12,1.43c-.11,1.24-.15,2.67-.13,4.31,0,.4,0,.79.07,1.18a5.9,5.9,0,0,0,.94,2.85,1.31,1.31,0,0,0,1,.49,1.38,1.38,0,0,0,1-.49,12,12,0,0,0,1.87-4.84l0-.26c-.06-.91-.09-1.69-.08-2.34a1.93,1.93,0,0,1,.1-.63,1.32,1.32,0,0,1,.42-.65,1.51,1.51,0,0,1,.59-.33,2.18,2.18,0,0,1,.6-.09,3.17,3.17,0,0,1,.65.05s0,.09,0,.22a4.89,4.89,0,0,1,0,.49c0,.2,0,.39,0,.59s0,.37,0,.51a44.93,44.93,0,0,0,0,5.19,5.05,5.05,0,0,0,.74,2.44,1.35,1.35,0,0,0,1,.59A1.32,1.32,0,0,0,75,36.1a8.45,8.45,0,0,0,2.69-3,16,16,0,0,0,1.21-2.84v0A2.25,2.25,0,0,0,79,30a.34.34,0,0,1,.14-.17A.26.26,0,0,1,79.3,29.81Z"/><path class="cls-5" d="M92.52,29.81a.29.29,0,0,1,.18.16.33.33,0,0,1,0,.24,19,19,0,0,1-2.76,4.24,10.35,10.35,0,0,1-3.77,2.94,7.36,7.36,0,0,1-1.79.26,4.45,4.45,0,0,1-1.67-.36A4.63,4.63,0,0,1,81,36a10.24,10.24,0,0,1-1.73-3.38,20.94,20.94,0,0,1-.72-3.69,58.88,58.88,0,0,1-.5-6.46q-.14-5.49.11-10l0-.59c0-.08,0-.33,0-.74s.06-.9.11-1.47q-5.53-.84-7.57.71a4.18,4.18,0,0,0-1.5,3.23.32.32,0,0,1-.1.19.26.26,0,0,1-.19.07h0a.28.28,0,0,1-.2-.1.31.31,0,0,1-.07-.21,4.67,4.67,0,0,1,1.73-3.65c1.47-1.14,4.12-1.42,8-.82.09-1.19.16-2.21.21-3.08a3,3,0,0,1,.57-1.33A2.77,2.77,0,0,1,80,3.94a4.61,4.61,0,0,1,1.18-.34c-.09,1.05-.16,1.94-.22,2.68s-.12,1.46-.19,2.16c0,.32,0,.66-.08,1a32.55,32.55,0,0,0,5.41.34,10.87,10.87,0,0,0,3.2-.52,3.7,3.7,0,0,0,1.56-.95,2.26,2.26,0,0,0,.36-.53,1.84,1.84,0,0,0,.14-.46,2.2,2.2,0,0,0,0-.45.3.3,0,0,1,0-.23.35.35,0,0,1,.18-.13.33.33,0,0,1,.22,0,.32.32,0,0,1,.13.18,1.84,1.84,0,0,1,0,.32,2.82,2.82,0,0,1-.12.73,2.6,2.6,0,0,1-.55.92,5.73,5.73,0,0,1-3.27,1.46,25.92,25.92,0,0,1-7.39-.15c0,.68-.11,1.42-.16,2.22l0,.58q-.14,1.83-.24,4c-.1,1.71-.17,3.54-.2,5.48s0,3.93.1,6a1.48,1.48,0,0,1,0,.21c0,.92.13,1.89.26,2.91a10.66,10.66,0,0,0,.78,2.88A5.28,5.28,0,0,0,83,36.5a3.12,3.12,0,0,0,1.3.5,5.09,5.09,0,0,0,1.66-.14A10,10,0,0,0,89.55,34a18.39,18.39,0,0,0,2.62-4,.32.32,0,0,1,.14-.14A.26.26,0,0,1,92.52,29.81Z"/><path class="cls-6" d="M134.77,30a.27.27,0,0,1,.14.19.43.43,0,0,1,0,.25c-1.46,3.06-2.79,5.58-4,7.56a14,14,0,0,1-3.33,4.11,5.35,5.35,0,0,1-.85.44,3,3,0,0,1-3.08-.72,5.46,5.46,0,0,1-1.23-2,18.3,18.3,0,0,1-1.28-6.66,31,31,0,0,1-3,3.81A18.88,18.88,0,0,1,114.67,40v0a6.91,6.91,0,0,1-1.94.82,6.5,6.5,0,0,1-2.55.2,3.68,3.68,0,0,1-2.24-1.14h0a8.08,8.08,0,0,1-1.47-2.36,15.68,15.68,0,0,1-.82-2.69,22.3,22.3,0,0,1-.44-2.29c-.1-.71-.16-1.25-.2-1.62a55.17,55.17,0,0,1,0-8.72q.18-2.21.51-4.38a74.55,74.55,0,0,1,1.58-8c.22-.81.43-1.55.65-2.22a14.53,14.53,0,0,1-3.41.41h0a13.26,13.26,0,0,1-4.19-.68,11.29,11.29,0,0,1-4.48-2.86.3.3,0,0,1-.08-.23A.28.28,0,0,1,95.68,4a.34.34,0,0,1,.2,0,.3.3,0,0,1,.18.08,10.71,10.71,0,0,0,4.26,2.72,12.46,12.46,0,0,0,4,.64A15,15,0,0,0,107.93,7c.1-.32.18-.55.24-.71a22,22,0,0,1,1.25-2.88,15,15,0,0,1,1.15-1.86,5.84,5.84,0,0,1,.68-.81,2.71,2.71,0,0,1,1-.62A1.91,1.91,0,0,1,113.4.06a2.47,2.47,0,0,1,.55.26,2,2,0,0,1,.74,1.47,3.44,3.44,0,0,1-1,2.75,11.17,11.17,0,0,1-4.21,2.55c-.16.77-.34,1.81-.53,3.12q-.56,3.72-1,7.47a3.12,3.12,0,0,0,0,.44c-.16,1.41-.3,2.84-.41,4.27a80.4,80.4,0,0,0-.3,8.39.57.57,0,0,1,0,.13c0,.38,0,.89,0,1.54s.09,1.32.18,2a15.5,15.5,0,0,0,.46,2.52,6.54,6.54,0,0,0,1.11,2.28,2.92,2.92,0,0,0,2.54,1.08,5.91,5.91,0,0,0,2.73-.91A19.31,19.31,0,0,0,118,36.24a32.8,32.8,0,0,0,3.14-4.2c0-.72,0-1.44.11-2.15a41.23,41.23,0,0,1,2.44-10.57,13.56,13.56,0,0,1,1.21-2.54,4.67,4.67,0,0,1,1-1.17,1.73,1.73,0,0,1,.68-.35.92.92,0,0,1,.37,0,1.09,1.09,0,0,1,.65.46q1,1.55-1,6.75-1.09,2.84-2.65,5.94c-.06.57-.12,1.15-.17,1.73-.09.94-.16,1.87-.2,2.79,0,.45,0,.89,0,1.33a27.11,27.11,0,0,0,.06,2.85,13.3,13.3,0,0,0,.51,2.79,4.68,4.68,0,0,0,.74,1.64,2.61,2.61,0,0,0,.34.32,1.61,1.61,0,0,0,.77.23,1.68,1.68,0,0,0,.65-.1,2.8,2.8,0,0,0,.6-.36,14.16,14.16,0,0,0,3.23-4.06q1.75-3,3.87-7.38a.28.28,0,0,1,.2-.18A.42.42,0,0,1,134.77,30ZM110.31,3.78c-.24.79-.47,1.68-.68,2.67a10.76,10.76,0,0,0,3.65-2.3,2.87,2.87,0,0,0,.84-2.31,1.32,1.32,0,0,0-.5-1,1.06,1.06,0,0,0-.35-.18,1.55,1.55,0,0,0-1.56.5,4.64,4.64,0,0,0-.59.79A9.2,9.2,0,0,0,110.31,3.78Zm14.11,20.78q-.12.93-.24,1.89,1-2.2,1.83-4.24a24.4,24.4,0,0,0,1.1-3.48,6.64,6.64,0,0,0,.18-1.89,1.56,1.56,0,0,0-.22-.77.51.51,0,0,0-.15-.14.45.45,0,0,0-.27-.07.56.56,0,0,0-.35.18,2.25,2.25,0,0,0-.39.46,4.65,4.65,0,0,0-.49,1.3,12.69,12.69,0,0,0-.25,1.37c0,.17,0,.35-.07.52s0,.24-.06.42c-.09.52-.19,1.16-.29,1.94s-.18,1.3-.25,1.84C124.47,24.17,124.44,24.39,124.42,24.56Z"/><path class="cls-7" d="M144.91,29.81a.29.29,0,0,1,.29.32,5.51,5.51,0,0,1-1.54,3.08,13.32,13.32,0,0,1-2.62,2,13.24,13.24,0,0,1,.63,1.45,8.39,8.39,0,0,1,.49,2.86,4,4,0,0,1-1,2.64,4,4,0,0,1-1.58,1.1,2.79,2.79,0,0,1-1.33.14,2.42,2.42,0,0,1-1.6-.87,3.28,3.28,0,0,1-.65-1.4,4.09,4.09,0,0,1,.21-2,5.82,5.82,0,0,1,1.1-1.82,8.29,8.29,0,0,1,1.54-1.35c-.15-.24-.31-.46-.47-.68a24.89,24.89,0,0,0-3.07-3.33c-.2-.21-.38-.42-.57-.63A8.62,8.62,0,0,1,133,27.89a5.8,5.8,0,0,1,.23-3.77,5,5,0,0,1,2-2.28,3,3,0,0,1,1.92-.39,3.55,3.55,0,0,1,1.11.3,3.35,3.35,0,0,1,1.12.82,2.82,2.82,0,0,1,.68,1.79,4.28,4.28,0,0,1-1.19,3.25,5,5,0,0,1-1.47,1,6.58,6.58,0,0,1-1.52.47l1.63,1.62L138.71,32c.38.4.65.7.8.89l0,.06.31.41q.21.27.42.57c.15.2.27.38.37.53s.14.24.13.26a12.87,12.87,0,0,0,2.46-1.85,4.93,4.93,0,0,0,1.4-2.76.27.27,0,0,1,.1-.19A.24.24,0,0,1,144.91,29.81ZM134.3,25a5.94,5.94,0,0,0,1,3.29l.13.17,0,.08a6.52,6.52,0,0,0,1.5-.41,4.44,4.44,0,0,0,1.47-.94,3.77,3.77,0,0,0,1-2.83,2.29,2.29,0,0,0-.53-1.44,2.94,2.94,0,0,0-1.42-.94,2.34,2.34,0,0,0-2.73,1.22A4.36,4.36,0,0,0,134.3,25Zm6.21,15.33a4.49,4.49,0,0,0-.2-1.5,9.38,9.38,0,0,0-.58-1.42c-.17-.36-.36-.71-.56-1.06a8.53,8.53,0,0,0-1.42,1.25,5.33,5.33,0,0,0-1,1.63,3.35,3.35,0,0,0-.19,1.73,2.35,2.35,0,0,0,1.12,1.65,1.47,1.47,0,0,0,.86.22,1.75,1.75,0,0,0,.68-.21,1.49,1.49,0,0,0,.41-.32,3,3,0,0,0,.73-1.29A4.07,4.07,0,0,0,140.51,40.35Z"/></g></g></svg>