<svg xmlns="http://www.w3.org/2000/svg" xmlns:xlink="http://www.w3.org/1999/xlink" viewBox="0 0 136.79 72.56"><defs><style>.cls-1{fill:url(#New_Gradient_Swatch_copy_11);}.cls-2{fill:url(#New_Gradient_Swatch_copy_11-2);}</style><linearGradient id="New_Gradient_Swatch_copy_11" x1="30.17" y1="-3.46" x2="185.26" y2="177.18" gradientUnits="userSpaceOnUse"><stop offset="0" stop-color="#914e3d"/><stop offset="0.05" stop-color="#9e5d4c"/><stop offset="0.1" stop-color="#b27362"/><stop offset="0.16" stop-color="#c48776"/><stop offset="0.28" stop-color="#f1baa9"/><stop offset="0.3" stop-color="#fac4b3"/><stop offset="0.5" stop-color="#f4b5a5"/><stop offset="1" stop-color="#946051"/></linearGradient><linearGradient id="New_Gradient_Swatch_copy_11-2" x1="15.23" y1="9.37" x2="170.31" y2="190.01" xlink:href="#New_Gradient_Swatch_copy_11"/></defs><title>Crown-logo</title><g id="Layer_2" data-name="Layer 2"><g id="Layer_1-2" data-name="Layer 1"><path class="cls-1" d="M132.79,26.14a18.73,18.73,0,0,0-12.58-7.09,18.05,18.05,0,0,0-3.12,0A30,30,0,0,0,104.31,6.92c-9.92-4.74-22.58-2.61-30,4.71a7,7,0,0,0,1.47-4.75,7.29,7.29,0,0,0-1.85-4.25A6.42,6.42,0,0,0,71.36.78C68.8-.18,66.53-.3,64.58.67a7.92,7.92,0,0,0-4,4.2,7.11,7.11,0,0,0,.14,5.27A27.57,27.57,0,0,0,32.41,6.92,30,30,0,0,0,19.63,19a17.25,17.25,0,0,0-3.05,0A18.71,18.71,0,0,0,4,26.14,21.32,21.32,0,0,0,.33,42.51,29.11,29.11,0,0,0,7.59,56.8c-.63-.61-1.27-1.27-1.91-2l8.55,12v1.15l54.15-.18,54.16-.17v-.82l8.53-12c-.51.57-1,1.09-1.51,1.59a29,29,0,0,0,6.9-13.89A21.31,21.31,0,0,0,132.79,26.14ZM103.67,8.25a28.34,28.34,0,0,1,11.84,10.94,18.8,18.8,0,0,0-8.64,3.72,26.39,26.39,0,0,0-18.8-10.62,26.1,26.1,0,0,0-12.55,2.27A15.2,15.2,0,0,0,74.05,14C80.84,6,93.71,3.49,103.67,8.25Zm4.69,54.1A15.27,15.27,0,0,1,104.21,59l.41-.67c2.58-4.28,5.24-8.71,6.49-13.71a26.42,26.42,0,0,0-3.4-20.5,17.17,17.17,0,0,1,8.58-3.56,31.62,31.62,0,0,1,3.86,14.57C120.29,45,115.92,54.93,108.36,62.35ZM16.57,35.13a31.53,31.53,0,0,1,3.86-14.58,17.24,17.24,0,0,1,8.66,3.57,26.42,26.42,0,0,0-3.41,20.5c1.25,5,3.92,9.43,6.49,13.71l.44.71a9.63,9.63,0,0,1-4.11,3.44C20.85,55.05,16.42,45,16.57,35.13ZM68.4,14.56c7.39,0,14,5,16.89,12.6l.17.52A22.75,22.75,0,0,1,85,43.93c-1.58,5.11-4.52,9.9-9.22,14.9a18.56,18.56,0,0,1-3.67-4.6,41.53,41.53,0,0,1-1.89-4.33c-.12-.37-.23-.75-.33-1.15-.26-1.14-.27-2.16-.74-3.76L75,48.38a68.88,68.88,0,0,1-.08-8.5,36.28,36.28,0,0,0-5.45,3.19,23.42,23.42,0,0,1,3.17-5.62q-4.14-.11-8.28.08c.52.78,1,1.56,1.51,2.36A14,14,0,0,1,67.2,42c.09.24.51,1,.41,1.08s-1.3-.69-1.6-.82c-.71-.31-1.35-.77-2-1.13-.24-.12-1.93-.88-1.93-1.12v8.43l5.63-3.28a57.37,57.37,0,0,1-2.87,8.72,20.38,20.38,0,0,1-3.93,4.76c-4.63-5-7.53-9.71-9.11-14.82a22.79,22.79,0,0,1-.43-16.19l.15-.48C54.37,19.52,61,14.56,68.4,14.56ZM64,13.65l.17-.13-.06-.06.22.1Zm8-.18a6,6,0,0,0,1.12-.68c.13-.1.24-.21.36-.32-.31.34-1.13,1.19-1.42,1.55l.65-.37C72.45,13.59,72.22,13.51,72,13.47ZM103.22,57.8c-.13-.18-.27-.34-.41-.53a14.35,14.35,0,0,1-1.68-3.05,4.57,4.57,0,0,1,2.06-2.93,3,3,0,0,1,3.56.37c-1,2-2.23,4-3.39,5.91C103.32,57.65,103.27,57.72,103.22,57.8Zm-69.79-.23c-1.17-1.94-2.35-3.92-3.41-6a3,3,0,0,1,3.51-.32,4.57,4.57,0,0,1,2.06,3,14.81,14.81,0,0,1-1.67,3l-.37.5Zm73.39-6A4.94,4.94,0,0,0,105,48.85a4.88,4.88,0,0,0-3.45-.86,5.67,5.67,0,0,0-1.84-5.11l-.24-.2-.24.2A5.64,5.64,0,0,0,97.36,48a4.88,4.88,0,0,0-3.45.86,4.93,4.93,0,0,0-2,3,3,3,0,0,1,3.73-.54,4.59,4.59,0,0,1,2.06,2.94,15.26,15.26,0,0,1-1.59,3,15.66,15.66,0,0,1-8.27,5.78A8.18,8.18,0,0,1,83.56,63a17.27,17.27,0,0,1-6.66-3.21c4.83-5.14,7.86-10.07,9.48-15.34a24.29,24.29,0,0,0,.47-17.21l-.17-.53a21.29,21.29,0,0,0-9.42-11.25,24.11,24.11,0,0,1,10.68-1.67,24.62,24.62,0,0,1,21.75,30.51A34,34,0,0,1,106.82,51.52ZM50.11,26.7l-.16.5a24.23,24.23,0,0,0-1.36,8,23.86,23.86,0,0,0,1.8,9.16C52,49.62,55,54.53,59.77,59.63a25.65,25.65,0,0,1-4.69,2.95,14,14,0,0,1-6.66.33,14.41,14.41,0,0,1-7.85-5.64A14.9,14.9,0,0,1,39,54.21,4.53,4.53,0,0,1,41,51.29a3,3,0,0,1,3.72.54A4.86,4.86,0,0,0,39.36,48a5.67,5.67,0,0,0-1.84-5.11l-.24-.2-.24.2A5.64,5.64,0,0,0,35.2,48a4.88,4.88,0,0,0-3.45.86,4.81,4.81,0,0,0-1.82,2.58,33.32,33.32,0,0,1-2.82-7.16A24.61,24.61,0,0,1,48.85,13.76a24.13,24.13,0,0,1,10.69,1.67A21.31,21.31,0,0,0,50.11,26.7ZM62,5.38a6.27,6.27,0,0,1,3.45-3.5A6.7,6.7,0,0,1,72.79,3.6,5.94,5.94,0,0,1,74.28,7a5.44,5.44,0,0,1-2.07,4.62c-1.5,1.14-3.22,1.08-5.22,1h-.22a5.37,5.37,0,0,1-4.34-2.43A5.57,5.57,0,0,1,62,5.38ZM33,8.25C43,3.48,55.9,6,62.68,14c-.47.16-.94.33-1.41.53a26.08,26.08,0,0,0-12.55-2.27,26.41,26.41,0,0,0-18.8,10.62,18.67,18.67,0,0,0-8.71-3.73A28.41,28.41,0,0,1,33,8.25ZM5.17,27a17.18,17.18,0,0,1,11.57-6.53,16.22,16.22,0,0,1,2.09-.07A33.13,33.13,0,0,0,15.1,35.11C15,45.17,19.34,55.37,27,63l-.3.09s-9.27,2.74-17.62-7l.35.53-.17-.18A27.92,27.92,0,0,1,1.78,42.26,19.83,19.83,0,0,1,5.17,27ZM135,42.26a28,28,0,0,1-7.44,14.17A45.12,45.12,0,0,1,120,62.87c-4.93,1.82-8.25.83-8.25.83a17.67,17.67,0,0,1-1.94-.68c7.62-7.66,12-17.85,11.86-27.91a33.13,33.13,0,0,0-3.73-14.67,15.54,15.54,0,0,1,2.16.07A17.16,17.16,0,0,1,131.62,27,19.83,19.83,0,0,1,135,42.26Z"/><path class="cls-2" d="M16.2,70.83l0,1.46c14.83.18,29.76.27,44.7.27,20,0,40.11-.16,60-.48l0-1.47C86.15,71.18,50.93,71.25,16.2,70.83Z"/></g></g></svg>