<svg xmlns="http://www.w3.org/2000/svg" viewBox="0 0 353.97 152.06"><defs><style>.cls-1{fill:#e0ccbf;}</style></defs><title>why-us-illustration</title><g id="Layer_2" data-name="Layer 2"><g id="Layer_1-2" data-name="Layer 1"><path class="cls-1" d="M69.59,106.67c.75-.12,1.48-.25,2.19-.3l1.07-.09h1.2a12.49,12.49,0,0,1,4.31,1A13.66,13.66,0,0,1,84,111.72a12.25,12.25,0,0,1,2.49,8.89,8.54,8.54,0,0,1-.77,2.57,4.08,4.08,0,0,1-.94,1.39c-.62.6-1.08.67-1.45.52a1.43,1.43,0,0,1-.83-1.1c-.16-.63-.16-1.61-.37-3.06a11.28,11.28,0,0,0-2.26-5.56,9.27,9.27,0,0,0-3.52-2.78,7.56,7.56,0,0,0-2.51-.67,16.57,16.57,0,0,0-3.36.19,12.49,12.49,0,0,0-8.07,4.15,12.63,12.63,0,0,0-2.3,4.47,22.52,22.52,0,0,0-.75,5.59A20.62,20.62,0,0,0,63,137.66a24,24,0,0,0,9.88,8.25A24.51,24.51,0,0,0,86,148.06a25.66,25.66,0,0,0,12.43-5.5,26.29,26.29,0,0,0,8.09-10.88,21.85,21.85,0,0,0,1.51-6.47,33.67,33.67,0,0,0-.33-6.7A40.76,40.76,0,0,0,96.64,96a38.33,38.33,0,0,0-4.34-3.8l-4.56-3.31a88.61,88.61,0,0,0-8.45-5.39A94.45,94.45,0,0,0,66,77.6c-3.26-1.19-5.08-1.84-5-2s2,.15,5.34,1.06a74.18,74.18,0,0,1,13.89,5.24A85.34,85.34,0,0,1,89,87.08c1.54,1,3.09,2.1,4.69,3.22a40.06,40.06,0,0,1,4.73,3.93,43.2,43.2,0,0,1,12.33,23.85,35.64,35.64,0,0,1,.49,7.36,25.06,25.06,0,0,1-1.59,7.42,30.21,30.21,0,0,1-23,18.94,29.12,29.12,0,0,1-27.26-11.7,25.43,25.43,0,0,1-4.69-13.75,27.4,27.4,0,0,1,.74-7,17.67,17.67,0,0,1,3-6.31A18,18,0,0,1,69.59,106.67Z"/><path class="cls-1" d="M89.64,35.27a12.77,12.77,0,0,0-1.12,7,16.07,16.07,0,0,0,1.64,5.64,14.66,14.66,0,0,0,5,5.85l1.09.69q.53.22,1,.45a15.59,15.59,0,0,0,1.42.66c.74.36,1,.71,1,1s-.18.61-1,.83a7.36,7.36,0,0,1-4.53-.34,14.81,14.81,0,0,1-7.69-6.57A20.18,20.18,0,0,1,84,43.15a16.54,16.54,0,0,1,1.7-9.95c2.29-4.36,7-7.34,12.11-8.3a23.59,23.59,0,0,1,15.73,2.9,20,20,0,0,1,6.39,5.82c.81,1.22,1.5,2.47,2.18,3.75a24.24,24.24,0,0,1,1.49,4.16,21.49,21.49,0,0,1,.47,8.93,26.2,26.2,0,0,1-3,8.5,35.78,35.78,0,0,1-5.43,7.18,42.51,42.51,0,0,1-7,5.67,40.92,40.92,0,0,1-8.11,4,38.16,38.16,0,0,1-4.26,1.45l-2.17.64-2.2.47a54.32,54.32,0,0,1-17.83.77,55.3,55.3,0,0,1-16.67-4.82,60.44,60.44,0,0,1-24.1-20.29A59,59,0,0,1,26.8,41.91a56.31,56.31,0,0,1-3.07-11.57,50.74,50.74,0,0,1,.38-17.17,33.07,33.07,0,0,1,1.16-4.52c.32-1,.53-1.54.61-1.51a4.72,4.72,0,0,1-.18,1.62c-.18,1-.54,2.56-.76,4.55a54.68,54.68,0,0,0,.27,16.81,56.09,56.09,0,0,0,3.23,11.17A57.93,57.93,0,0,0,34.94,53,58.68,58.68,0,0,0,58.41,72.18a53.09,53.09,0,0,0,16,4.41,51.78,51.78,0,0,0,16.91-.93l2.08-.48,2-.62a35.71,35.71,0,0,0,4-1.43A37.25,37.25,0,0,0,107,69.27,38.78,38.78,0,0,0,113.38,64a33.21,33.21,0,0,0,4.83-6.56,23,23,0,0,0,2.5-7.45,18.09,18.09,0,0,0-.52-7.55,21.34,21.34,0,0,0-1.32-3.52c-.61-1.08-1.24-2.19-1.93-3.19A16.25,16.25,0,0,0,111.62,31a19.51,19.51,0,0,0-13-2.14C94.51,29.74,91.07,32.22,89.64,35.27Z"/><path class="cls-1" d="M169,14.48a15.67,15.67,0,0,0-2.42,7.31,20,20,0,0,0,.52,6.27,19.43,19.43,0,0,0,3.67,7.58c.33.38.62.74.89,1.08s.56.58.8.85c.46.55.86.94,1.15,1.28.58.7.72,1.22.58,1.59s-.48.63-1.39.59a8.6,8.6,0,0,1-4.55-1.89,18,18,0,0,1-6.3-9,21.56,21.56,0,0,1-1.1-8.41,19.82,19.82,0,0,1,3.56-10.4,22.62,22.62,0,0,1,13.34-8.73A27.85,27.85,0,0,1,195.15,4a28.14,28.14,0,0,1,13.6,12.71,34.57,34.57,0,0,1,4,18.72,39.38,39.38,0,0,1-6.32,18.43A53.13,53.13,0,0,1,192.93,68c-10.63,7.63-23.08,11.6-34.83,14.19a170.54,170.54,0,0,1-61.62,2.28A147.91,147.91,0,0,1,78.13,80.6c-4.26-1.23-6.55-2.09-6.5-2.26.13-.51,9.5,2.42,25.09,4.3a175,175,0,0,0,60.68-3.39c11.53-2.71,23.51-6.76,33.41-14.09a49.07,49.07,0,0,0,12.37-13.3,35.42,35.42,0,0,0,5.47-16.68,30.23,30.23,0,0,0-3.78-16.39A23.47,23.47,0,0,0,193.33,8.35a22.73,22.73,0,0,0-14.28-.81A17.08,17.08,0,0,0,169,14.48Z"/><path class="cls-1" d="M258.81,72.63a16,16,0,0,1-5.68-10.3,11.13,11.13,0,0,1,1.19-7,5.18,5.18,0,0,1,2.44-2.45,1.28,1.28,0,0,1,1.4.1,1.56,1.56,0,0,1,.58,1.15,3.34,3.34,0,0,1-.06,1,10.72,10.72,0,0,1-.19,1.4,15.64,15.64,0,0,0,.06,4.73,13.54,13.54,0,0,0,4,7.33,9.57,9.57,0,0,0,6.18,2.61A13.55,13.55,0,0,0,276.41,69a15.07,15.07,0,0,0,5.84-6.6,15.63,15.63,0,0,0,.86-9.36,21,21,0,0,0-4.37-9.16,23.44,23.44,0,0,0-8.35-6.36c-6.54-3.05-14.15-3.67-21.18-3.06a67.15,67.15,0,0,0-33.76,12.69c-7.6,5.56-11.2,10.31-11.59,10-.15-.11.63-1.38,2.31-3.48a55.66,55.66,0,0,1,8.13-7.95A66.72,66.72,0,0,1,248.9,31.5c7.37-.8,15.51-.4,23,2.87a27.05,27.05,0,0,1,9.81,7.16,25.13,25.13,0,0,1,5.45,10.76,20,20,0,0,1-.82,11.87A19.74,19.74,0,0,1,279,73a18.69,18.69,0,0,1-10.47,3.23A15.33,15.33,0,0,1,258.81,72.63Z"/><path class="cls-1" d="M304.62,23.05a3.52,3.52,0,0,0-.27,1.51,6.11,6.11,0,0,0,.22,1.27c.24.75.48,1.28.66,1.74a5.19,5.19,0,0,1,.58,2.57,1.38,1.38,0,0,1-.58,1,2.48,2.48,0,0,1-2.17.11,6.26,6.26,0,0,1-3.44-3,7.9,7.9,0,0,1,.15-7.92,11.1,11.1,0,0,1,11.43-4.89,14.26,14.26,0,0,1,10.4,8.67c1.92,4.59.93,9.79-1.47,13.68A19.74,19.74,0,0,1,309.87,46a29,29,0,0,1-11.55,1.56,42.87,42.87,0,0,1-9.16-1.61c-5-1.46-8-2.81-7.85-3.15s3.24.38,8.25,1.35a49.23,49.23,0,0,0,8.81.93,27,27,0,0,0,10.36-1.89A16.45,16.45,0,0,0,317.05,36c1.83-3.24,2.28-7.28.77-10.34a9.66,9.66,0,0,0-7.34-5.6C307.7,19.73,305.2,21.45,304.62,23.05Z"/><path class="cls-1" d="M342.91,39a6.61,6.61,0,0,1-3.29-1.85,6.45,6.45,0,0,1-1.51-2.52,4.92,4.92,0,0,1,.28-3.86A2.16,2.16,0,0,1,340,29.55a1.64,1.64,0,0,1,1.19.39,6.65,6.65,0,0,1,1.44,1.7c.21.29.38.59.65,1a4.52,4.52,0,0,0,.49.61,1.87,1.87,0,0,0,.73.46,3.7,3.7,0,0,0,3.9-1.28,6.39,6.39,0,0,0,.86-6,8.13,8.13,0,0,0-5.36-4.78,12.15,12.15,0,0,0-7.92.24c-5.17,1.85-8.74,6-11.08,9s-3.78,5.08-4.14,4.87.56-2.46,2.58-5.9a32.77,32.77,0,0,1,4.25-5.65,22,22,0,0,1,7.25-5.11,15.37,15.37,0,0,1,10-.81,12.05,12.05,0,0,1,8.2,6.71,10.9,10.9,0,0,1-.9,10.33A9,9,0,0,1,342.91,39Z"/><path class="cls-1" d="M141.47,125.84a10.11,10.11,0,0,1,1.41-9.81,8.37,8.37,0,0,1,5-3.28,3.79,3.79,0,0,1,2.93.41,1.29,1.29,0,0,1,.62,1.18c0,.83-.55,1.41-1.74,2.31a9.9,9.9,0,0,0-2.15,2.36,7.65,7.65,0,0,0-.94,2.22,5.76,5.76,0,0,0,.13,2.94c.77,2.8,4.2,5.87,8.42,6.08s9.19-2.05,12.09-6.13,3.41-9.81,1.71-14.9a24.08,24.08,0,0,0-9.71-12.53,39.28,39.28,0,0,0-14-5.74,71.16,71.16,0,0,0-12.69-1.32c-7.34-.1-12,.14-12-.3s4.49-1.17,12-1.54a64.84,64.84,0,0,1,13.17.72,41.2,41.2,0,0,1,15.28,5.67,29.72,29.72,0,0,1,6.79,5.89,26.6,26.6,0,0,1,4.62,8.05c2.12,5.85,2,12.93-1.71,18.31A18.89,18.89,0,0,1,155,134.94,14.8,14.8,0,0,1,141.47,125.84Z"/><path class="cls-1" d="M137.92,60.12s-.7.89-2.09,2.44a47.25,47.25,0,0,1-6.51,6.07,42.43,42.43,0,0,1-12,6.43,43.78,43.78,0,0,1-17.64,2.36,24.35,24.35,0,0,0,11.92-3.15,21,21,0,0,0,7.91-7.78c1.49-2.65,2.14-5.44,4-7.15A6.92,6.92,0,0,1,132,59.2c-.25-1.62.85-2.71,2.26-3.52s3.12-1.24,4.58-2.2a10,10,0,0,0,3.31-4.34,23.45,23.45,0,0,0,.46,5.7c.41,1.8,1.18,3.57,1.22,5.56s-.82,4.14-2.63,4.9c1.65.66,2.47,2.35,2.4,4.46a10.19,10.19,0,0,1-2.83,6.3c-3.43,3.56-8.34,4.85-12.69,5.45a66,66,0,0,1-28.62-2.34,34.71,34.71,0,0,0,19-1A32.87,32.87,0,0,0,131,70.48a30.9,30.9,0,0,0,5.59-7.42A22.44,22.44,0,0,0,137.92,60.12Z"/><path class="cls-1" d="M129.81,110.7a29,29,0,0,0-1.78-2.56,51.35,51.35,0,0,0-6-6.6,59.13,59.13,0,0,0-11.23-8.23A59.88,59.88,0,0,0,93.9,86.9c8.47,1.11,17.26,2.37,26.28,4,3.81.73,8,1.6,11.09,4.39s3.94,8,.91,9.86a4.43,4.43,0,0,1,3.21,3.89,34.69,34.69,0,0,1,.06,5.39,16.1,16.1,0,0,0,1.3,5.29,11.32,11.32,0,0,0-4.5-2.94c-1.65-.53-3.43-.53-5-1s-3-1.45-3-3.14c-2.21,2.71-6.61,2.33-8.87.42s-3.38-5-4.86-8a37.49,37.49,0,0,0-17-16.48,120.94,120.94,0,0,1,27.09,14.83c3,2.17,5.32,4,6.91,5.31Z"/><path class="cls-1" d="M244.07,24.52h-.61a15.13,15.13,0,0,0-1.77.06A31.71,31.71,0,0,0,235,25.73a34.83,34.83,0,0,0-9.61,4.43,32.67,32.67,0,0,0-9.56,9.76A62.94,62.94,0,0,1,228,24.63,18.56,18.56,0,0,1,235.49,20c3.12-.81,6.65.22,6.34,2a4.66,4.66,0,0,1,3.86-.21A20.3,20.3,0,0,1,249,23.45a21.55,21.55,0,0,0,3.8,1.37,10,10,0,0,0-3.89.61c-1.09.43-1.93,1.13-3,1.62a4.28,4.28,0,0,1-3.32.36c.6,1.67-1.66,3.44-3.84,4.07s-4.5.58-6.83.83a24.56,24.56,0,0,0-15.34,8.11A43.54,43.54,0,0,1,235.41,26.9a49.86,49.86,0,0,1,6.34-1.9c.75-.21,1.33-.28,1.72-.36Z"/><path class="cls-1" d="M214.78,6.83l.18.54c.11.36.33.86.51,1.56a42.59,42.59,0,0,1,1.4,6,38.29,38.29,0,0,1-2.69,21.44,21.29,21.29,0,0,0-.38-16.12c-.92-2-2.09-3.76-2.57-5.81s0-4.65,1.73-5a3.65,3.65,0,0,1-1.27-2.81c-.07-1.08.14-2.11,0-3.21A8.66,8.66,0,0,0,210.33,0a19.58,19.58,0,0,0,3,2.34,19.27,19.27,0,0,1,3,1.8,4.19,4.19,0,0,1,1.69,3.23c1.4-1.14,4,1.23,4.83,4.18s.22,5.8-.41,8.38A55.5,55.5,0,0,1,215,36.8a28.72,28.72,0,0,0,3.89-12.22,30.81,30.81,0,0,0-.78-9.87,28.23,28.23,0,0,0-2.21-5.94,15.06,15.06,0,0,0-.8-1.45Z"/><path class="cls-1" d="M316.51,55.18s-.69.2-2,.49a28.17,28.17,0,0,1-5.66.69,26.75,26.75,0,0,1-8.64-1.22,27.33,27.33,0,0,1-9.93-5.57,16.22,16.22,0,0,0,14.26,3c1.85-.55,3.43-1.46,5.18-1.67s4,.53,4.37,2.26a3,3,0,0,1,2.59-1c1,0,1.95.27,3,.22a7.14,7.14,0,0,0,3.21-1.14,19.29,19.29,0,0,0-2.13,2.81,17.21,17.21,0,0,1-1.71,2.85,3.69,3.69,0,0,1-3.16,1.4c1.07,1.47-1.35,3.91-4.37,4.36a14.19,14.19,0,0,1-8.14-1.61,38.37,38.37,0,0,1-13.75-10.89,22.7,22.7,0,0,0,10.07,6.51,21.78,21.78,0,0,0,9.24.89,20.65,20.65,0,0,0,5.7-1.51A16.28,16.28,0,0,0,316.51,55.18Z"/><path class="cls-1" d="M55.81,48.12s-1.41-.5-3.9-1.7A43.85,43.85,0,0,1,42.06,40,39.11,39.11,0,0,1,31.62,25.53,40.48,40.48,0,0,1,29,2.59a27.69,27.69,0,0,0,2.73,15.65,24.7,24.7,0,0,0,9.6,10.38c3.32,1.86,6.71,2.57,9.47,4.45a10.48,10.48,0,0,1,3.42,4A5.12,5.12,0,0,1,54.42,42c1.91-.51,3.75.42,5.37,1.59a49.54,49.54,0,0,0,4.75,3.82A14.09,14.09,0,0,0,71.42,49a59.29,59.29,0,0,0-7,2.4c-2.1.92-4,2.14-6.47,2.62s-5.49,0-7.19-1.68c-.12,1.78-1.85,2.89-4.44,3.09A15.15,15.15,0,0,1,37.67,53,23.37,23.37,0,0,1,31,46.42a35.76,35.76,0,0,1-3.87-7.92,54,54,0,0,1,.07-36.34,36.3,36.3,0,0,0,1.36,24.61,35.07,35.07,0,0,0,23,20.46A25.93,25.93,0,0,0,55.81,48.12Z"/><path class="cls-1" d="M162.85,86.86a19,19,0,0,1,10.61-5.75,19.51,19.51,0,0,1,12.61,2,21.91,21.91,0,0,1,9.26,10.57,21.49,21.49,0,0,1,1.31,13.51c.64-3.2-1.94-5.94-4.9-6.88s-7.43-.35-10.35-.36a17.42,17.42,0,0,1-9-2.53c-3-1.84-5.9-4.82-9.52-9.73,0,0,.73.21,2,.5l5.46,1.26,18.09,4.21s-.39-.34-1.13-.89A30.65,30.65,0,0,0,184,90.63a33.46,33.46,0,0,0-12-4.17,25.35,25.35,0,0,0-8.52.28Z"/><path class="cls-1" d="M153.29,75.58a44.07,44.07,0,0,1-3.77-10,17,17,0,0,1-.2-8.37c.7-2.46,2.6-4.84,5.14-7.31a56.44,56.44,0,0,1,9-7.14c-2.51,1.77-2.64,4.46-1.72,6.95s3.57,5.78,4.45,8.61a12.25,12.25,0,0,1-1,9.76c-1.82,3.35-5.54,6.5-11.17,7.81,0,0,.42-.55,1.06-1.59a26.48,26.48,0,0,0,2.15-4.56,25,25,0,0,0,.61-15.34s-.48,1.45-1.11,3.83-1.45,5.67-2.26,9.58c-.48,2.27-.8,4.67-1.13,7.18Z"/><path class="cls-1" d="M43.35,62.33c2.77-.73,6.37-.22,9.68.27a44.44,44.44,0,0,0,4.65.49A26.56,26.56,0,0,0,61.62,63a39.52,39.52,0,0,0,9.44-2,20.69,20.69,0,0,0,9.1-5.72A33.73,33.73,0,0,0,77.67,59L75.2,63c-1.55,2.6-3.56,6.2-6.41,8.28a14.34,14.34,0,0,1-5.65,2.51,15.53,15.53,0,0,1-7.83-.42,18.57,18.57,0,0,1-7.1-4.25,33.26,33.26,0,0,1-5-6.27L45.13,64a51.88,51.88,0,0,0,5.39,3.14,18.64,18.64,0,0,0,8.93,2.12,14.79,14.79,0,0,0,9.15-3.8L67.35,66a24.43,24.43,0,0,1-3.49,1.06,17.29,17.29,0,0,1-5.35.35,24.69,24.69,0,0,1-6.61-1.74c-2.68-1.06-5.35-2.35-8-3.17Z"/><path class="cls-1" d="M60.08,75.07A22.13,22.13,0,0,1,68,81.21a16,16,0,0,1,2.88,5.88,15.43,15.43,0,0,1-.08,7.72,16.63,16.63,0,0,1-3.95,7,19.16,19.16,0,0,1-6.38,4.48,14.86,14.86,0,0,1-7,1.26,8.21,8.21,0,0,1-5.1-2.13,4.71,4.71,0,0,0,4,.8,7.78,7.78,0,0,0,4-2.31c2.06-2.19,2.81-5.75,3.18-8.11.23-1.23.39-2.45.54-3.66a36.44,36.44,0,0,0,.22-3.76c0-1.39-.06-3.08-.23-5.23a63.56,63.56,0,0,1-.4-7.73s.29.84.9,2.2,1.53,3.19,2.47,5.38a21.71,21.71,0,0,1,2,7.77,20.92,20.92,0,0,1-2.24,9.74s.35-.4.94-1.18a17.21,17.21,0,0,0,2-3.6,14.7,14.7,0,0,0,1.12-6,17.28,17.28,0,0,0-1.8-7,50.76,50.76,0,0,0-4.67-7.21Z"/><path class="cls-1" d="M88.44,107.11a22.62,22.62,0,0,0-.56-2.53,38.57,38.57,0,0,0-2.55-6.9A43.75,43.75,0,0,0,79,88a42.6,42.6,0,0,0-11.73-9.46,130.89,130.89,0,0,1,19,10.83c2.6,1.8,5.37,3.88,6.89,7s.78,7.27-1.72,7.52a4.17,4.17,0,0,1,1.15,4,25.27,25.27,0,0,1-1.42,4,16.34,16.34,0,0,0-.66,4.39,9.94,9.94,0,0,0-2.08-3.85c-.92-1-2.09-1.65-3-2.59s-1.63-2.15-1.23-3.41c-2.17,1.19-5-.66-6.16-2.84s-1.23-4.81-1.68-7.39a28.75,28.75,0,0,0-9.74-16.64A67.3,67.3,0,0,1,83.79,98.49c1.66,2.62,2.74,4.82,3.52,6.3Z"/><path class="cls-1" d="M225.41,70.94a9.94,9.94,0,0,1,.32,3.35,10,10,0,0,1-.69,3,9.54,9.54,0,0,1-3.46,4.4,8,8,0,0,1-4.74,1.44,7.61,7.61,0,0,1-3.65-1.06,6.43,6.43,0,0,1-2.94-3.55,3.88,3.88,0,0,1-.2-1.1c0-.24,0-.36,0-.36l.3.21a4.79,4.79,0,0,0,.84.53,6.25,6.25,0,0,0,3.19.71,4.43,4.43,0,0,0,1.82-.48,2.88,2.88,0,0,0,.68-.51,3.28,3.28,0,0,0,.55-.67,5.14,5.14,0,0,0,.72-1.87,4.66,4.66,0,0,0-.06-2.14,6.17,6.17,0,0,0-1.14-2.24,8.49,8.49,0,0,0-2.54-2.15,11,11,0,0,0-3.74-1.2,17.84,17.84,0,0,0-4.26-.06,37.48,37.48,0,0,0-7.34,1.71l-3,1s.9-.8,2.46-2a32,32,0,0,1,6.87-4.3,19.32,19.32,0,0,1,5.21-1.45,15.23,15.23,0,0,1,6.07.4,13.5,13.5,0,0,1,5.55,3.14A11.24,11.24,0,0,1,225.41,70.94Z"/><path class="cls-1" d="M194.88,29.05a11.77,11.77,0,0,0-3.68-.92,11.6,11.6,0,0,0-3.46.25,10.77,10.77,0,0,0-5.49,3,8.74,8.74,0,0,0-2.42,4.92,8.21,8.21,0,0,0,.56,4.16,7.18,7.18,0,0,0,3.45,3.81,5.23,5.23,0,0,0,1.19.41l.41.07-.19-.36a7.1,7.1,0,0,1-.45-1,6.67,6.67,0,0,1-.35-1.6,6.47,6.47,0,0,1,.11-2,4.81,4.81,0,0,1,.84-1.9,3.58,3.58,0,0,1,.69-.66,4.28,4.28,0,0,1,.84-.48,5.94,5.94,0,0,1,2.21-.47,5.5,5.5,0,0,1,2.37.44,7,7,0,0,1,2.31,1.62,9.55,9.55,0,0,1,2,3.14,12,12,0,0,1,.69,4.27,18.47,18.47,0,0,1-.67,4.66,40.79,40.79,0,0,1-3.15,7.71L191,61.25s1-.85,2.68-2.34a34.61,34.61,0,0,0,6-6.75,20.68,20.68,0,0,0,2.52-5.42,16.44,16.44,0,0,0,.58-6.69,14.64,14.64,0,0,0-2.54-6.58A12.81,12.81,0,0,0,194.88,29.05Z"/><path class="cls-1" d="M268.84,22.09a4,4,0,0,0-.67-1.23,3.86,3.86,0,0,0-.93-.88,4.1,4.1,0,0,0-2.22-.75,3.4,3.4,0,0,0-2,.56A3.13,3.13,0,0,0,262,21a2.59,2.59,0,0,0-.19,1.89,2,2,0,0,0,.18.42l.09.13.05-.14a1.88,1.88,0,0,1,.17-.38,2.66,2.66,0,0,1,.35-.49,2.54,2.54,0,0,1,.59-.47,1.8,1.8,0,0,1,.73-.24,1.08,1.08,0,0,1,.36,0,1.18,1.18,0,0,1,.35.11,2.24,2.24,0,0,1,.68.48,2,2,0,0,1,.48.75,2.64,2.64,0,0,1,.13,1,3.63,3.63,0,0,1-.38,1.32,4.63,4.63,0,0,1-1,1.25,7.2,7.2,0,0,1-1.47,1,15.4,15.4,0,0,1-2.93,1.06l-1.28.33s.5.07,1.32.15a13.37,13.37,0,0,0,3.38-.05,8,8,0,0,0,2.14-.67,6,6,0,0,0,2-1.5A5.47,5.47,0,0,0,269,24.64,4.59,4.59,0,0,0,268.84,22.09Z"/><path class="cls-1" d="M293.21,19.06a8.34,8.34,0,0,0-2.61-4.51,8,8,0,0,0-4.13-2,6.54,6.54,0,0,0-4,.61,6,6,0,0,0-2.27,2.05,5.14,5.14,0,0,0-.85,3.63,3.94,3.94,0,0,0,.25.87l.13.26.14-.26a5.1,5.1,0,0,1,.42-.68,5,5,0,0,1,.82-.87,4.59,4.59,0,0,1,1.25-.76,3.5,3.5,0,0,1,1.51-.29,2.56,2.56,0,0,1,.68.13,3.45,3.45,0,0,1,.65.3,4.46,4.46,0,0,1,1.21,1.11,3.91,3.91,0,0,1,.74,1.59,5.17,5.17,0,0,1,0,2,6.72,6.72,0,0,1-1.07,2.45,8.56,8.56,0,0,1-2.29,2.18,13.8,13.8,0,0,1-3.1,1.54,29.65,29.65,0,0,1-6,1.32l-2.58.34s1,.26,2.55.62a25.7,25.7,0,0,0,6.59.72,15.71,15.71,0,0,0,4.33-.75,12.21,12.21,0,0,0,4.28-2.43A10.65,10.65,0,0,0,292.79,24,9.16,9.16,0,0,0,293.21,19.06Z"/><path class="cls-1" d="M185.18,54.75a5.64,5.64,0,0,0-3.12-1.43,5.17,5.17,0,0,0-3,.5,4.14,4.14,0,0,0-1.89,1.83,3.83,3.83,0,0,0-.41,2,3.37,3.37,0,0,0,1,2.27,2.29,2.29,0,0,0,.47.37l.17.09,0-.19a3.25,3.25,0,0,1,.06-1.31,3.45,3.45,0,0,1,.37-.88,2.5,2.5,0,0,1,.69-.72,1.75,1.75,0,0,1,.42-.19,1.7,1.7,0,0,1,.46-.08,3,3,0,0,1,1.07.13,2.67,2.67,0,0,1,1,.57,3.24,3.24,0,0,1,.78,1.1,4.22,4.22,0,0,1,.39,1.72,5.88,5.88,0,0,1-.37,2,9.3,9.3,0,0,1-1.06,2,19,19,0,0,1-2.66,3l-1.24,1.15s.6-.22,1.59-.63a17,17,0,0,0,3.78-2.1,10,10,0,0,0,2-2.05A7.83,7.83,0,0,0,187,61a7.11,7.11,0,0,0-.09-3.37A6.18,6.18,0,0,0,185.18,54.75Z"/><path class="cls-1" d="M49.66,21.84a9.38,9.38,0,0,0,2.5-1.77,9.11,9.11,0,0,0,1.67-2.26,8.68,8.68,0,0,0,1-5A7.23,7.23,0,0,0,53,8.75a6.85,6.85,0,0,0-2.9-1.87A5.91,5.91,0,0,0,45.9,7a3.88,3.88,0,0,0-.88.52l-.25.21.32.07A5,5,0,0,1,46,8,5.5,5.5,0,0,1,48.34,9.8a3.91,3.91,0,0,1,.75,1.53,2.5,2.5,0,0,1,0,.77,2.67,2.67,0,0,1-.14.77,4.49,4.49,0,0,1-.86,1.6,4.27,4.27,0,0,1-1.52,1.23,5.68,5.68,0,0,1-2.22.55,7.72,7.72,0,0,1-3-.46,10.06,10.06,0,0,1-3-1.85,15.71,15.71,0,0,1-2.57-2.88,33,33,0,0,1-3.17-6L31.51,2.37s0,1.09.06,2.89a28.4,28.4,0,0,0,1.11,7.24,17,17,0,0,0,2.08,4.42,13.74,13.74,0,0,0,3.88,3.91,12.26,12.26,0,0,0,5.46,1.94A10.45,10.45,0,0,0,49.66,21.84Z"/><path class="cls-1" d="M4.07,18a9.21,9.21,0,0,1-2.22-2.13A8.89,8.89,0,0,1,.53,13.37,8.68,8.68,0,0,1,.26,8.3,7.14,7.14,0,0,1,2.64,4.53,6.79,6.79,0,0,1,5.78,3.12a6,6,0,0,1,4.14.73,3.77,3.77,0,0,1,.79.64c.16.17.22.25.22.25l-.33,0a4.17,4.17,0,0,0-.9.13,5.61,5.61,0,0,0-1.26.44,5.1,5.1,0,0,0-1.34.94,3.82,3.82,0,0,0-1,1.39A2.52,2.52,0,0,0,6,8.43a3,3,0,0,0,0,.78,4.67,4.67,0,0,0,.62,1.72A4.36,4.36,0,0,0,8,12.37a5.7,5.7,0,0,0,2.13.88,7.66,7.66,0,0,0,3,0,9.91,9.91,0,0,0,3.27-1.36,15.49,15.49,0,0,0,3-2.46,33.16,33.16,0,0,0,4-5.48l1.48-2.47s-.14,1.08-.47,2.85a28.39,28.39,0,0,1-2.14,7,16.77,16.77,0,0,1-2.69,4.05,13.39,13.39,0,0,1-4.4,3.28,12.18,12.18,0,0,1-5.67,1.09A10.5,10.5,0,0,1,4.07,18Z"/><path class="cls-1" d="M199.34,75.59a4.63,4.63,0,0,1,.27,1.44,4.41,4.41,0,0,1-1.51,3.37,3.43,3.43,0,0,1-2,.81,3.28,3.28,0,0,1-1.62-.32,2.8,2.8,0,0,1-1.42-1.43,1.78,1.78,0,0,1-.13-.47c0-.1,0-.16,0-.16l.14.09.39.2a2.9,2.9,0,0,0,.62.17,2.6,2.6,0,0,0,.79,0,2,2,0,0,0,.77-.28.93.93,0,0,0,.27-.25,1.73,1.73,0,0,0,.22-.31,2.3,2.3,0,0,0,.24-.84,2,2,0,0,0-.12-.92,2.48,2.48,0,0,0-.58-.93,3.63,3.63,0,0,0-1.18-.84,4.82,4.82,0,0,0-1.67-.37,7.19,7.19,0,0,0-1.85.14,15.63,15.63,0,0,0-3.12,1l-1.27.55s.36-.38,1-1a13.79,13.79,0,0,1,2.81-2.13,8.53,8.53,0,0,1,2.2-.83,6.53,6.53,0,0,1,2.65,0,5.84,5.84,0,0,1,2.52,1.14A5,5,0,0,1,199.34,75.59Z"/><path class="cls-1" d="M212.93,54.51a11.25,11.25,0,0,1,5.39-6.68,16.25,16.25,0,0,1,10.57-1.89,18.44,18.44,0,0,1,10.54,5.77c2.73,3,4,6.69,3.87,9.49,0-2.26-2.41-4.43-4.81-5s-5.51,0-7.64.31a30.8,30.8,0,0,1-7.35.08c-2.76-.29-5.81-1-10.24-1.66,0,0,.58-.2,1.58-.61A41.1,41.1,0,0,1,219.2,53a48.06,48.06,0,0,1,15-1s-.39-.19-1.13-.46a21.49,21.49,0,0,0-3.17-.92,21.83,21.83,0,0,0-10.62.37,16,16,0,0,0-6,3.23Z"/></g></g></svg>