<svg xmlns="http://www.w3.org/2000/svg" xmlns:xlink="http://www.w3.org/1999/xlink" viewBox="0 0 167.88 169.08"><defs><style>.cls-1{fill:url(#New_Gradient_Swatch_copy_11);}.cls-2{fill:url(#New_Gradient_Swatch_copy_11-2);}.cls-3{fill:url(#New_Gradient_Swatch_copy_11-3);}.cls-4{fill:url(#New_Gradient_Swatch_copy_11-4);}.cls-5{fill:url(#New_Gradient_Swatch_copy_11-5);}.cls-6{fill:url(#New_Gradient_Swatch_copy_11-6);}.cls-7{fill:url(#New_Gradient_Swatch_copy_11-7);}.cls-8{fill:url(#New_Gradient_Swatch_copy_11-8);}.cls-9{fill:url(#New_Gradient_Swatch_copy_11-9);}.cls-10{fill:url(#New_Gradient_Swatch_copy_11-10);}.cls-11{fill:url(#New_Gradient_Swatch_copy_11-11);}.cls-12{fill:url(#New_Gradient_Swatch_copy_11-12);}.cls-13{fill:url(#New_Gradient_Swatch_copy_11-13);}.cls-14{fill:url(#New_Gradient_Swatch_copy_11-14);}.cls-15{fill:url(#New_Gradient_Swatch_copy_11-15);}.cls-16{fill:url(#New_Gradient_Swatch_copy_11-16);}</style><linearGradient id="New_Gradient_Swatch_copy_11" x1="133.05" y1="1424.05" x2="66.33" y2="1362.13" gradientTransform="translate(197.88 1397.97) rotate(180)" gradientUnits="userSpaceOnUse"><stop offset="0" stop-color="#914e3d"/><stop offset="0.05" stop-color="#9e5d4c"/><stop offset="0.1" stop-color="#b27362"/><stop offset="0.16" stop-color="#c48776"/><stop offset="0.28" stop-color="#f1baa9"/><stop offset="0.3" stop-color="#fac4b3"/><stop offset="0.5" stop-color="#f4b5a5"/><stop offset="1" stop-color="#946051"/></linearGradient><linearGradient id="New_Gradient_Swatch_copy_11-2" x1="156.43" y1="1398.86" x2="89.71" y2="1336.94" xlink:href="#New_Gradient_Swatch_copy_11"/><linearGradient id="New_Gradient_Swatch_copy_11-3" x1="155.94" y1="1399.39" x2="89.22" y2="1337.47" xlink:href="#New_Gradient_Swatch_copy_11"/><linearGradient id="New_Gradient_Swatch_copy_11-4" x1="154.48" y1="1400.97" x2="87.76" y2="1339.05" xlink:href="#New_Gradient_Swatch_copy_11"/><linearGradient id="New_Gradient_Swatch_copy_11-5" x1="200.8" y1="1351.05" x2="134.08" y2="1289.13" xlink:href="#New_Gradient_Swatch_copy_11"/><linearGradient id="New_Gradient_Swatch_copy_11-6" x1="201.11" y1="1350.72" x2="134.39" y2="1288.8" xlink:href="#New_Gradient_Swatch_copy_11"/><linearGradient id="New_Gradient_Swatch_copy_11-7" x1="202.01" y1="1349.75" x2="135.29" y2="1287.83" xlink:href="#New_Gradient_Swatch_copy_11"/><linearGradient id="New_Gradient_Swatch_copy_11-8" x1="198.4" y1="1353.63" x2="131.68" y2="1291.71" xlink:href="#New_Gradient_Swatch_copy_11"/><linearGradient id="New_Gradient_Swatch_copy_11-9" x1="158.7" y1="1396.42" x2="91.98" y2="1334.5" xlink:href="#New_Gradient_Swatch_copy_11"/><linearGradient id="New_Gradient_Swatch_copy_11-10" x1="177.86" y1="1375.77" x2="111.14" y2="1313.85" xlink:href="#New_Gradient_Swatch_copy_11"/><linearGradient id="New_Gradient_Swatch_copy_11-11" x1="177.3" y1="1376.37" x2="110.58" y2="1314.45" xlink:href="#New_Gradient_Swatch_copy_11"/><linearGradient id="New_Gradient_Swatch_copy_11-12" x1="178.56" y1="1375.02" x2="111.84" y2="1313.1" xlink:href="#New_Gradient_Swatch_copy_11"/><linearGradient id="New_Gradient_Swatch_copy_11-13" x1="225.07" y1="1324.9" x2="158.35" y2="1262.98" xlink:href="#New_Gradient_Swatch_copy_11"/><linearGradient id="New_Gradient_Swatch_copy_11-14" x1="178.87" y1="1374.68" x2="112.15" y2="1312.76" xlink:href="#New_Gradient_Swatch_copy_11"/><linearGradient id="New_Gradient_Swatch_copy_11-15" x1="128.98" y1="1428.44" x2="62.26" y2="1366.52" xlink:href="#New_Gradient_Swatch_copy_11"/><linearGradient id="New_Gradient_Swatch_copy_11-16" x1="230.45" y1="1319.1" x2="163.73" y2="1257.18" xlink:href="#New_Gradient_Swatch_copy_11"/></defs><title>Asset 3</title><g id="Layer_2" data-name="Layer 2"><g id="Layer_1-2" data-name="Layer 1"><path class="cls-1" d="M167.72,22.94l-.47.17.47-.17a11.72,11.72,0,0,0-2-3.47,12.37,12.37,0,0,0-5.15-3.73l-.05,0h0a17.75,17.75,0,0,0-6.78-1.11,37.64,37.64,0,0,0-12,2.47A78.41,78.41,0,0,0,132.7,21c-14.88,7.53-32,10.34-43.17,10.49A38.5,38.5,0,0,1,80,30.7a33.88,33.88,0,0,1-4.38-1.44c-.5-.21-.88-.38-1.13-.5l-.29-.15-.07,0h0a.9.9,0,0,0-.42-.1.84.84,0,0,0-.72.43.86.86,0,0,0-.1.41.83.83,0,0,0,.43.72,29.22,29.22,0,0,0,6.28,2.3,40.22,40.22,0,0,0,10,.84,104.12,104.12,0,0,0,20.22-2.44,99.79,99.79,0,0,0,23.71-8.22,76.66,76.66,0,0,1,8.86-3.85,36.41,36.41,0,0,1,11.48-2.38,16.13,16.13,0,0,1,6.11,1,3.31,3.31,0,0,1,1,1.23A14.25,14.25,0,0,1,162,21.64c.26,1.09.41,2.08.48,2.61a2.81,2.81,0,0,0,.79,1.58,2.69,2.69,0,0,0,2,.82,2.2,2.2,0,0,0,.44,0h.1a2.68,2.68,0,0,0,2-1.75,2.63,2.63,0,0,0,.17-1A2.51,2.51,0,0,0,167.72,22.94Z"/><path class="cls-2" d="M76.49,40.51a3.44,3.44,0,0,0,.46-1,3.74,3.74,0,0,0-.26-2.61,2.49,2.49,0,0,0-1.88-1.49,1.67,1.67,0,0,0-1.27.58,1.51,1.51,0,0,0-.3.91c0,.63.41.93.56,1.47.5,1.86-1.11,1.56-1.7,1.16a2.8,2.8,0,0,1-.89-1.16c-2.1-4.54,3.5-5.73,6.29-5.94s5.83.3,8.63-.32a4.81,4.81,0,0,0,3.66-2.92L89.18,29l-.61,0A7.94,7.94,0,0,1,86,30.59a17.81,17.81,0,0,1-6.16.81,25.56,25.56,0,0,0-5.24.49c-1.49.33-3.3.74-4.42,1.93a5.2,5.2,0,0,0,.22,7C72.15,42.51,75,42.63,76.49,40.51Z"/><path class="cls-3" d="M77.69,32l.43,0Z"/><path class="cls-4" d="M83.92,13a4.92,4.92,0,0,0-3.61,3,4,4,0,0,0,1.37,4.63A2.33,2.33,0,0,0,85,18.39c-.07-1-.71-1.91-.56-2.87A1.86,1.86,0,0,1,86,14a3.35,3.35,0,0,1,2.14.56c5,3,4.75,10.74.56,14.06-3.82,3-8.75,1.73-13.27.15-2.39-.84-5-4.18-3-6.81.2-.25.44-.6.27-.89a.56.56,0,0,0-.28-.22A2.87,2.87,0,0,0,69.9,21a5,5,0,0,0-2.22,2.79c-.16.53.08,2-.19,2.32s-2.13.18-2.59.19c-4.39.1-9.37-.34-12.91,3-.77.72.1,1.33.79,1.43,1.41.2,2.79.93,4.2,1,.05.51-.14,1.08-.08,1.64a4.56,4.56,0,0,0,.6,1.81,4.22,4.22,0,0,0,5,2,.4.4,0,0,0,0-.73c-1.85-1.15-.18-3.36.75-3.93a15.63,15.63,0,0,1,3.43-1.45A13.74,13.74,0,0,1,73.8,31c4.13,1.4,8.51,2.22,12.66,1.25a9.41,9.41,0,0,0,7-6.17,9.91,9.91,0,0,0,.32-4,13.1,13.1,0,0,0-.4-2C92.12,15.65,87.92,12.11,83.92,13Z"/><path class="cls-5" d="M39.71,77.75a3.22,3.22,0,0,1-1,.47A3.8,3.8,0,0,1,36.09,78a2.49,2.49,0,0,1-1.49-1.88,1.72,1.72,0,0,1,.58-1.28,1.6,1.6,0,0,1,.91-.3c.63,0,.93.42,1.47.56,1.87.5,1.57-1.1,1.16-1.69a2.72,2.72,0,0,0-1.16-.89c-4.54-2.1-5.73,3.5-5.94,6.29s.3,5.82-.32,8.63a4.81,4.81,0,0,1-2.92,3.66c0-.21-.09-.41-.14-.62s0-.4,0-.6a7.81,7.81,0,0,0,1.51-2.59,17.72,17.72,0,0,0,.81-6.15,26.38,26.38,0,0,1,.49-5.25c.33-1.48.74-3.29,1.94-4.42a5.19,5.19,0,0,1,6.94.23C41.71,73.42,41.83,76.3,39.71,77.75Z"/><path class="cls-6" d="M31.16,79c0,.15,0,.29,0,.44C31.15,79.24,31.16,79.1,31.16,79Z"/><path class="cls-7" d="M12.19,85.18a4.87,4.87,0,0,1,3-3.6C16.79,81,19,81.52,19.8,83a2.32,2.32,0,0,1-2.21,3.32c-1-.07-1.9-.7-2.86-.55a1.85,1.85,0,0,0-1.51,1.54,3.34,3.34,0,0,0,.57,2.15c3,5,10.74,4.75,14.05.55,3-3.81,1.73-8.74.15-13.26-.84-2.39-4.18-5-6.81-3-.25.2-.6.45-.89.28a.61.61,0,0,1-.21-.29,2.87,2.87,0,0,1,.15-2.55A5,5,0,0,1,23,69c.53-.16,2,.07,2.32-.19s.18-2.13.19-2.59c.1-4.4-.33-9.37,3-12.92.72-.76,1.33.11,1.43.8.2,1.41.93,2.79,1,4.2.51,0,1.08-.15,1.64-.09a4.51,4.51,0,0,1,1.8.6,4.23,4.23,0,0,1,2,5c-.09.3-.54.31-.73,0-1.14-1.86-3.36-.19-3.93.74A16,16,0,0,0,30.3,68a13.71,13.71,0,0,0-.11,7.08c1.4,4.14,2.22,8.52,1.25,12.66a9.4,9.4,0,0,1-6.17,7,9.88,9.88,0,0,1-4,.31,11.86,11.86,0,0,1-2-.4C14.85,93.38,11.31,89.18,12.19,85.18Z"/><path class="cls-8" d="M0,78.74c7-.76,9.2-8.21,9.9-13.2a24.08,24.08,0,0,1,6.45-13.62C29,39,44.72,52.41,44.72,52.41s-21.79-6.09-27,8.24c0,0-4.05,9.59,3.33,19.77,0,0-6.24-2.18-7.43-8.82C12.18,75.19,9.11,80.27,0,78.74Z"/><path class="cls-9" d="M74.09,0c-.27,7-7.54,9.76-12.47,10.81A24.09,24.09,0,0,0,48.5,18.22C36.5,31.79,51,46.48,51,46.48s-7.64-21.3,6.28-27.57c0,0,9.28-4.72,20,1.92,0,0-2.62-6.07-9.32-6.79C71.41,12.4,76.26,9,74.09,0Z"/><path class="cls-10" d="M43.41,20.8C37.92,24.31,39.17,34.08,41,41.18c.22.85.45,1.66.67,2.42-.72-.27-1.52-.54-2.35-.79-7-2.16-16.71-3.91-20.49,1.4-1.75-9.08,6.66-11.5,18.45-5.22C31.59,26.89,34.42,18.61,43.41,20.8Z"/><path class="cls-11" d="M25.9,23.06c3.21,2.3,4.48,8.31,4.48,8.31s-5.93-1.57-8.07-4.88A2.51,2.51,0,0,1,25.9,23.06Z"/><path class="cls-12" d="M41.45,40.32a3.28,3.28,0,1,0,3.4,3.16A3.28,3.28,0,0,0,41.45,40.32Z"/><path class="cls-13" d="M22.32,168.92l.17-.47-.17.47a11.72,11.72,0,0,1-3.47-2,12.34,12.34,0,0,1-3.73-5.16l0,0h0A18,18,0,0,1,14,155a38.13,38.13,0,0,1,2.47-12,80.37,80.37,0,0,1,3.94-9c7.53-14.88,10.34-32,10.49-43.17a38.5,38.5,0,0,0-.8-9.55,33.36,33.36,0,0,0-1.44-4.38c-.21-.5-.38-.88-.5-1.14s-.11-.22-.15-.28l0-.07v0h0a.86.86,0,0,1-.1-.41.83.83,0,0,1,.43-.72.86.86,0,0,1,.41-.1.83.83,0,0,1,.72.43,29,29,0,0,1,2.3,6.28,40.12,40.12,0,0,1,.84,10,104.91,104.91,0,0,1-2.44,20.22,100,100,0,0,1-8.22,23.71A75.92,75.92,0,0,0,18,143.51,36.41,36.41,0,0,0,15.65,155a16.39,16.39,0,0,0,1,6.12,3.45,3.45,0,0,0,1.24,1A14.07,14.07,0,0,0,21,163.15c1.09.26,2.08.42,2.61.49a2.89,2.89,0,0,1,1.58.78,2.71,2.71,0,0,1,.82,2,2.1,2.1,0,0,1-.05.43h0v.1a2.71,2.71,0,0,1-1.75,2,2.84,2.84,0,0,1-1,.17A2.75,2.75,0,0,1,22.32,168.92Z"/><path class="cls-14" d="M48.49,40.29c-1.6-.08-3.21-.12-4.81-.16s-3.2,0-4.8-.05h-1v1c0,1.6,0,3.2,0,4.8s.08,3.2.16,4.8.17,3.2.28,4.8.26,3.2.47,4.8c.21-1.6.34-3.2.47-4.8s.22-3.2.28-4.8.13-3.2.16-4.8c0-1.28,0-2.56.05-3.85,1.28,0,2.56,0,3.84,0,1.6,0,3.21-.08,4.81-.16s3.2-.17,4.8-.28,3.2-.26,4.8-.47c-1.6-.22-3.2-.34-4.8-.48S50.09,40.36,48.49,40.29Z"/><path class="cls-15" d="M156.71,22.57H97.47a1,1,0,1,0,0,1.92h59.24a1,1,0,1,0,0-1.92Z"/><path class="cls-16" d="M22.91,99.77a1,1,0,0,0-1,1V160a1,1,0,0,0,1.93,0V100.73A1,1,0,0,0,22.91,99.77Z"/></g></g></svg>