<svg xmlns="http://www.w3.org/2000/svg" xmlns:xlink="http://www.w3.org/1999/xlink" viewBox="0 0 456.8 269.58"><defs><style>.cls-1{fill:url(#New_Gradient_Swatch_copy_11);}.cls-2{fill:url(#New_Gradient_Swatch_copy_11-2);}.cls-3{fill:url(#New_Gradient_Swatch_copy_11-3);}.cls-4{fill:url(#New_Gradient_Swatch_copy_11-4);}.cls-5{fill:url(#New_Gradient_Swatch_copy_11-5);}.cls-6{fill:url(#New_Gradient_Swatch_copy_11-6);}.cls-7{fill:url(#New_Gradient_Swatch_copy_11-7);}.cls-8{fill:url(#New_Gradient_Swatch_copy_11-8);}.cls-9{fill:url(#New_Gradient_Swatch_copy_11-9);}.cls-10{fill:url(#New_Gradient_Swatch_copy_11-10);}.cls-11{fill:url(#New_Gradient_Swatch_copy_11-11);}.cls-12{fill:url(#New_Gradient_Swatch_copy_11-12);}.cls-13{fill:url(#New_Gradient_Swatch_copy_11-13);}.cls-14{fill:url(#New_Gradient_Swatch_copy_11-14);}.cls-15{fill:url(#New_Gradient_Swatch_copy_11-15);}.cls-16{fill:url(#New_Gradient_Swatch_copy_11-16);}.cls-17{fill:url(#New_Gradient_Swatch_copy_11-17);}.cls-18{fill:url(#New_Gradient_Swatch_copy_11-18);}.cls-19{fill:url(#New_Gradient_Swatch_copy_11-19);}.cls-20{fill:url(#New_Gradient_Swatch_copy_11-20);}.cls-21{fill:url(#New_Gradient_Swatch_copy_11-21);}.cls-22{fill:url(#New_Gradient_Swatch_copy_11-22);}.cls-23{fill:url(#New_Gradient_Swatch_copy_11-23);}.cls-24{fill:url(#New_Gradient_Swatch_copy_11-24);}.cls-25{fill:url(#New_Gradient_Swatch_copy_11-25);}.cls-26{fill:url(#New_Gradient_Swatch_copy_11-26);}.cls-27{fill:url(#New_Gradient_Swatch_copy_11-27);}.cls-28{fill:url(#New_Gradient_Swatch_copy_11-28);}.cls-29{fill:url(#New_Gradient_Swatch_copy_11-29);}.cls-30{fill:url(#New_Gradient_Swatch_copy_11-30);}.cls-31{fill:url(#New_Gradient_Swatch_copy_11-31);}.cls-32{fill:url(#New_Gradient_Swatch_copy_11-32);}.cls-33{fill:url(#New_Gradient_Swatch_copy_11-33);}.cls-34{fill:url(#New_Gradient_Swatch_copy_11-34);}</style><linearGradient id="New_Gradient_Swatch_copy_11" x1="110.81" y1="226.69" x2="336.69" y2="251.5" gradientUnits="userSpaceOnUse"><stop offset="0" stop-color="#924e3d"/><stop offset="0.04" stop-color="#9f5d4c"/><stop offset="0.1" stop-color="#b47463"/><stop offset="0.16" stop-color="#c58877"/><stop offset="0.28" stop-color="#f2bbaa"/><stop offset="0.3" stop-color="#fbc5b4"/><stop offset="0.5" stop-color="#f5b7a6"/><stop offset="1" stop-color="#956051"/></linearGradient><linearGradient id="New_Gradient_Swatch_copy_11-2" x1="111.01" y1="224.88" x2="336.89" y2="249.69" xlink:href="#New_Gradient_Swatch_copy_11"/><linearGradient id="New_Gradient_Swatch_copy_11-3" x1="111.16" y1="223.46" x2="337.05" y2="248.27" xlink:href="#New_Gradient_Swatch_copy_11"/><linearGradient id="New_Gradient_Swatch_copy_11-4" x1="111.35" y1="221.79" x2="337.23" y2="246.6" xlink:href="#New_Gradient_Swatch_copy_11"/><linearGradient id="New_Gradient_Swatch_copy_11-5" x1="111.55" y1="219.9" x2="337.44" y2="244.71" xlink:href="#New_Gradient_Swatch_copy_11"/><linearGradient id="New_Gradient_Swatch_copy_11-6" x1="111.8" y1="217.68" x2="337.68" y2="242.49" xlink:href="#New_Gradient_Swatch_copy_11"/><linearGradient id="New_Gradient_Swatch_copy_11-7" x1="111.95" y1="216.25" x2="337.83" y2="241.05" xlink:href="#New_Gradient_Swatch_copy_11"/><linearGradient id="New_Gradient_Swatch_copy_11-8" x1="112.12" y1="214.72" x2="338.01" y2="239.53" xlink:href="#New_Gradient_Swatch_copy_11"/><linearGradient id="New_Gradient_Swatch_copy_11-9" x1="112.34" y1="212.75" x2="338.22" y2="237.56" xlink:href="#New_Gradient_Swatch_copy_11"/><linearGradient id="New_Gradient_Swatch_copy_11-10" x1="112.54" y1="210.92" x2="338.42" y2="235.73" xlink:href="#New_Gradient_Swatch_copy_11"/><linearGradient id="New_Gradient_Swatch_copy_11-11" x1="112.73" y1="209.19" x2="338.62" y2="233.99" xlink:href="#New_Gradient_Swatch_copy_11"/><linearGradient id="New_Gradient_Swatch_copy_11-12" x1="112.89" y1="207.75" x2="338.77" y2="232.56" xlink:href="#New_Gradient_Swatch_copy_11"/><linearGradient id="New_Gradient_Swatch_copy_11-13" x1="113.07" y1="206.06" x2="338.96" y2="230.86" xlink:href="#New_Gradient_Swatch_copy_11"/><linearGradient id="New_Gradient_Swatch_copy_11-14" x1="39.99" y1="73.61" x2="273.71" y2="345.83" xlink:href="#New_Gradient_Swatch_copy_11"/><linearGradient id="New_Gradient_Swatch_copy_11-15" x1="63.47" y1="53.45" x2="297.18" y2="325.68" xlink:href="#New_Gradient_Swatch_copy_11"/><linearGradient id="New_Gradient_Swatch_copy_11-16" x1="26.25" y1="85.4" x2="259.97" y2="357.63" xlink:href="#New_Gradient_Swatch_copy_11"/><linearGradient id="New_Gradient_Swatch_copy_11-17" x1="115.28" y1="8.97" x2="348.99" y2="281.2" xlink:href="#New_Gradient_Swatch_copy_11"/><linearGradient id="New_Gradient_Swatch_copy_11-18" x1="188.29" y1="-53.71" x2="422.01" y2="218.51" xlink:href="#New_Gradient_Swatch_copy_11"/><linearGradient id="New_Gradient_Swatch_copy_11-19" x1="122.26" y1="33.29" x2="355.98" y2="305.52" xlink:href="#New_Gradient_Swatch_copy_11"/><linearGradient id="New_Gradient_Swatch_copy_11-20" x1="140.07" y1="18" x2="373.78" y2="290.23" xlink:href="#New_Gradient_Swatch_copy_11"/><linearGradient id="New_Gradient_Swatch_copy_11-21" x1="159.2" y1="1.57" x2="392.92" y2="273.8" xlink:href="#New_Gradient_Swatch_copy_11"/><linearGradient id="New_Gradient_Swatch_copy_11-22" x1="93.99" y1="27.24" x2="327.71" y2="299.47" xlink:href="#New_Gradient_Swatch_copy_11"/><linearGradient id="New_Gradient_Swatch_copy_11-23" x1="103.72" y1="18.89" x2="337.44" y2="291.12" xlink:href="#New_Gradient_Swatch_copy_11"/><linearGradient id="New_Gradient_Swatch_copy_11-24" x1="120.22" y1="4.73" x2="353.94" y2="276.96" xlink:href="#New_Gradient_Swatch_copy_11"/><linearGradient id="New_Gradient_Swatch_copy_11-25" x1="133.31" y1="-6.51" x2="367.02" y2="265.72" xlink:href="#New_Gradient_Swatch_copy_11"/><linearGradient id="New_Gradient_Swatch_copy_11-26" x1="147.37" y1="-18.58" x2="381.09" y2="253.64" xlink:href="#New_Gradient_Swatch_copy_11"/><linearGradient id="New_Gradient_Swatch_copy_11-27" x1="158.48" y1="-28.12" x2="392.2" y2="244.11" xlink:href="#New_Gradient_Swatch_copy_11"/><linearGradient id="New_Gradient_Swatch_copy_11-28" x1="170.71" y1="-38.62" x2="404.43" y2="233.6" xlink:href="#New_Gradient_Swatch_copy_11"/><linearGradient id="New_Gradient_Swatch_copy_11-29" x1="182.98" y1="-49.16" x2="416.7" y2="223.07" xlink:href="#New_Gradient_Swatch_copy_11"/><linearGradient id="New_Gradient_Swatch_copy_11-30" x1="199.99" y1="-63.76" x2="433.71" y2="208.47" xlink:href="#New_Gradient_Swatch_copy_11"/><linearGradient id="New_Gradient_Swatch_copy_11-31" x1="178.02" y1="8.72" x2="333.11" y2="189.36" xlink:href="#New_Gradient_Swatch_copy_11"/><linearGradient id="New_Gradient_Swatch_copy_11-32" x1="163.08" y1="21.55" x2="318.17" y2="202.19" xlink:href="#New_Gradient_Swatch_copy_11"/><linearGradient id="New_Gradient_Swatch_copy_11-33" x1="287.32" y1="167.36" x2="388.64" y2="285.39" xlink:href="#New_Gradient_Swatch_copy_11"/><linearGradient id="New_Gradient_Swatch_copy_11-34" x1="-118.91" y1="-237.55" x2="286.83" y2="28.68" gradientTransform="translate(45.8 -153.67) rotate(45)" xlink:href="#New_Gradient_Swatch_copy_11"/></defs><title>rg-logo</title><g id="Layer_2" data-name="Layer 2"><g id="Layer_1-2" data-name="Layer 1"><path class="cls-1" d="M230.26,234.4V235h-5.35v4.1h4.45v.6h-4.45v4.23h5.35v.61h-6.09V234.4Z"/><path class="cls-2" d="M237.28,234.4h.58a.31.31,0,0,1,.17,0,.71.71,0,0,1,.1.14l3.46,8.43a4.78,4.78,0,0,1,.22.7,3.38,3.38,0,0,1,.21-.7l3.45-8.43a.41.41,0,0,1,.1-.13.25.25,0,0,1,.17-.06h.57l-4.19,10.15h-.65Z"/><path class="cls-3" d="M260,234.4V235h-5.35v4.1h4.45v.6h-4.45v4.23H260v.61H254V234.4Z"/><path class="cls-4" d="M269,234.43a.29.29,0,0,1,.12.11l6.57,8.79c0-.14,0-.28,0-.41V234.4h.64v10.15h-.35a.3.3,0,0,1-.26-.14l-6.6-8.81c0,.14,0,.28,0,.41v8.54h-.64V234.4h.36A.35.35,0,0,1,269,234.43Z"/><path class="cls-5" d="M292,234.4V235H288.4v9.53h-.73V235h-3.59v-.62Z"/><path class="cls-6" d="M309.49,240.46v4.09h-.73V234.4h2.62a4,4,0,0,1,2.69.78,2.77,2.77,0,0,1,.91,2.23,2.91,2.91,0,0,1-.25,1.23,2.67,2.67,0,0,1-.71,1,3.49,3.49,0,0,1-1.14.64,4.64,4.64,0,0,1-1.5.22Zm0-.59h1.89a3.69,3.69,0,0,0,1.2-.18,2.63,2.63,0,0,0,.9-.52,2.19,2.19,0,0,0,.57-.78,2.42,2.42,0,0,0,.2-1,2.26,2.26,0,0,0-.72-1.8,3.21,3.21,0,0,0-2.15-.63h-1.89Z"/><path class="cls-7" d="M323.82,243.93h4.81v.62h-5.54V234.4h.73Z"/><path class="cls-8" d="M344.09,244.55h-.57a.28.28,0,0,1-.16-.05.45.45,0,0,1-.1-.14l-1.2-3h-5l-1.19,3a.26.26,0,0,1-.1.13.24.24,0,0,1-.17.06h-.56l4.16-10.15h.73Zm-6.79-3.69h4.55l-2.08-5.13-.1-.27c0-.11-.07-.21-.1-.33,0,.12-.07.22-.1.33s-.07.19-.1.28Z"/><path class="cls-9" d="M352.24,234.43a.24.24,0,0,1,.12.11l6.57,8.79c0-.14,0-.28,0-.41V234.4h.65v10.15h-.35a.33.33,0,0,1-.27-.14l-6.6-8.81a2.88,2.88,0,0,1,0,.41v8.54h-.64V234.4h.36A.35.35,0,0,1,352.24,234.43Z"/><path class="cls-10" d="M369.12,234.43a.36.36,0,0,1,.12.11l6.57,8.79a2.88,2.88,0,0,1,0-.41V234.4h.64v10.15h-.35a.3.3,0,0,1-.26-.14l-6.6-8.81c0,.14,0,.28,0,.41v8.54h-.64V234.4H369A.38.38,0,0,1,369.12,234.43Z"/><path class="cls-11" d="M391.56,234.4V235h-5.35v4.1h4.45v.6h-4.45v4.23h5.35v.61h-6.09V234.4Z"/><path class="cls-12" d="M400.93,240v4.59h-.74V234.4h2.59a4.18,4.18,0,0,1,2.63.68,2.36,2.36,0,0,1,.87,2,2.78,2.78,0,0,1-.2,1.06,2.58,2.58,0,0,1-.58.84,3.13,3.13,0,0,1-.91.6,3.91,3.91,0,0,1-1.2.3,1.22,1.22,0,0,1,.31.29l3.5,4.39h-.64a.4.4,0,0,1-.2,0,.45.45,0,0,1-.16-.15L403,240.25a.78.78,0,0,0-.26-.23,1.22,1.22,0,0,0-.44-.06Zm0-.55h1.76a4.12,4.12,0,0,0,1.21-.16,2.39,2.39,0,0,0,.9-.46,2,2,0,0,0,.57-.72,2.32,2.32,0,0,0,.19-1,1.88,1.88,0,0,0-.71-1.61,3.44,3.44,0,0,0-2.07-.52h-1.85Z"/><path class="cls-13" d="M420,235.63a.2.2,0,0,1-.18.13.38.38,0,0,1-.24-.14,4.24,4.24,0,0,0-.4-.29,3.09,3.09,0,0,0-.63-.3,2.86,2.86,0,0,0-.94-.14,2.9,2.9,0,0,0-1,.16,2.17,2.17,0,0,0-.71.43,1.81,1.81,0,0,0-.43.63,1.94,1.94,0,0,0-.15.76,1.58,1.58,0,0,0,.22.85,1.86,1.86,0,0,0,.58.57,3.29,3.29,0,0,0,.82.4c.3.11.61.22.93.32s.64.22.94.35a3.47,3.47,0,0,1,.82.48,2.2,2.2,0,0,1,.58.7,2.33,2.33,0,0,1,.22,1.05,3.45,3.45,0,0,1-.22,1.2,2.82,2.82,0,0,1-.64,1,3,3,0,0,1-1,.66,3.68,3.68,0,0,1-1.37.24,3.84,3.84,0,0,1-1.73-.36,4,4,0,0,1-1.27-1l.2-.32a.25.25,0,0,1,.2-.1.24.24,0,0,1,.16.08l.25.21a3.64,3.64,0,0,0,.34.28,4.91,4.91,0,0,0,.47.27,3.94,3.94,0,0,0,.61.21,3.1,3.1,0,0,0,.78.09,3,3,0,0,0,1.08-.19,2.18,2.18,0,0,0,.8-.5,2,2,0,0,0,.5-.75,2.33,2.33,0,0,0,.17-.93,1.6,1.6,0,0,0-.22-.88,1.75,1.75,0,0,0-.57-.58,3.27,3.27,0,0,0-.82-.39c-.3-.11-.62-.21-.94-.31a9.33,9.33,0,0,1-.93-.34,2.9,2.9,0,0,1-.82-.48,2.17,2.17,0,0,1-.58-.72,2.49,2.49,0,0,1-.22-1.09,2.56,2.56,0,0,1,.2-1,2.63,2.63,0,0,1,.56-.84,2.89,2.89,0,0,1,.93-.58,3.44,3.44,0,0,1,1.25-.22,3.74,3.74,0,0,1,1.42.26,3.39,3.39,0,0,1,1.15.76Z"/><path class="cls-14" d="M30,75.3Q16.7,86.31,17,107.69a36.08,36.08,0,0,0,4.74,17.08A42.24,42.24,0,0,1,29,120.85,46.72,46.72,0,0,1,54.88,118Q69.76,121.1,74,129.55a10.47,10.47,0,0,1-.72,9.91l0,0v.05a18.73,18.73,0,0,1-11.57,7.08q-7.38,1.53-16.32-1.24A44.88,44.88,0,0,1,25,132a43.22,43.22,0,0,1-3.73-5,47.09,47.09,0,0,0-10.38,10.67A51.26,51.26,0,0,0,11.87,198q10.64,14,27,17.84a36.23,36.23,0,0,0,12.67.48,33.9,33.9,0,0,0,10.1-3.16c.92-.48,1.82-1,2.68-1.48A34.62,34.62,0,0,0,77,197.44a41.86,41.86,0,0,0,3.25-10.76c.6-3.77,1-7.52,1.29-11.25.19-2.74.34-5.24.43-7.51h-.14a.32.32,0,0,1-.19,0,7.31,7.31,0,0,1-4.45-2A3.78,3.78,0,0,1,76,164a2.46,2.46,0,0,1,.12-1.5A2.77,2.77,0,0,1,77.23,161a2.87,2.87,0,0,1,1.86-.43,7,7,0,0,1,3.16,1.25q.38-10.92.33-22.44c0-3.51,0-7,0-10.48,0-.73,0-1.47,0-2.2,0-2-.07-4-.1-6v-.24q0-3.15,0-6.17,0-1.62.12-4.74t.41-6.69v-.1a117.74,117.74,0,0,1,1.29-12,44.79,44.79,0,0,1,3.44-11.48,15.13,15.13,0,0,1,1.82-3,4.83,4.83,0,0,1,2.87-1.79,4.28,4.28,0,0,1,3,.53,3.77,3.77,0,0,1,1.24,1.24,5.13,5.13,0,0,1,.62,3.78,7.14,7.14,0,0,1-1.34,3.16,26,26,0,0,1-7.46,6.65c0,.82,0,1.69,0,2.58s-.05,2.26-.05,4.19.05,4,.15,6.33q.24,5.37.48,9.19c0,.79.06,1.47.09,2,0,.35.06.71.1,1.1.09,1.62.19,3.27.28,4.92.13,2.08.26,4.18.39,6.32.06,1.66.11,3.32.14,5a163.19,163.19,0,0,1,5.91-16,71.26,71.26,0,0,1,8.2-14.55,26.18,26.18,0,0,1,6.56-6.17,17,17,0,0,1,6-2.39,10.49,10.49,0,0,1,8.9,2.39,18.57,18.57,0,0,1,4.71,7.18,36.48,36.48,0,0,1,2,8.8,62.71,62.71,0,0,1,.34,8.61A58.32,58.32,0,0,1,129.44,137a51.1,51.1,0,0,1-8.49,15.6,39.09,39.09,0,0,1-6.94,6.55,45.23,45.23,0,0,1-10.9,6,48.44,48.44,0,0,1-14.79,3.06,3.64,3.64,0,0,1,0,.57q.85,1.35,2.56,4c1.13,1.77,2.12,3.26,3,4.47q11.81,15.84,21.86,14.69,13.83-1.57,26-34.45a.74.74,0,0,1,1-.43.78.78,0,0,1,.43.39.74.74,0,0,1,0,.62q-12.5,33.91-27.32,35.4a13.1,13.1,0,0,1-1.53.1q-11.86,0-25.31-20.58c-.22-.31-.59-.9-1.1-1.77-.25,1.63-.54,3.31-.86,5A101.44,101.44,0,0,1,84.42,187a53,53,0,0,1-4.23,10.16,43.17,43.17,0,0,1-13.73,15.07A37.77,37.77,0,0,1,58,216.5a32,32,0,0,1-10.43,1.89,41.61,41.61,0,0,1-9.09-1q-16.89-4-27.89-18.47a52.64,52.64,0,0,1-1-62.09,47.54,47.54,0,0,1,10.9-11.1,37.9,37.9,0,0,1-5.07-17.94Q15.13,85.59,29,74.06,48.86,58.22,91.48,67.7q27.36,6.21,43.3-4.26a33.29,33.29,0,0,0,9-8.75A35.3,35.3,0,0,0,148,46.6,28,28,0,0,0,149.08,43a.74.74,0,0,1,.31-.52.67.67,0,0,1,.6-.1.68.68,0,0,1,.5.31.89.89,0,0,1,.12.6,23.52,23.52,0,0,1-1.12,4,35.77,35.77,0,0,1-4.43,8.39,35.41,35.41,0,0,1-9.42,9.09q-16.45,10.86-44.49,4.5Q49.29,59.9,30,75.3ZM54.6,119.56q-18.29-2.78-32.06,6.55A41.47,41.47,0,0,0,33,137.28a43.9,43.9,0,0,0,12.89,6.63,30.88,30.88,0,0,0,15.31,1.24A17.41,17.41,0,0,0,72,138.64a8.76,8.76,0,0,0,.62-8.42Q68.62,122.53,54.6,119.56Zm27.17,46.78h.29a6.66,6.66,0,0,1,0-.91c0-.41,0-.78,0-1.1v-.62a6.07,6.07,0,0,0-3.2-1.53,1.38,1.38,0,0,0-.86.17,1.35,1.35,0,0,0-.58.6,1.15,1.15,0,0,0-.05.36,1.74,1.74,0,0,0,.15.59,2.38,2.38,0,0,0,.62.86A6,6,0,0,0,81.77,166.34ZM89,83.72c-.16,1.28-.29,2.64-.39,4.07a23.51,23.51,0,0,0,6-5.5,5.62,5.62,0,0,0,1.06-2.44,4.58,4.58,0,0,0,0-1.65,2.68,2.68,0,0,0-.74-1.41,2.26,2.26,0,0,0-1.27-.65,2.13,2.13,0,0,0-1.41.26,4.34,4.34,0,0,0-1.58,1.73A16.36,16.36,0,0,0,89,83.72Zm-.2,81.14c0,.45-.09,1-.19,1.72A38.09,38.09,0,0,0,101.62,164a27.11,27.11,0,0,0,7.85-5,43.16,43.16,0,0,0,10-13.85,68.79,68.79,0,0,0,5.29-17A81.38,81.38,0,0,0,125.93,111c-.07-1.85-.24-3.89-.53-6.12a18.29,18.29,0,0,0-1.87-6.12A7.64,7.64,0,0,0,119,94.92a9.08,9.08,0,0,0-7.77,1.34,23.42,23.42,0,0,0-5.91,5.69,74.45,74.45,0,0,0-9.16,16.89,172.31,172.31,0,0,0-6.06,17.84v2.73A233.23,233.23,0,0,1,88.75,164.86Z"/><path class="cls-15" d="M171.76,154.05a8.52,8.52,0,0,1-1.06,5.88q-2.19,3.49-8.32,3.73a21.21,21.21,0,0,1-2.49,7.32,17.49,17.49,0,0,1-3.63,4.55,10.71,10.71,0,0,1-3.54,2.06,9.49,9.49,0,0,1-5.22.33,8.21,8.21,0,0,1-4.45-2.63,12.25,12.25,0,0,1-2.68-5,30.08,30.08,0,0,1-1.1-8,34.16,34.16,0,0,1,.53-6.08q.48-2.34.57-2.58a11.47,11.47,0,0,1-1.29-7.9,10.8,10.8,0,0,1,6.51-8.13,9.92,9.92,0,0,1,9,.53,12.73,12.73,0,0,1,4.52,4.71q2.28,3.57,3.28,10.74a38.11,38.11,0,0,1,.19,8.37c3.32-.19,5.53-1.16,6.65-2.92a7,7,0,0,0,.81-4.69,7.25,7.25,0,0,0-1-2.77,4.6,4.6,0,0,0-.58-.81c-.25-.29-.48-.54-.67-.74l-.33-.36a1.67,1.67,0,0,1-.29-1.77,1.13,1.13,0,0,1,.91-.67,2.19,2.19,0,0,1,1.89,1.41,13.33,13.33,0,0,1,1.08,2.7c0,.13.07.3.14.53s.13.44.19.67A13.72,13.72,0,0,1,171.76,154.05ZM160.85,162a34,34,0,0,0-.14-8.18q-.92-6.7-2.92-9.95a11.09,11.09,0,0,0-4-4.26,7.9,7.9,0,0,0-4.07-1.15,8.85,8.85,0,0,0-3.44.72,9.17,9.17,0,0,0-5.5,6.89,9.79,9.79,0,0,0,.52,5.5c.13-.22.27-.45.43-.67a8.93,8.93,0,0,1,2.35-2.27,8.34,8.34,0,0,1,2.32-1.08,7.14,7.14,0,0,1,1.74-.28,2,2,0,0,1,.67,0,14.72,14.72,0,0,0-1.26,2.92,45.36,45.36,0,0,0-1.7,6.7A27.19,27.19,0,0,0,160.85,162Zm-1.34,5.79a22.34,22.34,0,0,0,1.1-4.12,28.48,28.48,0,0,1-15.12-4.88,29.65,29.65,0,0,0-.6,5.22,21.61,21.61,0,0,0,.6,5,7.78,7.78,0,0,0,1.2,2.73,6.53,6.53,0,0,0,3.73,2.56,5.87,5.87,0,0,0,3.25-.26,7,7,0,0,0,1.82-1A11,11,0,0,0,159.51,167.78Z"/><path class="cls-16" d="M214.14,201.6a31.77,31.77,0,0,1-11.48,31q-12.43,9.9-32,13.11a98.26,98.26,0,0,1-40.23-2l-1.53-.39q-14.2-3.77-27.29-6.45a103.19,103.19,0,0,0-23.76-2.35q-10.67.34-17.65,5.65-10.18,7.89-9.81,28.51a.82.82,0,0,1-.23.62.93.93,0,0,1-1.25,0,.78.78,0,0,1-.24-.57q-.37-21.48,10.48-29.9,7.32-5.55,18.25-6a101.91,101.91,0,0,1,24.21,2.27q13.27,2.7,27.72,6.53l1.53.43A96.52,96.52,0,0,0,170.42,244q19.08-3.16,31.19-12.78a30.59,30.59,0,0,0,9.52-13.18,30.11,30.11,0,0,0,1.34-16.14l-.05-.15a14.93,14.93,0,0,0-1.91-5c-.29-.45-.59-.88-.91-1.29A80.53,80.53,0,0,1,207,205.67a45.33,45.33,0,0,1-5,10.62,21.17,21.17,0,0,1-8.08,7.51,11.5,11.5,0,0,1-7.89.91,8.52,8.52,0,0,1-4.31-2.54,10.15,10.15,0,0,1-2.46-6.48,20.66,20.66,0,0,1,1-6.91,37.06,37.06,0,0,1,2.08-5.26,28.49,28.49,0,0,1,4.36-6.42,21.81,21.81,0,0,1,9.75-6.22,15,15,0,0,1,8.42-.47c0-.51.07-1,.1-1.49.19-2.45.3-4.85.34-7.17l0-2.06c0-1.4.07-2.77.1-4.11,0-3.89-.07-7.48-.19-10.77a50.17,50.17,0,0,1-5.36,6.27,26.92,26.92,0,0,1-6.41,4.83c-.1.06-.49.24-1.17.53a16.23,16.23,0,0,1-2.47.76,6.49,6.49,0,0,1-4.92-.81c-1.09-.51-2.17-1.79-3.26-3.85s-2-5.56-2.77-10.5a81.39,81.39,0,0,1-.19-14.69q.14-2.39.33-4a6.65,6.65,0,0,1,.62-2.34,5.43,5.43,0,0,1,4.17-2.9,11.44,11.44,0,0,1,2.63.08c-.1.7-.19,1.5-.29,2.39s-.19,1.75-.29,2.58c-.13,1.05-.22,1.82-.28,2.3-.32,2.45-.64,5.71-1,9.76a62.82,62.82,0,0,0,.33,13.06,11.05,11.05,0,0,0,2,5,4.29,4.29,0,0,0,2.68,1.6,5.6,5.6,0,0,0,2.44-.24c.38-.16.85-.38,1.39-.67a27.7,27.7,0,0,0,6.53-5.41A51.29,51.29,0,0,0,205.1,162q-.09-1.44-.24-4c-.09-1.72-.2-3.37-.31-4.95s-.18-2.61-.21-3.09a7.06,7.06,0,0,1,.19-2.63,6.09,6.09,0,0,1,1.43-2.7,6.15,6.15,0,0,1,2-1.41,9.75,9.75,0,0,1,2.59-.62c.47,6.18.8,11.73,1,16.62s.18,10.17,0,15.81l-.1,2.3q-.24,6.07-1,12.48c-.06.77-.22,2-.48,3.59a14.7,14.7,0,0,1,2,2.54,17.08,17.08,0,0,1,2.11,5.55ZM183,221.07a6.73,6.73,0,0,0,4.45,2.11,7.92,7.92,0,0,0,5.17-1.44,16.91,16.91,0,0,0,3.16-2.87,34.36,34.36,0,0,0,6.48-12.6,73.37,73.37,0,0,0,2.46-14.14,13.14,13.14,0,0,0-7.75.38,20.76,20.76,0,0,0-9,5.74,25.56,25.56,0,0,0-4.07,6,31.12,31.12,0,0,0-1.93,4.81,19.61,19.61,0,0,0-1,6.22A8.9,8.9,0,0,0,183,221.07Z"/><path class="cls-17" d="M273.71,158.64l.09.19A11.88,11.88,0,0,1,261.36,175a10.1,10.1,0,0,1-3.8-1.19A11,11,0,0,1,254,170.6a22,22,0,0,1-3.08-6.79,19.36,19.36,0,0,1-.65-3.78v-.1a65.09,65.09,0,0,1-3.64,7.61,32.13,32.13,0,0,1-4.78,6.6,13.56,13.56,0,0,1-3.68,2.68,9.87,9.87,0,0,1-4.45,1.05,11.62,11.62,0,0,1-7.85-3.63,21.3,21.3,0,0,1-5.64-11.48,27.18,27.18,0,0,1,.26-10.36,19.63,19.63,0,0,1,4.71-9.16,15,15,0,0,1,9.43-4.64,16.4,16.4,0,0,1,9.57,1.84,24,24,0,0,1,6.31,4.9.39.39,0,0,1,.1-.14,1.75,1.75,0,0,1,.14-.34,7.56,7.56,0,0,1,2.63-2.7,5.94,5.94,0,0,1,2.63-.77,6.55,6.55,0,0,1,2,.24,4.73,4.73,0,0,1,.83.32s0,.23-.12.62-.16.86-.26,1.43-.26,1.41-.41,2.13-.25,1.32-.31,1.79a66.54,66.54,0,0,0-1.1,12.35v.24c0,.67.07,1.32.1,2a14.24,14.24,0,0,0,1.67,5.69,9.37,9.37,0,0,0,3.14,3.45,6.59,6.59,0,0,0,3.32,1,6.76,6.76,0,0,0,4.83-2q4.64-4.69,2.35-11.34a16.11,16.11,0,0,0-1.54-2.92,5.88,5.88,0,0,0-3.06-2.25,1.33,1.33,0,0,1-.43-.28,1.63,1.63,0,0,1-.67-1,1.51,1.51,0,0,1,.29-1.13,1.4,1.4,0,0,1,.93-.52,1.69,1.69,0,0,1,1.27.38,3.22,3.22,0,0,1,.53.57,10.84,10.84,0,0,0,1.14,1.49A16.35,16.35,0,0,1,273.71,158.64ZM250,156c0-.61,0-1.2,0-1.77a55.38,55.38,0,0,1,.33-6.46,17.39,17.39,0,0,0-7.22-5.07,10.53,10.53,0,0,0-8,.86,12.84,12.84,0,0,0-5.6,5.89,23.35,23.35,0,0,0-1.77,12.24,25.54,25.54,0,0,0,1.29,6,11.24,11.24,0,0,0,4.12,5.89,6.43,6.43,0,0,0,3.95,1.05,5.66,5.66,0,0,0,3.65-1.68,33.74,33.74,0,0,0,5.41-8A85.47,85.47,0,0,0,250,156Z"/><path class="cls-18" d="M438.52,127.5a1,1,0,0,1,.5.45.71.71,0,0,1,0,.65,15.46,15.46,0,0,1-1.82,3.25,24,24,0,0,1-6.36,6.22,51.4,51.4,0,0,1-9.38,4.93,50.55,50.55,0,0,1-14.78,3.49,57.45,57.45,0,0,1-13.87-.53q-6.88-1.1-13.64-2.77-2.78-.67-5.5-1.24-5.35-1.24-10.78-2a62.52,62.52,0,0,0-10.94-.6,44.48,44.48,0,0,0-24,8.52,50.78,50.78,0,0,0-13.82,15.5h.05c-.1.16-.21.36-.34.6l-.38.69-.34.57a1.23,1.23,0,0,0-.14.29q-1.2,2-2.68,4.12a22.51,22.51,0,0,1-5.64,5.64,16.76,16.76,0,0,1-5.51,2.44,10.19,10.19,0,0,1-6.26-.76,13.15,13.15,0,0,1-5.07-4.33,21.89,21.89,0,0,1-3-6A68.09,68.09,0,0,1,281.6,153a124.56,124.56,0,0,1-1.1-14,129,129,0,0,1,.72-20.76,101.41,101.41,0,0,1,4.44-20.29,81.07,81.07,0,0,1,4.46-11.07,25.18,25.18,0,0,1,7.46-9.12,13.66,13.66,0,0,1,5.31-2.44,7.79,7.79,0,0,1,5.6.91q5.4,3.3,5.5,14a34.94,34.94,0,0,1-.67,6.56A93.54,93.54,0,0,1,307,116.13a171.26,171.26,0,0,1-9.57,18.59q-5.16,8.66-9.32,14.31a25.48,25.48,0,0,0,.09,2.72c.1,1.66.22,3.54.38,5.65s.34,3.89.53,5.36a28.89,28.89,0,0,0,1.53,6.38,11.63,11.63,0,0,0,3.73,5.24,6.49,6.49,0,0,0,4.55,1.29,10.54,10.54,0,0,0,4.83-1.86,21.3,21.3,0,0,0,5.21-5.22c1.06-1.5,2-3,2.83-4.4a79.48,79.48,0,0,1,6.07-9.71,77.36,77.36,0,0,1,7.13-7.7,57.69,57.69,0,0,1,8.32-6.32,40.76,40.76,0,0,1,17-5.69,57.33,57.33,0,0,1,12.82.19,110,110,0,0,1,11.62,2c2.61.57,5.22,1.2,7.8,1.87q7,1.91,14.11,3.11a65.66,65.66,0,0,0,19.19.14,44.07,44.07,0,0,0,8.37-2.61,37.62,37.62,0,0,0,5.64-2.94,19.15,19.15,0,0,0,5.89-5.55,15.86,15.86,0,0,0,1.29-2.08c.25-.53.37-.81.33-.84a.94.94,0,0,1,.46-.48A.91.91,0,0,1,438.52,127.5ZM288,138.83q0,3.73.1,7.37,4.11-5.83,8.94-14.11a162.72,162.72,0,0,0,8.85-17.56,90.23,90.23,0,0,0,5.79-18.08,33.48,33.48,0,0,0,.63-6.27c0-6.44-1.58-10.6-4.65-12.48a4.66,4.66,0,0,0-1.48-.63,6,6,0,0,0-5.07,1.25,15.4,15.4,0,0,0-3.54,4.11A37.36,37.36,0,0,0,294,89.9a92.16,92.16,0,0,0-3.3,14.78,4.86,4.86,0,0,0-.15.81,178.55,178.55,0,0,0-2.34,22.05Q288,133.2,288,138.83Z"/><path class="cls-19" d="M186.41,114.41c0,4,0,7.23.19,8.93.15,1.22.34,2,1.65,2.19a15.74,15.74,0,0,0,1.94.19.3.3,0,0,1,.34.34c0,.2-.19.34-.68.34-2.33,0-5-.14-5.29-.14s-3.15.14-4.41.14c-.49,0-.68-.1-.68-.34s.09-.29.34-.29a6.2,6.2,0,0,0,1.26-.19c.87-.2,1.12-1,1.26-2.24.19-1.7.19-5,.19-8.93V97.08l-6.16.1c-2.67,0-3.69.34-4.32,1.31a6.79,6.79,0,0,0-.68,1.31c-.1.34-.24.39-.44.39a.33.33,0,0,1-.29-.34c0-.44.83-4.13.92-4.46s.3-.78.44-.78a14.33,14.33,0,0,0,1.89.48c1.22.15,2.87.2,3.35.2h16.12a20.63,20.63,0,0,0,3.06-.2c.63-.09,1-.19,1.21-.19s.19.24.19.49c0,1.26-.14,4.22-.14,4.7s-.2.54-.39.54-.29-.15-.34-.73l-.05-.44c-.14-1.26-1.07-2.18-5.14-2.28l-5.34-.1Z"/><path class="cls-20" d="M232.77,114.41c0,4,0,7.23.24,8.93.14,1.22.24,2,1.55,2.19a16,16,0,0,0,1.89.19.34.34,0,0,1,.39.34c0,.2-.24.34-.72.34-2.34,0-5.05-.14-5.3-.14s-3,.14-4.22.14c-.48,0-.68-.1-.68-.34a.33.33,0,0,1,.34-.34,5.41,5.41,0,0,0,1.26-.19c.88-.2,1-1,1.17-2.23.19-1.7.19-4.81.19-8.79v-4.13c0-.19-.09-.24-.24-.24H210.83c-.15,0-.25,0-.25.24v4.13c0,4,0,7.13.2,8.83.14,1.22.29,2,1.55,2.19a16.5,16.5,0,0,0,1.94.19.33.33,0,0,1,.34.34c0,.2-.19.34-.68.34-2.38,0-5.09-.14-5.29-.14s-3,.14-4.27.14c-.44,0-.68-.1-.68-.34a.33.33,0,0,1,.34-.34,5.92,5.92,0,0,0,1.31-.19c.83-.2.92-1,1.12-2.19a85.17,85.17,0,0,0,.24-8.93v-7.28c0-6.41,0-7.57-.1-8.88s-.34-2.09-1.74-2.28a13.4,13.4,0,0,0-1.46-.1.4.4,0,0,1-.34-.34c0-.24.19-.34.68-.34,1.94,0,4.66.1,4.9.1s2.91-.1,4.23-.1c.48,0,.67.1.67.34a.4.4,0,0,1-.34.34,4.55,4.55,0,0,0-1.06.1c-1.17.24-1.41.82-1.51,2.28s0,2.57,0,9v.87c0,.25.1.25.25.25h17.81c.15,0,.24,0,.24-.25v-.87c0-6.41,0-7.67-.09-9s-.3-2.09-1.7-2.28a13.4,13.4,0,0,0-1.46-.1.37.37,0,0,1-.34-.34c0-.24.19-.34.68-.34,1.89,0,4.66.1,4.85.1s3-.1,4.23-.1c.48,0,.72.1.72.34a.41.41,0,0,1-.38.34,4.85,4.85,0,0,0-1.07.1c-1.12.24-1.36.82-1.46,2.28s-.09,2.47-.09,8.88Z"/><path class="cls-21" d="M246.85,107.13c0-6.41,0-7.57-.1-8.88S246.41,96.16,245,96a13.21,13.21,0,0,0-1.45-.1.4.4,0,0,1-.34-.34c0-.24.19-.34.68-.34,1.94,0,4.71.1,5,.1s9.22,0,10.19,0,1.6-.2,1.94-.25.39-.19.58-.19.2.19.2.39-.24.78-.34,1.94c-.05.39-.14,2.23-.24,2.72-.05.19-.2.44-.39.44s-.34-.2-.34-.54a4.58,4.58,0,0,0-.24-1.45c-.29-.68-.73-1-3.06-1.27-.73-.09-5.68-.14-6.17-.14-.19,0-.24.14-.24.44v11.21c0,.29,0,.43.24.43.54,0,6.17,0,7.14-.09s1.65-.15,2.09-.58.48-.54.63-.54.24.1.24.34-.24.92-.34,2.28c-.1.83-.19,2.38-.19,2.67s-.1.78-.39.78-.29-.15-.29-.39a3.55,3.55,0,0,0-.2-1.36c-.14-.58-.53-1.07-2.18-1.26-1.17-.15-5.73-.2-6.46-.2-.24,0-.29.15-.29.3v3.44c0,1.41,0,6.22,0,7,.1,2.77.88,3.3,5.1,3.3a14.15,14.15,0,0,0,4.27-.44,3.11,3.11,0,0,0,1.94-2.86c.1-.49.2-.63.44-.63s.29.34.29.63a34.63,34.63,0,0,1-.58,4c-.29,1.07-.73,1.07-2.38,1.07-3.21,0-5.68-.1-7.43-.15s-2.91-.09-3.54-.09c-.1,0-.93,0-1.85,0s-1.79.1-2.47.1c-.44,0-.68-.1-.68-.34a.33.33,0,0,1,.34-.34,11.81,11.81,0,0,0,1.31-.19c.82-.15.92-1,1.12-2.19a85.17,85.17,0,0,0,.24-8.93Z"/><path class="cls-22" d="M253.73,211c0-2.89-.18-3.28-1.61-3.68a6.74,6.74,0,0,0-1.21-.1c-.14,0-.29-.07-.29-.22s.18-.28.58-.28c1.6,0,3.85.1,4,.1s2.42-.1,3.49-.1c.4,0,.58.07.58.28s-.15.22-.29.22a5.28,5.28,0,0,0-.89.1c-1,.18-1.25.79-1.32,2s-.07,2.21-.07,3.71v4c0,1.6,0,1.67-.47,1.92a17.51,17.51,0,0,1-7.56,1.61c-2.71,0-7.78-.36-11.74-3.82a13.92,13.92,0,0,1-4.25-10.17c0-5.71,2.79-9.74,6-11.74a17.5,17.5,0,0,1,9.49-2.25,30.73,30.73,0,0,1,5.46.61,18.11,18.11,0,0,0,2.89.36c.36,0,.43.17.43.32a45.1,45.1,0,0,0-.25,5.06c0,.58-.07.75-.32.75s-.21-.21-.25-.53a5.65,5.65,0,0,0-.75-2.36c-.89-1.35-3.78-2.89-8.39-2.89a11.41,11.41,0,0,0-7.63,2.36c-2.07,1.64-3.53,4.89-3.53,9.06a14.58,14.58,0,0,0,3.78,9.89A13,13,0,0,0,249,219.1a9.78,9.78,0,0,0,4.06-.74,1.31,1.31,0,0,0,.72-1.25Z"/><path class="cls-23" d="M271.5,197.8c.39-1,.53-1.18.75-1.18s.42.43.75,1.11c.57,1.28,5.6,13.81,7.53,18.41,1.14,2.71,2,3.11,2.67,3.32a4.46,4.46,0,0,0,1.25.18c.18,0,.39.07.39.25s-.35.25-.71.25-2.79,0-5-.07c-.61,0-1.11,0-1.11-.22s.07-.14.22-.21a.56.56,0,0,0,.28-.82l-2.82-7c-.07-.14-.11-.18-.28-.18h-7.25a.33.33,0,0,0-.32.25l-1.78,4.85a6.19,6.19,0,0,0-.47,2c0,.61.54.82,1.08.82H267c.25,0,.32.11.32.25s-.18.25-.46.25c-.75,0-2.46-.11-2.82-.11s-1.89.11-3.18.11c-.39,0-.6-.07-.6-.25a.27.27,0,0,1,.28-.25c.22,0,.68,0,.93-.07,1.43-.18,2-1.25,2.64-2.79ZM275,210.43c.15,0,.15-.07.11-.21L272,201.9q-.27-.69-.54,0l-2.93,8.32c0,.14,0,.21.11.21Z"/><path class="cls-24" d="M293.55,211.33c0,2.92,0,5.31.14,6.56.11.89.25,1.46,1.21,1.61a12.22,12.22,0,0,0,1.43.14.22.22,0,0,1,.25.25c0,.14-.14.25-.5.25-1.71,0-3.71-.11-3.89-.11s-2.32.11-3.25.11c-.35,0-.5-.07-.5-.25a.22.22,0,0,1,.25-.22,4.18,4.18,0,0,0,.93-.14c.64-.14.82-.75.93-1.64.14-1.25.14-3.64.14-6.56V198.59l-4.53.07c-2,0-2.71.25-3.18,1a6,6,0,0,0-.5,1c-.07.25-.17.29-.32.29a.23.23,0,0,1-.21-.25c0-.32.61-3,.68-3.28s.21-.57.32-.57a9.81,9.81,0,0,0,1.39.35c.89.11,2.11.15,2.46.15h11.85a14.31,14.31,0,0,0,2.25-.15c.46-.07.75-.14.89-.14s.14.18.14.36c0,.93-.1,3.1-.1,3.46s-.15.39-.29.39-.21-.11-.25-.53l0-.33c-.1-.92-.78-1.6-3.78-1.67l-3.92-.07Z"/><path class="cls-25" d="M327.62,211.33c0,2.92,0,5.31.18,6.56.11.89.18,1.46,1.14,1.61a12.49,12.49,0,0,0,1.39.14.25.25,0,0,1,.29.25c0,.14-.18.25-.54.25-1.71,0-3.71-.11-3.89-.11s-2.17.11-3.1.11c-.36,0-.5-.07-.5-.25a.24.24,0,0,1,.25-.25,4.27,4.27,0,0,0,.93-.14c.64-.15.75-.75.86-1.64.14-1.25.14-3.54.14-6.46v-3c0-.14-.07-.17-.18-.17h-13.1c-.1,0-.17,0-.17.17v3c0,2.92,0,5.24.14,6.49.1.89.21,1.46,1.14,1.61a12.86,12.86,0,0,0,1.43.14.25.25,0,0,1,.25.25c0,.14-.15.25-.5.25-1.75,0-3.75-.11-3.89-.11s-2.18.11-3.14.11c-.32,0-.5-.07-.5-.25a.24.24,0,0,1,.25-.25,4.54,4.54,0,0,0,1-.14c.61-.15.68-.72.82-1.61a61.34,61.34,0,0,0,.18-6.56V206c0-4.71,0-5.56-.07-6.53s-.25-1.53-1.29-1.67a8.87,8.87,0,0,0-1.07-.07.32.32,0,0,1-.25-.26c0-.17.15-.24.5-.24,1.43,0,3.43.07,3.61.07s2.14-.07,3.1-.07c.36,0,.5.07.5.24a.31.31,0,0,1-.25.26,3.52,3.52,0,0,0-.78.07c-.86.17-1,.6-1.11,1.67s0,1.89,0,6.6v.65c0,.17.07.17.17.17h13.1c.11,0,.18,0,.18-.17V206c0-4.71,0-5.63-.07-6.6s-.22-1.53-1.25-1.67a9.16,9.16,0,0,0-1.07-.07.27.27,0,0,1-.25-.26c0-.17.14-.24.5-.24,1.39,0,3.42.07,3.56.07s2.18-.07,3.11-.07c.36,0,.53.07.53.24a.31.31,0,0,1-.28.26,3.79,3.79,0,0,0-.79.07c-.82.17-1,.6-1.07,1.67s-.07,1.82-.07,6.53Z"/><path class="cls-26" d="M338,206c0-4.71,0-5.56-.07-6.53s-.25-1.53-1.29-1.67a9,9,0,0,0-1.07-.07.31.31,0,0,1-.25-.26c0-.17.14-.24.5-.24,1.43,0,3.46.07,3.64.07s6.78,0,7.49,0,1.18-.15,1.43-.18a1.84,1.84,0,0,1,.43-.15c.11,0,.14.15.14.29a14.5,14.5,0,0,0-.25,1.43c0,.28-.11,1.64-.18,2,0,.14-.14.32-.28.32s-.25-.15-.25-.4a3.44,3.44,0,0,0-.18-1.07c-.21-.5-.54-.71-2.25-.92-.53-.08-4.17-.11-4.53-.11-.14,0-.18.11-.18.32V207c0,.22,0,.32.18.32.39,0,4.53,0,5.25-.07s1.21-.1,1.53-.43.36-.39.46-.39.18.07.18.25a16.24,16.24,0,0,0-.25,1.68c-.07.61-.14,1.75-.14,2s-.07.57-.29.57-.21-.1-.21-.28a2.73,2.73,0,0,0-.14-1c-.11-.43-.39-.79-1.61-.93-.85-.11-4.21-.14-4.74-.14-.18,0-.22.1-.22.21v2.54c0,1,0,4.56,0,5.17.07,2,.64,2.43,3.75,2.43a10.19,10.19,0,0,0,3.14-.33,2.29,2.29,0,0,0,1.43-2.1c.07-.36.14-.47.32-.47s.21.26.21.47a25.27,25.27,0,0,1-.43,2.93c-.21.78-.53.78-1.74.78-2.36,0-4.18-.07-5.47-.11s-2.13-.07-2.6-.07c-.07,0-.68,0-1.36,0s-1.32.07-1.81.07c-.33,0-.5-.07-.5-.25a.24.24,0,0,1,.24-.25c.29,0,.68-.11,1-.14.6-.11.68-.72.82-1.61a61.34,61.34,0,0,0,.18-6.56Z"/><path class="cls-27" d="M357.63,206c0-4.71,0-5.56-.07-6.53s-.26-1.53-1.29-1.67a9,9,0,0,0-1.07-.07.31.31,0,0,1-.25-.26c0-.17.14-.24.5-.24,1.43,0,3.53.07,3.71.07s3-.07,3.93-.07c2,0,4.21.17,5.85,1.31a5.36,5.36,0,0,1,2.17,4.14c0,2.25-.92,4.43-3.85,6.93,2.57,3.21,4.75,5.95,6.57,7.85,1.67,1.71,2.71,2,3.49,2.1a5.66,5.66,0,0,0,1.11.11.28.28,0,0,1,.29.25c0,.18-.18.25-.75.25h-2a6.28,6.28,0,0,1-3.35-.61c-1.36-.71-2.5-2.17-4.28-4.46-1.32-1.64-2.71-3.6-3.39-4.42a.48.48,0,0,0-.43-.18l-4-.07c-.14,0-.21.07-.21.25v.71c0,2.93,0,5.28.14,6.53.11.89.29,1.46,1.25,1.61a11.84,11.84,0,0,0,1.39.14.22.22,0,0,1,.25.25c0,.14-.14.25-.5.25-1.71,0-3.71-.11-3.85-.11s-2.14.11-3.11.11c-.32,0-.5-.07-.5-.25a.25.25,0,0,1,.26-.25,4.64,4.64,0,0,0,1-.14c.6-.15.67-.72.82-1.61a61.34,61.34,0,0,0,.18-6.56Zm2.71,2.57a.44.44,0,0,0,.21.39,10.62,10.62,0,0,0,3.46.47,4.1,4.1,0,0,0,2.36-.54c1.07-.71,1.89-2.32,1.89-4.64,0-3.78-2.07-5.95-5.42-5.95a14.1,14.1,0,0,0-2.25.17.39.39,0,0,0-.25.36Z"/><path class="cls-28" d="M384.46,211.33c0,2.92,0,5.31.14,6.56.11.89.22,1.46,1.14,1.61a13.32,13.32,0,0,0,1.43.14.24.24,0,0,1,.25.25c0,.14-.14.25-.5.25-1.75,0-3.78-.11-3.92-.11s-2.14.11-3.11.11c-.32,0-.5-.07-.5-.25a.24.24,0,0,1,.25-.25,4.45,4.45,0,0,0,1-.14c.61-.15.72-.72.83-1.61.14-1.25.17-3.64.17-6.56V206c0-4.71,0-5.56-.07-6.53s-.32-1.5-1-1.64a5.48,5.48,0,0,0-1-.1.28.28,0,0,1-.25-.26c0-.17.14-.24.5-.24,1,0,3,.07,3.18.07s2.17-.07,3.14-.07c.35,0,.5.07.5.24a.32.32,0,0,1-.25.26,3.6,3.6,0,0,0-.79.07c-.86.17-1,.6-1.1,1.67s0,1.82,0,6.53Z"/><path class="cls-29" d="M396.09,216c.07,2.5.36,3.25,1.21,3.46a7.71,7.71,0,0,0,1.57.18.24.24,0,0,1,.25.25c0,.18-.21.25-.57.25-1.78,0-3-.11-3.32-.11s-1.6.11-3,.11c-.32,0-.5,0-.5-.25a.25.25,0,0,1,.25-.25,5.15,5.15,0,0,0,1.29-.18c.78-.21.89-1,.89-3.78V198.3c0-1.21.18-1.53.43-1.53s.89.6,1.21.93c.5.49,5.06,5.35,9.92,10.34,3.1,3.21,6.46,6.82,7.42,7.82l-.32-15.2c0-2-.21-2.64-1.18-2.82a9.55,9.55,0,0,0-1.53-.14c-.22,0-.25-.18-.25-.29s.25-.21.6-.21c1.43,0,2.93.07,3.29.07s1.39-.07,2.67-.07c.32,0,.57,0,.57.21a.35.35,0,0,1-.35.29,3.61,3.61,0,0,0-.75.07c-1,.21-1.11.82-1.11,2.64l-.07,17.77c0,2,0,2.17-.25,2.17s-.64-.25-2.39-1.85c-.32-.29-4.85-4.75-8.17-8.21-3.64-3.82-7.17-7.53-8.14-8.6Z"/><path class="cls-30" d="M438.77,212.4c0-2.47-.08-2.82-1.36-3.07a9,9,0,0,0-1.07-.07.31.31,0,0,1-.25-.25c0-.22.14-.25.5-.25,1.43,0,3.53.07,3.71.07s2.11-.07,3.07-.07c.36,0,.5,0,.5.25a.31.31,0,0,1-.25.25,3.6,3.6,0,0,0-.79.07c-.85.14-1.1.6-1.17,1.67s0,1.86,0,3.14v3.39c0,1.4,0,1.43-.43,1.65a16,16,0,0,1-6.67,1.35c-2.39,0-6.85-.28-10.35-3.25a11.58,11.58,0,0,1-3.74-8.63,11.37,11.37,0,0,1,5.24-10,15.8,15.8,0,0,1,8.35-1.92,25.61,25.61,0,0,1,4.82.5,13.87,13.87,0,0,0,2.53.32c.32,0,.39.14.39.28,0,.43-.17,1.25-.17,4.29,0,.49-.15.64-.36.64s-.22-.18-.22-.47a4.46,4.46,0,0,0-.71-2c-.78-1.14-3.18-2.35-7.24-2.35a10,10,0,0,0-6.57,2c-1.82,1.39-3.1,4.11-3.1,7.64A12.08,12.08,0,0,0,426.7,216a11.22,11.22,0,0,0,8,3.18,7.93,7.93,0,0,0,3.39-.57c.4-.21.65-.36.65-.93Z"/><path class="cls-31" d="M280.64,38.33a18.7,18.7,0,0,0-12.58-7.1,18.05,18.05,0,0,0-3.12,0A30,30,0,0,0,252.16,19.1c-9.91-4.74-22.58-2.61-30,4.71a7,7,0,0,0,1.47-4.74,7.29,7.29,0,0,0-1.85-4.26A6.51,6.51,0,0,0,219.21,13c-2.56-1-4.83-1.08-6.77-.11a7.94,7.94,0,0,0-4,4.2,7.11,7.11,0,0,0,.14,5.27,27.57,27.57,0,0,0-28.35-3.22,30,30,0,0,0-12.78,12.09,17.13,17.13,0,0,0-3,0,18.68,18.68,0,0,0-12.58,7.1,21.3,21.3,0,0,0-3.68,16.37A29.12,29.12,0,0,0,155.44,69c-.63-.61-1.27-1.27-1.91-2l8.55,12v1.15l54.16-.18,54.15-.17V79l8.53-12c-.51.56-1,1.08-1.51,1.58a28.86,28.86,0,0,0,6.9-13.88A21.3,21.3,0,0,0,280.64,38.33Zm-29.12-17.9a28.28,28.28,0,0,1,11.84,10.94,18.8,18.8,0,0,0-8.64,3.72,26.39,26.39,0,0,0-18.8-10.62,26.1,26.1,0,0,0-12.55,2.27q-.72-.3-1.47-.54C228.69,18.22,241.57,15.67,251.52,20.43Zm4.69,54.1a15.27,15.27,0,0,1-4.15-3.35l.41-.67c2.58-4.28,5.24-8.71,6.49-13.71a26.42,26.42,0,0,0-3.4-20.5,17.17,17.17,0,0,1,8.58-3.56A31.66,31.66,0,0,1,268,47.32C268.15,57.14,263.77,67.11,256.21,74.53ZM164.42,47.32a31.57,31.57,0,0,1,3.86-14.59,17.24,17.24,0,0,1,8.66,3.57,26.47,26.47,0,0,0-3.41,20.5c1.26,5,3.92,9.43,6.49,13.71l.44.71a9.57,9.57,0,0,1-4.11,3.44C168.7,67.23,164.27,57.2,164.42,47.32Zm51.83-20.58c7.39,0,14,5,16.89,12.6l.17.52a22.75,22.75,0,0,1-.46,16.25c-1.58,5.11-4.52,9.9-9.22,14.9A18.69,18.69,0,0,1,220,66.42a42.7,42.7,0,0,1-1.89-4.34q-.18-.55-.33-1.14c-.26-1.15-.27-2.16-.74-3.77l5.88,3.39a68.88,68.88,0,0,1-.08-8.5,37.68,37.68,0,0,0-5.45,3.19,24,24,0,0,1,3.17-5.62q-4.14-.1-8.28.09c.52.77,1,1.56,1.51,2.35a14,14,0,0,1,1.3,2.15c.1.24.51,1,.41,1.08s-1.3-.69-1.6-.82c-.71-.31-1.35-.77-2-1.13-.24-.12-1.93-.88-1.93-1.12v8.43l5.63-3.27a57.62,57.62,0,0,1-2.87,8.71,20.38,20.38,0,0,1-3.93,4.76c-4.63-5-7.53-9.71-9.11-14.81a22.81,22.81,0,0,1-.43-16.2l.16-.48C202.22,31.7,208.85,26.74,216.25,26.74Zm-4.38-.91.17-.13-.06-.06.22.1Zm8-.18A6,6,0,0,0,221,25a3.73,3.73,0,0,0,.36-.32c-.31.35-1.13,1.19-1.42,1.55l.65-.37C220.3,25.77,220.07,25.69,219.83,25.65ZM251.07,70c-.13-.18-.27-.34-.41-.53a14.56,14.56,0,0,1-1.68-3A4.57,4.57,0,0,1,251,63.47a3,3,0,0,1,3.56.37c-1,2-2.22,4-3.39,5.91A1.76,1.76,0,0,1,251.07,70Zm-69.79-.23c-1.17-1.94-2.35-3.92-3.41-6a3.07,3.07,0,0,1,3.51-.32,4.56,4.56,0,0,1,2.06,3,14.55,14.55,0,0,1-1.67,3c-.12.18-.25.34-.37.5Zm73.39-6a4.82,4.82,0,0,0-5.3-3.54,5.67,5.67,0,0,0-1.84-5.11l-.24-.2-.24.2a5.67,5.67,0,0,0-1.84,5.11,4.88,4.88,0,0,0-3.45.86,4.93,4.93,0,0,0-1.95,3,3,3,0,0,1,3.73-.54,4.55,4.55,0,0,1,2.06,2.94,15,15,0,0,1-1.59,3,15.67,15.67,0,0,1-8.27,5.79,8.38,8.38,0,0,1-4.33-.08,17.47,17.47,0,0,1-6.66-3.22c4.83-5.14,7.86-10.07,9.48-15.33a24.17,24.17,0,0,0,.47-17.22l-.17-.53a21.29,21.29,0,0,0-9.42-11.25,24.11,24.11,0,0,1,10.68-1.67,24.61,24.61,0,0,1,21.75,30.51A34.29,34.29,0,0,1,254.67,63.71ZM198,38.89l-.16.49a24.27,24.27,0,0,0-1.36,8,23.86,23.86,0,0,0,1.8,9.16c1.63,5.26,4.62,10.17,9.38,15.27a25.65,25.65,0,0,1-4.69,3,14,14,0,0,1-6.66.33,14.41,14.41,0,0,1-7.85-5.64,15.4,15.4,0,0,1-1.59-3.06,4.53,4.53,0,0,1,2-2.92,3,3,0,0,1,3.72.54,4.86,4.86,0,0,0-5.39-3.84,5.67,5.67,0,0,0-1.84-5.11l-.24-.2-.24.2a5.67,5.67,0,0,0-1.84,5.11,4.82,4.82,0,0,0-5.27,3.44A33.12,33.12,0,0,1,175,56.45,24.61,24.61,0,0,1,196.7,25.94a24.13,24.13,0,0,1,10.69,1.67A21.3,21.3,0,0,0,198,38.89Zm11.88-21.33a6.27,6.27,0,0,1,3.45-3.5,6.7,6.7,0,0,1,7.35,1.72,5.88,5.88,0,0,1,1.49,3.4,5.44,5.44,0,0,1-2.07,4.62c-1.5,1.15-3.22,1.08-5.22,1h-.22a5.37,5.37,0,0,1-4.34-2.43A5.6,5.6,0,0,1,209.84,17.56ZM180.9,20.43c10-4.77,22.85-2.21,29.63,5.78-.47.16-.94.33-1.4.53a26.12,26.12,0,0,0-12.55-2.27,26.42,26.42,0,0,0-18.81,10.62,18.77,18.77,0,0,0-8.71-3.73A28.44,28.44,0,0,1,180.9,20.43ZM153,39.22a17.18,17.18,0,0,1,11.58-6.53,18,18,0,0,1,2.08-.07A33.13,33.13,0,0,0,163,47.29c-.15,10.06,4.24,20.26,11.86,27.92l-.3.09s-9.27,2.74-17.62-7l.36.53-.18-.18a27.92,27.92,0,0,1-7.44-14.17A19.84,19.84,0,0,1,153,39.22ZM282.87,54.44a27.92,27.92,0,0,1-7.44,14.17,45.63,45.63,0,0,1-7.63,6.45c-4.93,1.82-8.25.82-8.25.82a17.67,17.67,0,0,1-1.94-.68c7.62-7.65,12-17.85,11.86-27.91a33.13,33.13,0,0,0-3.73-14.67,16.45,16.45,0,0,1,13.73,6.6A19.84,19.84,0,0,1,282.87,54.44Z"/><path class="cls-32" d="M164.05,83l0,1.47q22.26.27,44.7.27c20,0,40.11-.17,60-.49l0-1.47C234,83.36,198.78,83.43,164.05,83Z"/><path class="cls-33" d="M219.16,226.32l10.22-.15,11.71-.12,15.2-.09c5.57,0,11.61-.05,18,0s13.11.1,20.07.15,14.16.11,21.47.12,14.73-.05,22.16-.12l22.16-.16,21.47-.08h20.07c6.38,0,12.42,0,18,.09l26.92.23,10.21.14v.1l-10.21.15-26.92.22c-5.57.05-11.61.1-18,.09H381.61l-21.47-.08L338,226.65c-7.43-.07-14.85-.11-22.16-.12s-14.5,0-21.47.11-13.69.16-20.07.16-12.42,0-18,0l-15.2-.08-11.71-.12-10.22-.16Z"/><polygon class="cls-34" points="215.29 13.18 210.7 6.59 215.29 0 219.88 6.59 215.29 13.18"/></g></g></svg>